<svg width="872" height="461" viewBox="0 0 872 461" fill="none" xmlns="http://www.w3.org/2000/svg">
<path opacity="0.75" d="M702.073 47.7528C582.417 0.978167 446.651 -6.27732 341.137 4.18713C198.724 18.3283 151.797 57.0098 131.021 77.7973C120.73 88.0877 61.4028 147.491 75.0871 202.414C81.679 228.76 99.9646 233.513 102.554 261.154C106.404 302.043 68.7453 317.849 68.7018 351.962C68.7018 393.297 123.004 432.632 162.74 446.055C263.784 480.211 373.128 447.665 430.824 416.282C488.52 384.9 559.433 359.554 646.945 384.737C734.457 409.919 833.51 375.284 858.377 316.054C885.267 252.005 889.868 121.135 702.073 47.7528Z" fill="url(#paint0_linear)"/>
<path opacity="0.75" d="M676.978 66.6693C542.006 41.3567 456.246 113.781 195.483 101.707C-103.842 87.8484 -31.4829 285.836 224.146 372.553C499.028 465.842 769.211 469.159 814.256 263.775C813.952 263.677 856.288 100.293 676.978 66.6693Z" fill="url(#paint1_linear)"/>
<path opacity="0.75" d="M49.7855 295.658C63.0864 295.658 73.869 284.876 73.869 271.575C73.869 258.274 63.0864 247.491 49.7855 247.491C36.4846 247.491 25.702 258.274 25.702 271.575C25.702 284.876 36.4846 295.658 49.7855 295.658Z" fill="url(#paint2_linear)"/>
<path opacity="0.75" d="M766.187 136.635C792.386 136.635 813.625 115.397 813.625 89.1972C813.625 62.9978 792.386 41.759 766.187 41.759C739.988 41.759 718.749 62.9978 718.749 89.1972C718.749 115.397 739.988 136.635 766.187 136.635Z" fill="url(#paint3_linear)"/>
<path d="M102.891 240.305V255.086C102.891 256.773 102.51 258.253 101.75 259.523C101 260.794 99.9114 261.768 98.4843 262.445C97.0572 263.122 95.3697 263.461 93.4218 263.461C90.4843 263.461 88.2031 262.711 86.5781 261.211C84.9531 259.701 84.1406 257.638 84.1406 255.023V240.305H88.9687V254.289C88.9687 256.049 89.3229 257.341 90.0312 258.164C90.7395 258.987 91.9114 259.398 93.5468 259.398C95.1301 259.398 96.276 258.987 96.9843 258.164C97.7031 257.331 98.0624 256.029 98.0624 254.258V240.305H102.891ZM123.75 263.148H118.984V252.945C118.984 251.685 118.771 250.742 118.344 250.117C117.927 249.482 117.266 249.164 116.359 249.164C115.141 249.164 114.255 249.612 113.703 250.508C113.151 251.404 112.875 252.878 112.875 254.93V263.148H108.109V245.68H111.75L112.391 247.914H112.656C113.125 247.112 113.802 246.487 114.687 246.039C115.573 245.581 116.588 245.352 117.734 245.352C120.349 245.352 122.12 246.206 123.047 247.914H123.469C123.937 247.102 124.625 246.471 125.531 246.023C126.448 245.576 127.479 245.352 128.625 245.352C130.604 245.352 132.099 245.862 133.109 246.883C134.13 247.893 134.641 249.518 134.641 251.758V263.148H129.859V252.945C129.859 251.685 129.646 250.742 129.219 250.117C128.802 249.482 128.141 249.164 127.234 249.164C126.068 249.164 125.193 249.581 124.609 250.414C124.036 251.247 123.75 252.57 123.75 254.383V263.148ZM158.953 263.148L158.031 260.773H157.906C157.104 261.784 156.276 262.487 155.422 262.883C154.578 263.268 153.474 263.461 152.109 263.461C150.432 263.461 149.109 262.982 148.141 262.023C147.182 261.065 146.703 259.701 146.703 257.93C146.703 256.076 147.349 254.711 148.641 253.836C149.943 252.951 151.901 252.461 154.516 252.367L157.547 252.273V251.508C157.547 249.737 156.641 248.852 154.828 248.852C153.432 248.852 151.792 249.273 149.906 250.117L148.328 246.898C150.338 245.846 152.568 245.32 155.016 245.32C157.359 245.32 159.156 245.831 160.406 246.852C161.656 247.872 162.281 249.424 162.281 251.508V263.148H158.953ZM157.547 255.055L155.703 255.117C154.318 255.159 153.286 255.409 152.609 255.867C151.932 256.326 151.594 257.023 151.594 257.961C151.594 259.305 152.365 259.977 153.906 259.977C155.01 259.977 155.891 259.659 156.547 259.023C157.213 258.388 157.547 257.544 157.547 256.492V255.055ZM182.844 263.148H178.078V252.945C178.078 251.685 177.865 250.742 177.437 250.117C177.021 249.482 176.359 249.164 175.453 249.164C174.234 249.164 173.349 249.612 172.797 250.508C172.245 251.404 171.969 252.878 171.969 254.93V263.148H167.203V245.68H170.844L171.484 247.914H171.75C172.219 247.112 172.896 246.487 173.781 246.039C174.667 245.581 175.682 245.352 176.828 245.352C179.443 245.352 181.213 246.206 182.141 247.914H182.562C183.031 247.102 183.719 246.471 184.625 246.023C185.542 245.576 186.573 245.352 187.719 245.352C189.698 245.352 191.193 245.862 192.203 246.883C193.224 247.893 193.734 249.518 193.734 251.758V263.148H188.953V252.945C188.953 251.685 188.74 250.742 188.312 250.117C187.896 249.482 187.234 249.164 186.328 249.164C185.161 249.164 184.286 249.581 183.703 250.414C183.13 251.247 182.844 252.57 182.844 254.383V263.148ZM208.359 245.352C210.422 245.352 212.036 246.159 213.203 247.773C214.37 249.378 214.953 251.581 214.953 254.383C214.953 257.268 214.349 259.503 213.141 261.086C211.943 262.669 210.307 263.461 208.234 263.461C206.182 263.461 204.573 262.716 203.406 261.227H203.078L202.281 263.148H198.641V238.836H203.406V244.492C203.406 245.211 203.344 246.362 203.219 247.945H203.406C204.521 246.216 206.172 245.352 208.359 245.352ZM206.828 249.164C205.651 249.164 204.792 249.529 204.25 250.258C203.708 250.977 203.427 252.169 203.406 253.836V254.352C203.406 256.227 203.682 257.57 204.234 258.383C204.797 259.195 205.682 259.602 206.891 259.602C207.87 259.602 208.646 259.154 209.219 258.258C209.802 257.352 210.094 256.039 210.094 254.32C210.094 252.602 209.802 251.315 209.219 250.461C208.635 249.596 207.838 249.164 206.828 249.164ZM218.687 241.164C218.687 239.612 219.552 238.836 221.281 238.836C223.01 238.836 223.875 239.612 223.875 241.164C223.875 241.904 223.656 242.482 223.219 242.898C222.792 243.305 222.146 243.508 221.281 243.508C219.552 243.508 218.687 242.727 218.687 241.164ZM223.656 263.148H218.891V245.68H223.656V263.148ZM235.906 248.742C234.896 248.742 234.104 249.065 233.531 249.711C232.958 250.346 232.63 251.253 232.547 252.43H239.234C239.213 251.253 238.906 250.346 238.312 249.711C237.719 249.065 236.917 248.742 235.906 248.742ZM236.578 263.461C233.766 263.461 231.568 262.685 229.984 261.133C228.401 259.581 227.609 257.383 227.609 254.539C227.609 251.612 228.338 249.352 229.797 247.758C231.266 246.154 233.292 245.352 235.875 245.352C238.344 245.352 240.266 246.055 241.641 247.461C243.016 248.867 243.703 250.81 243.703 253.289V255.602H232.437C232.49 256.956 232.891 258.013 233.641 258.773C234.391 259.534 235.443 259.914 236.797 259.914C237.849 259.914 238.844 259.805 239.781 259.586C240.719 259.367 241.698 259.018 242.719 258.539V262.227C241.885 262.643 240.995 262.951 240.047 263.148C239.099 263.357 237.943 263.461 236.578 263.461ZM263.703 263.148H258.937V252.945C258.937 251.685 258.713 250.742 258.266 250.117C257.818 249.482 257.104 249.164 256.125 249.164C254.792 249.164 253.828 249.612 253.234 250.508C252.641 251.393 252.344 252.867 252.344 254.93V263.148H247.578V245.68H251.219L251.859 247.914H252.125C252.656 247.07 253.385 246.435 254.312 246.008C255.25 245.57 256.312 245.352 257.5 245.352C259.531 245.352 261.073 245.904 262.125 247.008C263.177 248.102 263.703 249.685 263.703 251.758V263.148ZM275.969 259.664C276.802 259.664 277.802 259.482 278.969 259.117V262.664C277.781 263.195 276.323 263.461 274.594 263.461C272.687 263.461 271.297 262.982 270.422 262.023C269.557 261.055 269.125 259.607 269.125 257.68V249.258H266.844V247.242L269.469 245.648L270.844 241.961H273.891V245.68H278.781V249.258H273.891V257.68C273.891 258.357 274.078 258.857 274.453 259.18C274.838 259.503 275.344 259.664 275.969 259.664ZM289.75 248.742C288.74 248.742 287.948 249.065 287.375 249.711C286.802 250.346 286.474 251.253 286.391 252.43H293.078C293.057 251.253 292.75 250.346 292.156 249.711C291.562 249.065 290.76 248.742 289.75 248.742ZM290.422 263.461C287.609 263.461 285.411 262.685 283.828 261.133C282.245 259.581 281.453 257.383 281.453 254.539C281.453 251.612 282.182 249.352 283.641 247.758C285.109 246.154 287.135 245.352 289.719 245.352C292.187 245.352 294.109 246.055 295.484 247.461C296.859 248.867 297.547 250.81 297.547 253.289V255.602H286.281C286.333 256.956 286.734 258.013 287.484 258.773C288.234 259.534 289.286 259.914 290.641 259.914C291.693 259.914 292.687 259.805 293.625 259.586C294.562 259.367 295.542 259.018 296.562 258.539V262.227C295.729 262.643 294.838 262.951 293.891 263.148C292.943 263.357 291.786 263.461 290.422 263.461ZM317.094 259.664C317.927 259.664 318.927 259.482 320.094 259.117V262.664C318.906 263.195 317.448 263.461 315.719 263.461C313.812 263.461 312.422 262.982 311.547 262.023C310.682 261.055 310.25 259.607 310.25 257.68V249.258H307.969V247.242L310.594 245.648L311.969 241.961H315.016V245.68H319.906V249.258H315.016V257.68C315.016 258.357 315.203 258.857 315.578 259.18C315.963 259.503 316.469 259.664 317.094 259.664ZM327.437 254.383C327.437 256.112 327.719 257.419 328.281 258.305C328.854 259.19 329.781 259.633 331.062 259.633C332.333 259.633 333.245 259.195 333.797 258.32C334.359 257.435 334.641 256.122 334.641 254.383C334.641 252.654 334.359 251.357 333.797 250.492C333.234 249.628 332.312 249.195 331.031 249.195C329.76 249.195 328.844 249.628 328.281 250.492C327.719 251.346 327.437 252.643 327.437 254.383ZM339.516 254.383C339.516 257.227 338.766 259.451 337.266 261.055C335.766 262.659 333.677 263.461 331 263.461C329.323 263.461 327.844 263.096 326.562 262.367C325.281 261.628 324.297 260.57 323.609 259.195C322.922 257.82 322.578 256.216 322.578 254.383C322.578 251.529 323.323 249.31 324.812 247.727C326.302 246.143 328.396 245.352 331.094 245.352C332.771 245.352 334.25 245.716 335.531 246.445C336.812 247.174 337.797 248.221 338.484 249.586C339.172 250.951 339.516 252.549 339.516 254.383ZM350.812 259.664C351.646 259.664 352.646 259.482 353.812 259.117V262.664C352.625 263.195 351.167 263.461 349.437 263.461C347.531 263.461 346.141 262.982 345.266 262.023C344.401 261.055 343.969 259.607 343.969 257.68V249.258H341.687V247.242L344.312 245.648L345.687 241.961H348.734V245.68H353.625V249.258H348.734V257.68C348.734 258.357 348.922 258.857 349.297 259.18C349.682 259.503 350.187 259.664 350.812 259.664ZM368.453 263.148L367.531 260.773H367.406C366.604 261.784 365.776 262.487 364.922 262.883C364.078 263.268 362.974 263.461 361.609 263.461C359.932 263.461 358.609 262.982 357.641 262.023C356.682 261.065 356.203 259.701 356.203 257.93C356.203 256.076 356.849 254.711 358.141 253.836C359.443 252.951 361.401 252.461 364.016 252.367L367.047 252.273V251.508C367.047 249.737 366.141 248.852 364.328 248.852C362.932 248.852 361.292 249.273 359.406 250.117L357.828 246.898C359.838 245.846 362.068 245.32 364.516 245.32C366.859 245.32 368.656 245.831 369.906 246.852C371.156 247.872 371.781 249.424 371.781 251.508V263.148H368.453ZM367.047 255.055L365.203 255.117C363.818 255.159 362.786 255.409 362.109 255.867C361.432 256.326 361.094 257.023 361.094 257.961C361.094 259.305 361.865 259.977 363.406 259.977C364.51 259.977 365.391 259.659 366.047 259.023C366.713 258.388 367.047 257.544 367.047 256.492V255.055ZM381.469 263.148H376.703V238.836H381.469V263.148ZM402.125 263.148H397.359V252.945C397.359 251.685 397.146 250.742 396.719 250.117C396.302 249.482 395.641 249.164 394.734 249.164C393.516 249.164 392.63 249.612 392.078 250.508C391.526 251.404 391.25 252.878 391.25 254.93V263.148H386.484V245.68H390.125L390.766 247.914H391.031C391.5 247.112 392.177 246.487 393.062 246.039C393.948 245.581 394.963 245.352 396.109 245.352C398.724 245.352 400.495 246.206 401.422 247.914H401.844C402.312 247.102 403 246.471 403.906 246.023C404.823 245.576 405.854 245.352 407 245.352C408.979 245.352 410.474 245.862 411.484 246.883C412.505 247.893 413.016 249.518 413.016 251.758V263.148H408.234V252.945C408.234 251.685 408.021 250.742 407.594 250.117C407.177 249.482 406.516 249.164 405.609 249.164C404.443 249.164 403.568 249.581 402.984 250.414C402.411 251.247 402.125 252.57 402.125 254.383V263.148ZM425.156 248.742C424.146 248.742 423.354 249.065 422.781 249.711C422.208 250.346 421.88 251.253 421.797 252.43H428.484C428.463 251.253 428.156 250.346 427.562 249.711C426.969 249.065 426.167 248.742 425.156 248.742ZM425.828 263.461C423.016 263.461 420.818 262.685 419.234 261.133C417.651 259.581 416.859 257.383 416.859 254.539C416.859 251.612 417.588 249.352 419.047 247.758C420.516 246.154 422.542 245.352 425.125 245.352C427.594 245.352 429.516 246.055 430.891 247.461C432.266 248.867 432.953 250.81 432.953 253.289V255.602H421.687C421.74 256.956 422.141 258.013 422.891 258.773C423.641 259.534 424.693 259.914 426.047 259.914C427.099 259.914 428.094 259.805 429.031 259.586C429.969 259.367 430.948 259.018 431.969 258.539V262.227C431.135 262.643 430.245 262.951 429.297 263.148C428.349 263.357 427.193 263.461 425.828 263.461ZM452.953 263.148H448.187V252.945C448.187 251.685 447.963 250.742 447.516 250.117C447.068 249.482 446.354 249.164 445.375 249.164C444.042 249.164 443.078 249.612 442.484 250.508C441.891 251.393 441.594 252.867 441.594 254.93V263.148H436.828V245.68H440.469L441.109 247.914H441.375C441.906 247.07 442.635 246.435 443.562 246.008C444.5 245.57 445.562 245.352 446.75 245.352C448.781 245.352 450.323 245.904 451.375 247.008C452.427 248.102 452.953 249.685 452.953 251.758V263.148ZM465.219 259.664C466.052 259.664 467.052 259.482 468.219 259.117V262.664C467.031 263.195 465.573 263.461 463.844 263.461C461.937 263.461 460.547 262.982 459.672 262.023C458.807 261.055 458.375 259.607 458.375 257.68V249.258H456.094V247.242L458.719 245.648L460.094 241.961H463.141V245.68H468.031V249.258H463.141V257.68C463.141 258.357 463.328 258.857 463.703 259.18C464.088 259.503 464.594 259.664 465.219 259.664ZM479 248.742C477.99 248.742 477.198 249.065 476.625 249.711C476.052 250.346 475.724 251.253 475.641 252.43H482.328C482.307 251.253 482 250.346 481.406 249.711C480.812 249.065 480.01 248.742 479 248.742ZM479.672 263.461C476.859 263.461 474.661 262.685 473.078 261.133C471.495 259.581 470.703 257.383 470.703 254.539C470.703 251.612 471.432 249.352 472.891 247.758C474.359 246.154 476.385 245.352 478.969 245.352C481.437 245.352 483.359 246.055 484.734 247.461C486.109 248.867 486.797 250.81 486.797 253.289V255.602H475.531C475.583 256.956 475.984 258.013 476.734 258.773C477.484 259.534 478.536 259.914 479.891 259.914C480.943 259.914 481.937 259.805 482.875 259.586C483.812 259.367 484.792 259.018 485.812 258.539V262.227C484.979 262.643 484.088 262.951 483.141 263.148C482.193 263.357 481.036 263.461 479.672 263.461ZM506.078 263.461C500.641 263.461 497.922 260.477 497.922 254.508C497.922 251.539 498.661 249.273 500.141 247.711C501.62 246.138 503.74 245.352 506.5 245.352C508.521 245.352 510.333 245.747 511.937 246.539L510.531 250.227C509.781 249.924 509.083 249.68 508.437 249.492C507.792 249.294 507.146 249.195 506.5 249.195C504.021 249.195 502.781 250.956 502.781 254.477C502.781 257.893 504.021 259.602 506.5 259.602C507.417 259.602 508.266 259.482 509.047 259.242C509.828 258.992 510.609 258.607 511.391 258.086V262.164C510.62 262.654 509.838 262.992 509.047 263.18C508.266 263.367 507.276 263.461 506.078 263.461ZM520.219 263.148H515.453V238.836H520.219V263.148ZM525.031 241.164C525.031 239.612 525.896 238.836 527.625 238.836C529.354 238.836 530.219 239.612 530.219 241.164C530.219 241.904 530 242.482 529.562 242.898C529.135 243.305 528.49 243.508 527.625 243.508C525.896 243.508 525.031 242.727 525.031 241.164ZM530 263.148H525.234V245.68H530V263.148ZM550.656 263.148H545.891V252.945C545.891 251.685 545.677 250.742 545.25 250.117C544.833 249.482 544.172 249.164 543.266 249.164C542.047 249.164 541.161 249.612 540.609 250.508C540.057 251.404 539.781 252.878 539.781 254.93V263.148H535.016V245.68H538.656L539.297 247.914H539.562C540.031 247.112 540.708 246.487 541.594 246.039C542.479 245.581 543.495 245.352 544.641 245.352C547.255 245.352 549.026 246.206 549.953 247.914H550.375C550.844 247.102 551.531 246.471 552.437 246.023C553.354 245.576 554.385 245.352 555.531 245.352C557.51 245.352 559.005 245.862 560.016 246.883C561.036 247.893 561.547 249.518 561.547 251.758V263.148H556.766V252.945C556.766 251.685 556.552 250.742 556.125 250.117C555.708 249.482 555.047 249.164 554.141 249.164C552.974 249.164 552.099 249.581 551.516 250.414C550.943 251.247 550.656 252.57 550.656 254.383V263.148ZM577.547 263.148L576.625 260.773H576.5C575.698 261.784 574.87 262.487 574.016 262.883C573.172 263.268 572.068 263.461 570.703 263.461C569.026 263.461 567.703 262.982 566.734 262.023C565.776 261.065 565.297 259.701 565.297 257.93C565.297 256.076 565.943 254.711 567.234 253.836C568.536 252.951 570.495 252.461 573.109 252.367L576.141 252.273V251.508C576.141 249.737 575.234 248.852 573.422 248.852C572.026 248.852 570.385 249.273 568.5 250.117L566.922 246.898C568.932 245.846 571.161 245.32 573.609 245.32C575.953 245.32 577.75 245.831 579 246.852C580.25 247.872 580.875 249.424 580.875 251.508V263.148H577.547ZM576.141 255.055L574.297 255.117C572.911 255.159 571.88 255.409 571.203 255.867C570.526 256.326 570.187 257.023 570.187 257.961C570.187 259.305 570.958 259.977 572.5 259.977C573.604 259.977 574.484 259.659 575.141 259.023C575.807 258.388 576.141 257.544 576.141 256.492V255.055ZM593.156 259.664C593.99 259.664 594.99 259.482 596.156 259.117V262.664C594.969 263.195 593.51 263.461 591.781 263.461C589.875 263.461 588.484 262.982 587.609 262.023C586.745 261.055 586.312 259.607 586.312 257.68V249.258H584.031V247.242L586.656 245.648L588.031 241.961H591.078V245.68H595.969V249.258H591.078V257.68C591.078 258.357 591.266 258.857 591.641 259.18C592.026 259.503 592.531 259.664 593.156 259.664ZM599.5 241.164C599.5 239.612 600.365 238.836 602.094 238.836C603.823 238.836 604.687 239.612 604.687 241.164C604.687 241.904 604.469 242.482 604.031 242.898C603.604 243.305 602.958 243.508 602.094 243.508C600.365 243.508 599.5 242.727 599.5 241.164ZM604.469 263.148H599.703V245.68H604.469V263.148ZM621.641 263.148H607.844V260.336L615.937 249.32H608.328V245.68H621.359V248.773L613.484 259.508H621.641V263.148ZM636.203 263.148L635.281 260.773H635.156C634.354 261.784 633.526 262.487 632.672 262.883C631.828 263.268 630.724 263.461 629.359 263.461C627.682 263.461 626.359 262.982 625.391 262.023C624.432 261.065 623.953 259.701 623.953 257.93C623.953 256.076 624.599 254.711 625.891 253.836C627.193 252.951 629.151 252.461 631.766 252.367L634.797 252.273V251.508C634.797 249.737 633.891 248.852 632.078 248.852C630.682 248.852 629.042 249.273 627.156 250.117L625.578 246.898C627.588 245.846 629.818 245.32 632.266 245.32C634.609 245.32 636.406 245.831 637.656 246.852C638.906 247.872 639.531 249.424 639.531 251.508V263.148H636.203ZM634.797 255.055L632.953 255.117C631.568 255.159 630.536 255.409 629.859 255.867C629.182 256.326 628.844 257.023 628.844 257.961C628.844 259.305 629.615 259.977 631.156 259.977C632.26 259.977 633.141 259.659 633.797 259.023C634.463 258.388 634.797 257.544 634.797 256.492V255.055ZM649.984 263.461C647.932 263.461 646.318 262.664 645.141 261.07C643.974 259.477 643.391 257.268 643.391 254.445C643.391 251.581 643.984 249.352 645.172 247.758C646.37 246.154 648.016 245.352 650.109 245.352C652.307 245.352 653.984 246.206 655.141 247.914H655.297C655.057 246.612 654.937 245.451 654.937 244.43V238.836H659.719V263.148H656.062L655.141 260.883H654.937C653.854 262.602 652.203 263.461 649.984 263.461ZM651.656 259.664C652.875 259.664 653.766 259.31 654.328 258.602C654.901 257.893 655.213 256.69 655.266 254.992V254.477C655.266 252.602 654.974 251.258 654.391 250.445C653.818 249.633 652.88 249.227 651.578 249.227C650.516 249.227 649.687 249.68 649.094 250.586C648.51 251.482 648.219 252.789 648.219 254.508C648.219 256.227 648.516 257.518 649.109 258.383C649.703 259.237 650.552 259.664 651.656 259.664ZM668.5 254.383C668.5 256.112 668.781 257.419 669.344 258.305C669.917 259.19 670.844 259.633 672.125 259.633C673.396 259.633 674.307 259.195 674.859 258.32C675.422 257.435 675.703 256.122 675.703 254.383C675.703 252.654 675.422 251.357 674.859 250.492C674.297 249.628 673.375 249.195 672.094 249.195C670.823 249.195 669.906 249.628 669.344 250.492C668.781 251.346 668.5 252.643 668.5 254.383ZM680.578 254.383C680.578 257.227 679.828 259.451 678.328 261.055C676.828 262.659 674.74 263.461 672.062 263.461C670.385 263.461 668.906 263.096 667.625 262.367C666.344 261.628 665.359 260.57 664.672 259.195C663.984 257.82 663.641 256.216 663.641 254.383C663.641 251.529 664.385 249.31 665.875 247.727C667.365 246.143 669.458 245.352 672.156 245.352C673.833 245.352 675.312 245.716 676.594 246.445C677.875 247.174 678.859 248.221 679.547 249.586C680.234 250.951 680.578 252.549 680.578 254.383ZM702.422 263.461C700.37 263.461 698.76 262.716 697.594 261.227H697.344C697.51 262.685 697.594 263.529 697.594 263.758V270.836H692.828V245.68H696.703L697.375 247.945H697.594C698.708 246.216 700.359 245.352 702.547 245.352C704.609 245.352 706.224 246.148 707.391 247.742C708.557 249.336 709.141 251.549 709.141 254.383C709.141 256.247 708.865 257.867 708.312 259.242C707.771 260.617 706.995 261.664 705.984 262.383C704.974 263.102 703.786 263.461 702.422 263.461ZM701.016 249.164C699.838 249.164 698.979 249.529 698.437 250.258C697.896 250.977 697.615 252.169 697.594 253.836V254.352C697.594 256.227 697.87 257.57 698.422 258.383C698.984 259.195 699.87 259.602 701.078 259.602C703.213 259.602 704.281 257.841 704.281 254.32C704.281 252.602 704.016 251.315 703.484 250.461C702.963 249.596 702.141 249.164 701.016 249.164ZM724.172 263.148L723.25 260.773H723.125C722.323 261.784 721.495 262.487 720.641 262.883C719.797 263.268 718.693 263.461 717.328 263.461C715.651 263.461 714.328 262.982 713.359 262.023C712.401 261.065 711.922 259.701 711.922 257.93C711.922 256.076 712.568 254.711 713.859 253.836C715.161 252.951 717.12 252.461 719.734 252.367L722.766 252.273V251.508C722.766 249.737 721.859 248.852 720.047 248.852C718.651 248.852 717.01 249.273 715.125 250.117L713.547 246.898C715.557 245.846 717.786 245.32 720.234 245.32C722.578 245.32 724.375 245.831 725.625 246.852C726.875 247.872 727.5 249.424 727.5 251.508V263.148H724.172ZM722.766 255.055L720.922 255.117C719.536 255.159 718.505 255.409 717.828 255.867C717.151 256.326 716.812 257.023 716.812 257.961C716.812 259.305 717.583 259.977 719.125 259.977C720.229 259.977 721.109 259.659 721.766 259.023C722.432 258.388 722.766 257.544 722.766 256.492V255.055ZM742.172 245.352C742.818 245.352 743.354 245.398 743.781 245.492L743.422 249.961C743.036 249.857 742.568 249.805 742.016 249.805C740.495 249.805 739.307 250.195 738.453 250.977C737.609 251.758 737.187 252.852 737.187 254.258V263.148H732.422V245.68H736.031L736.734 248.617H736.969C737.51 247.638 738.24 246.852 739.156 246.258C740.083 245.654 741.088 245.352 742.172 245.352ZM758.047 263.148L757.125 260.773H757C756.198 261.784 755.37 262.487 754.516 262.883C753.672 263.268 752.568 263.461 751.203 263.461C749.526 263.461 748.203 262.982 747.234 262.023C746.276 261.065 745.797 259.701 745.797 257.93C745.797 256.076 746.443 254.711 747.734 253.836C749.036 252.951 750.995 252.461 753.609 252.367L756.641 252.273V251.508C756.641 249.737 755.734 248.852 753.922 248.852C752.526 248.852 750.885 249.273 749 250.117L747.422 246.898C749.432 245.846 751.661 245.32 754.109 245.32C756.453 245.32 758.25 245.831 759.5 246.852C760.75 247.872 761.375 249.424 761.375 251.508V263.148H758.047ZM756.641 255.055L754.797 255.117C753.411 255.159 752.38 255.409 751.703 255.867C751.026 256.326 750.687 257.023 750.687 257.961C750.687 259.305 751.458 259.977 753 259.977C754.104 259.977 754.984 259.659 755.641 259.023C756.307 258.388 756.641 257.544 756.641 256.492V255.055ZM786.984 263.148L786.344 260.914H786.094C785.583 261.727 784.859 262.357 783.922 262.805C782.984 263.242 781.917 263.461 780.719 263.461C778.667 263.461 777.12 262.914 776.078 261.82C775.036 260.716 774.516 259.133 774.516 257.07V245.68H779.281V255.883C779.281 257.143 779.505 258.091 779.953 258.727C780.401 259.352 781.115 259.664 782.094 259.664C783.427 259.664 784.391 259.221 784.984 258.336C785.578 257.44 785.875 255.961 785.875 253.898V245.68H790.641V263.148H786.984ZM811.281 263.148H806.516V252.945C806.516 251.685 806.302 250.742 805.875 250.117C805.458 249.482 804.797 249.164 803.891 249.164C802.672 249.164 801.786 249.612 801.234 250.508C800.682 251.404 800.406 252.878 800.406 254.93V263.148H795.641V245.68H799.281L799.922 247.914H800.187C800.656 247.112 801.333 246.487 802.219 246.039C803.104 245.581 804.12 245.352 805.266 245.352C807.88 245.352 809.651 246.206 810.578 247.914H811C811.469 247.102 812.156 246.471 813.062 246.023C813.979 245.576 815.01 245.352 816.156 245.352C818.135 245.352 819.63 245.862 820.641 246.883C821.661 247.893 822.172 249.518 822.172 251.758V263.148H817.391V252.945C817.391 251.685 817.177 250.742 816.75 250.117C816.333 249.482 815.672 249.164 814.766 249.164C813.599 249.164 812.724 249.581 812.141 250.414C811.568 251.247 811.281 252.57 811.281 254.383V263.148ZM175.344 307.148H170.578V296.945C170.578 295.685 170.365 294.742 169.937 294.117C169.521 293.482 168.859 293.164 167.953 293.164C166.734 293.164 165.849 293.612 165.297 294.508C164.745 295.404 164.469 296.878 164.469 298.93V307.148H159.703V289.68H163.344L163.984 291.914H164.25C164.719 291.112 165.396 290.487 166.281 290.039C167.167 289.581 168.182 289.352 169.328 289.352C171.943 289.352 173.713 290.206 174.641 291.914H175.062C175.531 291.102 176.219 290.471 177.125 290.023C178.042 289.576 179.073 289.352 180.219 289.352C182.198 289.352 183.693 289.862 184.703 290.883C185.724 291.893 186.234 293.518 186.234 295.758V307.148H181.453V296.945C181.453 295.685 181.24 294.742 180.812 294.117C180.396 293.482 179.734 293.164 178.828 293.164C177.661 293.164 176.786 293.581 176.203 294.414C175.63 295.247 175.344 296.57 175.344 298.383V307.148ZM198.375 292.742C197.365 292.742 196.573 293.065 196 293.711C195.427 294.346 195.099 295.253 195.016 296.43H201.703C201.682 295.253 201.375 294.346 200.781 293.711C200.187 293.065 199.385 292.742 198.375 292.742ZM199.047 307.461C196.234 307.461 194.036 306.685 192.453 305.133C190.87 303.581 190.078 301.383 190.078 298.539C190.078 295.612 190.807 293.352 192.266 291.758C193.734 290.154 195.76 289.352 198.344 289.352C200.812 289.352 202.734 290.055 204.109 291.461C205.484 292.867 206.172 294.81 206.172 297.289V299.602H194.906C194.958 300.956 195.359 302.013 196.109 302.773C196.859 303.534 197.911 303.914 199.266 303.914C200.318 303.914 201.312 303.805 202.25 303.586C203.187 303.367 204.167 303.018 205.187 302.539V306.227C204.354 306.643 203.463 306.951 202.516 307.148C201.568 307.357 200.411 307.461 199.047 307.461ZM214.812 307.148H210.047V282.836H214.812V307.148ZM235.953 307.148H231.187V296.945C231.187 294.424 230.25 293.164 228.375 293.164C227.042 293.164 226.078 293.617 225.484 294.523C224.891 295.43 224.594 296.898 224.594 298.93V307.148H219.828V282.836H224.594V287.789C224.594 288.174 224.557 289.081 224.484 290.508L224.375 291.914H224.625C225.687 290.206 227.375 289.352 229.687 289.352C231.74 289.352 233.297 289.904 234.359 291.008C235.422 292.112 235.953 293.695 235.953 295.758V307.148ZM244.656 298.383C244.656 300.112 244.937 301.419 245.5 302.305C246.073 303.19 247 303.633 248.281 303.633C249.552 303.633 250.463 303.195 251.016 302.32C251.578 301.435 251.859 300.122 251.859 298.383C251.859 296.654 251.578 295.357 251.016 294.492C250.453 293.628 249.531 293.195 248.25 293.195C246.979 293.195 246.062 293.628 245.5 294.492C244.937 295.346 244.656 296.643 244.656 298.383ZM256.734 298.383C256.734 301.227 255.984 303.451 254.484 305.055C252.984 306.659 250.896 307.461 248.219 307.461C246.542 307.461 245.062 307.096 243.781 306.367C242.5 305.628 241.516 304.57 240.828 303.195C240.141 301.82 239.797 300.216 239.797 298.383C239.797 295.529 240.542 293.31 242.031 291.727C243.521 290.143 245.615 289.352 248.312 289.352C249.99 289.352 251.469 289.716 252.75 290.445C254.031 291.174 255.016 292.221 255.703 293.586C256.391 294.951 256.734 296.549 256.734 298.383ZM270.422 289.352C271.068 289.352 271.604 289.398 272.031 289.492L271.672 293.961C271.286 293.857 270.818 293.805 270.266 293.805C268.745 293.805 267.557 294.195 266.703 294.977C265.859 295.758 265.437 296.852 265.437 298.258V307.148H260.672V289.68H264.281L264.984 292.617H265.219C265.76 291.638 266.49 290.852 267.406 290.258C268.333 289.654 269.338 289.352 270.422 289.352ZM293.234 289.352C295.297 289.352 296.911 290.159 298.078 291.773C299.245 293.378 299.828 295.581 299.828 298.383C299.828 301.268 299.224 303.503 298.016 305.086C296.818 306.669 295.182 307.461 293.109 307.461C291.057 307.461 289.448 306.716 288.281 305.227H287.953L287.156 307.148H283.516V282.836H288.281V288.492C288.281 289.211 288.219 290.362 288.094 291.945H288.281C289.396 290.216 291.047 289.352 293.234 289.352ZM291.703 293.164C290.526 293.164 289.667 293.529 289.125 294.258C288.583 294.977 288.302 296.169 288.281 297.836V298.352C288.281 300.227 288.557 301.57 289.109 302.383C289.672 303.195 290.557 303.602 291.766 303.602C292.745 303.602 293.521 303.154 294.094 302.258C294.677 301.352 294.969 300.039 294.969 298.32C294.969 296.602 294.677 295.315 294.094 294.461C293.51 293.596 292.713 293.164 291.703 293.164ZM311 292.742C309.99 292.742 309.198 293.065 308.625 293.711C308.052 294.346 307.724 295.253 307.641 296.43H314.328C314.307 295.253 314 294.346 313.406 293.711C312.812 293.065 312.01 292.742 311 292.742ZM311.672 307.461C308.859 307.461 306.661 306.685 305.078 305.133C303.495 303.581 302.703 301.383 302.703 298.539C302.703 295.612 303.432 293.352 304.891 291.758C306.359 290.154 308.385 289.352 310.969 289.352C313.437 289.352 315.359 290.055 316.734 291.461C318.109 292.867 318.797 294.81 318.797 297.289V299.602H307.531C307.583 300.956 307.984 302.013 308.734 302.773C309.484 303.534 310.536 303.914 311.891 303.914C312.943 303.914 313.937 303.805 314.875 303.586C315.812 303.367 316.792 303.018 317.812 302.539V306.227C316.979 306.643 316.088 306.951 315.141 307.148C314.193 307.357 313.036 307.461 311.672 307.461ZM338.312 307.148H333.547V296.945C333.547 295.685 333.333 294.742 332.906 294.117C332.49 293.482 331.828 293.164 330.922 293.164C329.703 293.164 328.818 293.612 328.266 294.508C327.713 295.404 327.437 296.878 327.437 298.93V307.148H322.672V289.68H326.312L326.953 291.914H327.219C327.687 291.112 328.365 290.487 329.25 290.039C330.135 289.581 331.151 289.352 332.297 289.352C334.911 289.352 336.682 290.206 337.609 291.914H338.031C338.5 291.102 339.187 290.471 340.094 290.023C341.01 289.576 342.042 289.352 343.187 289.352C345.167 289.352 346.661 289.862 347.672 290.883C348.693 291.893 349.203 293.518 349.203 295.758V307.148H344.422V296.945C344.422 295.685 344.208 294.742 343.781 294.117C343.365 293.482 342.703 293.164 341.797 293.164C340.63 293.164 339.755 293.581 339.172 294.414C338.599 295.247 338.312 296.57 338.312 298.383V307.148ZM369.656 292.742C368.646 292.742 367.854 293.065 367.281 293.711C366.708 294.346 366.38 295.253 366.297 296.43H372.984C372.963 295.253 372.656 294.346 372.062 293.711C371.469 293.065 370.667 292.742 369.656 292.742ZM370.328 307.461C367.516 307.461 365.318 306.685 363.734 305.133C362.151 303.581 361.359 301.383 361.359 298.539C361.359 295.612 362.088 293.352 363.547 291.758C365.016 290.154 367.042 289.352 369.625 289.352C372.094 289.352 374.016 290.055 375.391 291.461C376.766 292.867 377.453 294.81 377.453 297.289V299.602H366.187C366.24 300.956 366.641 302.013 367.391 302.773C368.141 303.534 369.193 303.914 370.547 303.914C371.599 303.914 372.594 303.805 373.531 303.586C374.469 303.367 375.448 303.018 376.469 302.539V306.227C375.635 306.643 374.745 306.951 373.797 307.148C372.849 307.357 371.693 307.461 370.328 307.461ZM393.516 301.961C393.516 303.753 392.891 305.117 391.641 306.055C390.401 306.992 388.542 307.461 386.062 307.461C384.792 307.461 383.708 307.372 382.812 307.195C381.917 307.029 381.078 306.779 380.297 306.445V302.508C381.182 302.924 382.177 303.273 383.281 303.555C384.396 303.836 385.375 303.977 386.219 303.977C387.948 303.977 388.812 303.477 388.812 302.477C388.812 302.102 388.698 301.799 388.469 301.57C388.24 301.331 387.844 301.065 387.281 300.773C386.719 300.471 385.969 300.122 385.031 299.727C383.687 299.164 382.698 298.643 382.062 298.164C381.437 297.685 380.979 297.138 380.687 296.523C380.406 295.898 380.266 295.133 380.266 294.227C380.266 292.674 380.865 291.477 382.062 290.633C383.271 289.779 384.979 289.352 387.187 289.352C389.292 289.352 391.338 289.81 393.328 290.727L391.891 294.164C391.016 293.789 390.198 293.482 389.437 293.242C388.677 293.003 387.901 292.883 387.109 292.883C385.703 292.883 385 293.263 385 294.023C385 294.451 385.224 294.82 385.672 295.133C386.13 295.445 387.125 295.909 388.656 296.523C390.021 297.076 391.021 297.591 391.656 298.07C392.292 298.549 392.76 299.102 393.062 299.727C393.365 300.352 393.516 301.096 393.516 301.961ZM404.594 303.664C405.427 303.664 406.427 303.482 407.594 303.117V306.664C406.406 307.195 404.948 307.461 403.219 307.461C401.312 307.461 399.922 306.982 399.047 306.023C398.182 305.055 397.75 303.607 397.75 301.68V293.258H395.469V291.242L398.094 289.648L399.469 285.961H402.516V289.68H407.406V293.258H402.516V301.68C402.516 302.357 402.703 302.857 403.078 303.18C403.463 303.503 403.969 303.664 404.594 303.664ZM422.234 307.148L421.312 304.773H421.187C420.385 305.784 419.557 306.487 418.703 306.883C417.859 307.268 416.755 307.461 415.391 307.461C413.713 307.461 412.391 306.982 411.422 306.023C410.463 305.065 409.984 303.701 409.984 301.93C409.984 300.076 410.63 298.711 411.922 297.836C413.224 296.951 415.182 296.461 417.797 296.367L420.828 296.273V295.508C420.828 293.737 419.922 292.852 418.109 292.852C416.713 292.852 415.073 293.273 413.187 294.117L411.609 290.898C413.62 289.846 415.849 289.32 418.297 289.32C420.641 289.32 422.437 289.831 423.687 290.852C424.937 291.872 425.562 293.424 425.562 295.508V307.148H422.234ZM420.828 299.055L418.984 299.117C417.599 299.159 416.568 299.409 415.891 299.867C415.213 300.326 414.875 301.023 414.875 301.961C414.875 303.305 415.646 303.977 417.187 303.977C418.292 303.977 419.172 303.659 419.828 303.023C420.495 302.388 420.828 301.544 420.828 300.492V299.055ZM440.234 289.352C440.88 289.352 441.417 289.398 441.844 289.492L441.484 293.961C441.099 293.857 440.63 293.805 440.078 293.805C438.557 293.805 437.37 294.195 436.516 294.977C435.672 295.758 435.25 296.852 435.25 298.258V307.148H430.484V289.68H434.094L434.797 292.617H435.031C435.573 291.638 436.302 290.852 437.219 290.258C438.146 289.654 439.151 289.352 440.234 289.352ZM458.859 307.461C456.807 307.461 455.193 306.664 454.016 305.07C452.849 303.477 452.266 301.268 452.266 298.445C452.266 295.581 452.859 293.352 454.047 291.758C455.245 290.154 456.891 289.352 458.984 289.352C461.182 289.352 462.859 290.206 464.016 291.914H464.172C463.932 290.612 463.812 289.451 463.812 288.43V282.836H468.594V307.148H464.937L464.016 304.883H463.812C462.729 306.602 461.078 307.461 458.859 307.461ZM460.531 303.664C461.75 303.664 462.641 303.31 463.203 302.602C463.776 301.893 464.088 300.69 464.141 298.992V298.477C464.141 296.602 463.849 295.258 463.266 294.445C462.693 293.633 461.755 293.227 460.453 293.227C459.391 293.227 458.562 293.68 457.969 294.586C457.385 295.482 457.094 296.789 457.094 298.508C457.094 300.227 457.391 301.518 457.984 302.383C458.578 303.237 459.427 303.664 460.531 303.664ZM480.812 292.742C479.802 292.742 479.01 293.065 478.437 293.711C477.865 294.346 477.536 295.253 477.453 296.43H484.141C484.12 295.253 483.812 294.346 483.219 293.711C482.625 293.065 481.823 292.742 480.812 292.742ZM481.484 307.461C478.672 307.461 476.474 306.685 474.891 305.133C473.307 303.581 472.516 301.383 472.516 298.539C472.516 295.612 473.245 293.352 474.703 291.758C476.172 290.154 478.198 289.352 480.781 289.352C483.25 289.352 485.172 290.055 486.547 291.461C487.922 292.867 488.609 294.81 488.609 297.289V299.602H477.344C477.396 300.956 477.797 302.013 478.547 302.773C479.297 303.534 480.349 303.914 481.703 303.914C482.755 303.914 483.75 303.805 484.687 303.586C485.625 303.367 486.604 303.018 487.625 302.539V306.227C486.792 306.643 485.901 306.951 484.953 307.148C484.005 307.357 482.849 307.461 481.484 307.461ZM516.922 307.148H512.156V296.945C512.156 295.685 511.932 294.742 511.484 294.117C511.036 293.482 510.323 293.164 509.344 293.164C508.01 293.164 507.047 293.612 506.453 294.508C505.859 295.393 505.562 296.867 505.562 298.93V307.148H500.797V289.68H504.437L505.078 291.914H505.344C505.875 291.07 506.604 290.435 507.531 290.008C508.469 289.57 509.531 289.352 510.719 289.352C512.75 289.352 514.292 289.904 515.344 291.008C516.396 292.102 516.922 293.685 516.922 295.758V307.148ZM525.625 298.383C525.625 300.112 525.906 301.419 526.469 302.305C527.042 303.19 527.969 303.633 529.25 303.633C530.521 303.633 531.432 303.195 531.984 302.32C532.547 301.435 532.828 300.122 532.828 298.383C532.828 296.654 532.547 295.357 531.984 294.492C531.422 293.628 530.5 293.195 529.219 293.195C527.948 293.195 527.031 293.628 526.469 294.492C525.906 295.346 525.625 296.643 525.625 298.383ZM537.703 298.383C537.703 301.227 536.953 303.451 535.453 305.055C533.953 306.659 531.865 307.461 529.187 307.461C527.51 307.461 526.031 307.096 524.75 306.367C523.469 305.628 522.484 304.57 521.797 303.195C521.109 301.82 520.766 300.216 520.766 298.383C520.766 295.529 521.51 293.31 523 291.727C524.49 290.143 526.583 289.352 529.281 289.352C530.958 289.352 532.437 289.716 533.719 290.445C535 291.174 535.984 292.221 536.672 293.586C537.359 294.951 537.703 296.549 537.703 298.383ZM553.828 301.961C553.828 303.753 553.203 305.117 551.953 306.055C550.713 306.992 548.854 307.461 546.375 307.461C545.104 307.461 544.021 307.372 543.125 307.195C542.229 307.029 541.391 306.779 540.609 306.445V302.508C541.495 302.924 542.49 303.273 543.594 303.555C544.708 303.836 545.687 303.977 546.531 303.977C548.26 303.977 549.125 303.477 549.125 302.477C549.125 302.102 549.01 301.799 548.781 301.57C548.552 301.331 548.156 301.065 547.594 300.773C547.031 300.471 546.281 300.122 545.344 299.727C544 299.164 543.01 298.643 542.375 298.164C541.75 297.685 541.292 297.138 541 296.523C540.719 295.898 540.578 295.133 540.578 294.227C540.578 292.674 541.177 291.477 542.375 290.633C543.583 289.779 545.292 289.352 547.5 289.352C549.604 289.352 551.651 289.81 553.641 290.727L552.203 294.164C551.328 293.789 550.51 293.482 549.75 293.242C548.99 293.003 548.213 292.883 547.422 292.883C546.016 292.883 545.312 293.263 545.312 294.023C545.312 294.451 545.536 294.82 545.984 295.133C546.443 295.445 547.437 295.909 548.969 296.523C550.333 297.076 551.333 297.591 551.969 298.07C552.604 298.549 553.073 299.102 553.375 299.727C553.677 300.352 553.828 301.096 553.828 301.961ZM569.734 301.961C569.734 303.753 569.109 305.117 567.859 306.055C566.62 306.992 564.76 307.461 562.281 307.461C561.01 307.461 559.927 307.372 559.031 307.195C558.135 307.029 557.297 306.779 556.516 306.445V302.508C557.401 302.924 558.396 303.273 559.5 303.555C560.615 303.836 561.594 303.977 562.437 303.977C564.167 303.977 565.031 303.477 565.031 302.477C565.031 302.102 564.917 301.799 564.687 301.57C564.458 301.331 564.062 301.065 563.5 300.773C562.937 300.471 562.187 300.122 561.25 299.727C559.906 299.164 558.917 298.643 558.281 298.164C557.656 297.685 557.198 297.138 556.906 296.523C556.625 295.898 556.484 295.133 556.484 294.227C556.484 292.674 557.083 291.477 558.281 290.633C559.49 289.779 561.198 289.352 563.406 289.352C565.51 289.352 567.557 289.81 569.547 290.727L568.109 294.164C567.234 293.789 566.417 293.482 565.656 293.242C564.896 293.003 564.12 292.883 563.328 292.883C561.922 292.883 561.219 293.263 561.219 294.023C561.219 294.451 561.443 294.82 561.891 295.133C562.349 295.445 563.344 295.909 564.875 296.523C566.24 297.076 567.24 297.591 567.875 298.07C568.51 298.549 568.979 299.102 569.281 299.727C569.583 300.352 569.734 301.096 569.734 301.961ZM577.25 298.383C577.25 300.112 577.531 301.419 578.094 302.305C578.667 303.19 579.594 303.633 580.875 303.633C582.146 303.633 583.057 303.195 583.609 302.32C584.172 301.435 584.453 300.122 584.453 298.383C584.453 296.654 584.172 295.357 583.609 294.492C583.047 293.628 582.125 293.195 580.844 293.195C579.573 293.195 578.656 293.628 578.094 294.492C577.531 295.346 577.25 296.643 577.25 298.383ZM589.328 298.383C589.328 301.227 588.578 303.451 587.078 305.055C585.578 306.659 583.49 307.461 580.812 307.461C579.135 307.461 577.656 307.096 576.375 306.367C575.094 305.628 574.109 304.57 573.422 303.195C572.734 301.82 572.391 300.216 572.391 298.383C572.391 295.529 573.135 293.31 574.625 291.727C576.115 290.143 578.208 289.352 580.906 289.352C582.583 289.352 584.062 289.716 585.344 290.445C586.625 291.174 587.609 292.221 588.297 293.586C588.984 294.951 589.328 296.549 589.328 298.383ZM605.453 301.961C605.453 303.753 604.828 305.117 603.578 306.055C602.338 306.992 600.479 307.461 598 307.461C596.729 307.461 595.646 307.372 594.75 307.195C593.854 307.029 593.016 306.779 592.234 306.445V302.508C593.12 302.924 594.115 303.273 595.219 303.555C596.333 303.836 597.312 303.977 598.156 303.977C599.885 303.977 600.75 303.477 600.75 302.477C600.75 302.102 600.635 301.799 600.406 301.57C600.177 301.331 599.781 301.065 599.219 300.773C598.656 300.471 597.906 300.122 596.969 299.727C595.625 299.164 594.635 298.643 594 298.164C593.375 297.685 592.917 297.138 592.625 296.523C592.344 295.898 592.203 295.133 592.203 294.227C592.203 292.674 592.802 291.477 594 290.633C595.208 289.779 596.917 289.352 599.125 289.352C601.229 289.352 603.276 289.81 605.266 290.727L603.828 294.164C602.953 293.789 602.135 293.482 601.375 293.242C600.615 293.003 599.838 292.883 599.047 292.883C597.641 292.883 596.937 293.263 596.937 294.023C596.937 294.451 597.161 294.82 597.609 295.133C598.068 295.445 599.062 295.909 600.594 296.523C601.958 297.076 602.958 297.591 603.594 298.07C604.229 298.549 604.698 299.102 605 299.727C605.302 300.352 605.453 301.096 605.453 301.961ZM624.578 307.461C619.141 307.461 616.422 304.477 616.422 298.508C616.422 295.539 617.161 293.273 618.641 291.711C620.12 290.138 622.24 289.352 625 289.352C627.021 289.352 628.833 289.747 630.437 290.539L629.031 294.227C628.281 293.924 627.583 293.68 626.937 293.492C626.292 293.294 625.646 293.195 625 293.195C622.521 293.195 621.281 294.956 621.281 298.477C621.281 301.893 622.521 303.602 625 303.602C625.917 303.602 626.766 303.482 627.547 303.242C628.328 302.992 629.109 302.607 629.891 302.086V306.164C629.12 306.654 628.338 306.992 627.547 307.18C626.766 307.367 625.776 307.461 624.578 307.461ZM638.719 307.148H633.953V282.836H638.719V307.148ZM643.531 285.164C643.531 283.612 644.396 282.836 646.125 282.836C647.854 282.836 648.719 283.612 648.719 285.164C648.719 285.904 648.5 286.482 648.062 286.898C647.635 287.305 646.99 287.508 646.125 287.508C644.396 287.508 643.531 286.727 643.531 285.164ZM648.5 307.148H643.734V289.68H648.5V307.148ZM660.75 292.742C659.74 292.742 658.948 293.065 658.375 293.711C657.802 294.346 657.474 295.253 657.391 296.43H664.078C664.057 295.253 663.75 294.346 663.156 293.711C662.562 293.065 661.76 292.742 660.75 292.742ZM661.422 307.461C658.609 307.461 656.411 306.685 654.828 305.133C653.245 303.581 652.453 301.383 652.453 298.539C652.453 295.612 653.182 293.352 654.641 291.758C656.109 290.154 658.135 289.352 660.719 289.352C663.187 289.352 665.109 290.055 666.484 291.461C667.859 292.867 668.547 294.81 668.547 297.289V299.602H657.281C657.333 300.956 657.734 302.013 658.484 302.773C659.234 303.534 660.286 303.914 661.641 303.914C662.693 303.914 663.687 303.805 664.625 303.586C665.562 303.367 666.542 303.018 667.562 302.539V306.227C666.729 306.643 665.838 306.951 664.891 307.148C663.943 307.357 662.786 307.461 661.422 307.461ZM688.547 307.148H683.781V296.945C683.781 295.685 683.557 294.742 683.109 294.117C682.661 293.482 681.948 293.164 680.969 293.164C679.635 293.164 678.672 293.612 678.078 294.508C677.484 295.393 677.187 296.867 677.187 298.93V307.148H672.422V289.68H676.062L676.703 291.914H676.969C677.5 291.07 678.229 290.435 679.156 290.008C680.094 289.57 681.156 289.352 682.344 289.352C684.375 289.352 685.917 289.904 686.969 291.008C688.021 292.102 688.547 293.685 688.547 295.758V307.148ZM700.812 303.664C701.646 303.664 702.646 303.482 703.812 303.117V306.664C702.625 307.195 701.167 307.461 699.437 307.461C697.531 307.461 696.141 306.982 695.266 306.023C694.401 305.055 693.969 303.607 693.969 301.68V293.258H691.687V291.242L694.312 289.648L695.687 285.961H698.734V289.68H703.625V293.258H698.734V301.68C698.734 302.357 698.922 302.857 699.297 303.18C699.682 303.503 700.187 303.664 700.812 303.664ZM714.594 292.742C713.583 292.742 712.792 293.065 712.219 293.711C711.646 294.346 711.318 295.253 711.234 296.43H717.922C717.901 295.253 717.594 294.346 717 293.711C716.406 293.065 715.604 292.742 714.594 292.742ZM715.266 307.461C712.453 307.461 710.255 306.685 708.672 305.133C707.088 303.581 706.297 301.383 706.297 298.539C706.297 295.612 707.026 293.352 708.484 291.758C709.953 290.154 711.979 289.352 714.562 289.352C717.031 289.352 718.953 290.055 720.328 291.461C721.703 292.867 722.391 294.81 722.391 297.289V299.602H711.125C711.177 300.956 711.578 302.013 712.328 302.773C713.078 303.534 714.13 303.914 715.484 303.914C716.536 303.914 717.531 303.805 718.469 303.586C719.406 303.367 720.385 303.018 721.406 302.539V306.227C720.573 306.643 719.682 306.951 718.734 307.148C717.786 307.357 716.63 307.461 715.266 307.461ZM738.453 301.961C738.453 303.753 737.828 305.117 736.578 306.055C735.338 306.992 733.479 307.461 731 307.461C729.729 307.461 728.646 307.372 727.75 307.195C726.854 307.029 726.016 306.779 725.234 306.445V302.508C726.12 302.924 727.115 303.273 728.219 303.555C729.333 303.836 730.312 303.977 731.156 303.977C732.885 303.977 733.75 303.477 733.75 302.477C733.75 302.102 733.635 301.799 733.406 301.57C733.177 301.331 732.781 301.065 732.219 300.773C731.656 300.471 730.906 300.122 729.969 299.727C728.625 299.164 727.635 298.643 727 298.164C726.375 297.685 725.917 297.138 725.625 296.523C725.344 295.898 725.203 295.133 725.203 294.227C725.203 292.674 725.802 291.477 727 290.633C728.208 289.779 729.917 289.352 732.125 289.352C734.229 289.352 736.276 289.81 738.266 290.727L736.828 294.164C735.953 293.789 735.135 293.482 734.375 293.242C733.615 293.003 732.838 292.883 732.047 292.883C730.641 292.883 729.937 293.263 729.937 294.023C729.937 294.451 730.161 294.82 730.609 295.133C731.068 295.445 732.062 295.909 733.594 296.523C734.958 297.076 735.958 297.591 736.594 298.07C737.229 298.549 737.698 299.102 738 299.727C738.302 300.352 738.453 301.096 738.453 301.961ZM741.5 304.914C741.5 304.039 741.734 303.378 742.203 302.93C742.672 302.482 743.354 302.258 744.25 302.258C745.115 302.258 745.781 302.487 746.25 302.945C746.729 303.404 746.969 304.06 746.969 304.914C746.969 305.737 746.729 306.388 746.25 306.867C745.771 307.336 745.104 307.57 744.25 307.57C743.375 307.57 742.698 307.341 742.219 306.883C741.74 306.414 741.5 305.758 741.5 304.914Z" fill="#F4F4F4"/>
<path d="M265.581 147.335C261.423 147.335 258.203 148.904 255.921 152.041C253.64 155.153 252.5 159.502 252.5 165.086C252.5 176.707 256.86 182.517 265.581 182.517C269.241 182.517 273.672 181.602 278.876 179.772V189.04C274.599 190.822 269.823 191.713 264.547 191.713C256.967 191.713 251.169 189.42 247.153 184.833C243.137 180.223 241.129 173.617 241.129 165.015C241.129 159.597 242.115 154.856 244.087 150.793C246.06 146.706 248.888 143.581 252.571 141.418C256.278 139.232 260.615 138.139 265.581 138.139C270.643 138.139 275.728 139.363 280.837 141.811L277.272 150.793C275.324 149.866 273.363 149.058 271.391 148.369C269.419 147.68 267.482 147.335 265.581 147.335ZM300.014 191H289.142V135.537H300.014V191ZM310.992 140.848C310.992 137.307 312.965 135.537 316.909 135.537C320.854 135.537 322.826 137.307 322.826 140.848C322.826 142.535 322.327 143.854 321.329 144.805C320.355 145.731 318.882 146.195 316.909 146.195C312.965 146.195 310.992 144.413 310.992 140.848ZM322.327 191H311.456V151.149H322.327V191ZM369.449 191H358.578V167.724C358.578 164.849 358.09 162.698 357.116 161.272C356.166 159.823 354.657 159.098 352.589 159.098C349.809 159.098 347.789 160.12 346.53 162.164C345.27 164.207 344.641 167.57 344.641 172.251V191H333.769V151.149H342.074L343.536 156.247H344.142C345.211 154.417 346.756 152.991 348.775 151.969C350.795 150.924 353.112 150.401 355.726 150.401C361.691 150.401 365.73 152.349 367.845 156.247H368.808C369.877 154.393 371.445 152.955 373.513 151.934C375.604 150.912 377.956 150.401 380.57 150.401C385.085 150.401 388.495 151.565 390.8 153.894C393.129 156.199 394.293 159.906 394.293 165.015V191H383.386V167.724C383.386 164.849 382.899 162.698 381.925 161.272C380.974 159.823 379.465 159.098 377.398 159.098C374.736 159.098 372.74 160.049 371.41 161.95C370.103 163.851 369.449 166.869 369.449 171.003V191ZM430.793 191L428.69 185.582H428.405C426.576 187.887 424.686 189.491 422.738 190.394C420.813 191.273 418.294 191.713 415.181 191.713C411.355 191.713 408.337 190.62 406.127 188.434C403.941 186.247 402.848 183.134 402.848 179.095C402.848 174.865 404.321 171.752 407.268 169.756C410.238 167.736 414.706 166.619 420.67 166.405L427.585 166.191V164.445C427.585 160.405 425.518 158.385 421.383 158.385C418.199 158.385 414.456 159.348 410.155 161.272L406.555 153.93C411.141 151.53 416.227 150.33 421.811 150.33C427.158 150.33 431.257 151.494 434.108 153.823C436.96 156.152 438.386 159.692 438.386 164.445V191H430.793ZM427.585 172.536L423.379 172.679C420.219 172.774 417.866 173.344 416.322 174.39C414.777 175.435 414.005 177.027 414.005 179.166C414.005 182.231 415.763 183.764 419.28 183.764C421.799 183.764 423.807 183.039 425.304 181.59C426.825 180.14 427.585 178.215 427.585 175.815V172.536ZM466.402 183.051C468.303 183.051 470.585 182.635 473.246 181.804V189.895C470.537 191.107 467.21 191.713 463.266 191.713C458.917 191.713 455.745 190.62 453.749 188.434C451.776 186.224 450.79 182.921 450.79 178.524V159.312H445.586V154.714L451.574 151.078L454.711 142.666H461.662V151.149H472.818V159.312H461.662V178.524C461.662 180.069 462.089 181.21 462.945 181.946C463.824 182.683 464.977 183.051 466.402 183.051ZM480.874 140.848C480.874 137.307 482.846 135.537 486.791 135.537C490.736 135.537 492.708 137.307 492.708 140.848C492.708 142.535 492.209 143.854 491.211 144.805C490.237 145.731 488.763 146.195 486.791 146.195C482.846 146.195 480.874 144.413 480.874 140.848ZM492.209 191H481.337V151.149H492.209V191ZM531.382 191H499.908V184.584L518.372 159.455H501.013V151.149H530.741V158.207L512.776 182.695H531.382V191ZM564.603 191L562.5 185.582H562.215C560.385 187.887 558.496 189.491 556.547 190.394C554.623 191.273 552.104 191.713 548.991 191.713C545.165 191.713 542.147 190.62 539.937 188.434C537.751 186.247 536.658 183.134 536.658 179.095C536.658 174.865 538.131 171.752 541.078 169.756C544.048 167.736 548.515 166.619 554.48 166.405L561.395 166.191V164.445C561.395 160.405 559.328 158.385 555.193 158.385C552.009 158.385 548.266 159.348 543.965 161.272L540.365 153.93C544.951 151.53 550.036 150.33 555.621 150.33C560.967 150.33 565.066 151.494 567.918 153.823C570.77 156.152 572.195 159.692 572.195 164.445V191H564.603ZM561.395 172.536L557.189 172.679C554.028 172.774 551.676 173.344 550.131 174.39C548.587 175.435 547.814 177.027 547.814 179.166C547.814 182.231 549.573 183.764 553.09 183.764C555.609 183.764 557.617 183.039 559.114 181.59C560.635 180.14 561.395 178.215 561.395 175.815V172.536ZM596.042 191.713C591.36 191.713 587.677 189.895 584.992 186.259C582.33 182.624 581 177.586 581 171.146C581 164.611 582.354 159.526 585.063 155.89C587.796 152.231 591.55 150.401 596.327 150.401C601.341 150.401 605.167 152.349 607.804 156.247H608.161C607.614 153.276 607.341 150.627 607.341 148.298V135.537H618.248V191H609.907L607.804 185.832H607.341C604.869 189.752 601.103 191.713 596.042 191.713ZM599.855 183.051C602.636 183.051 604.667 182.243 605.951 180.627C607.258 179.012 607.971 176.267 608.089 172.394V171.217C608.089 166.94 607.424 163.875 606.093 162.021C604.786 160.167 602.648 159.241 599.677 159.241C597.253 159.241 595.364 160.274 594.01 162.342C592.679 164.385 592.014 167.368 592.014 171.289C592.014 175.209 592.691 178.156 594.045 180.128C595.4 182.077 597.337 183.051 599.855 183.051ZM638.28 171.003C638.28 174.948 638.922 177.93 640.205 179.95C641.512 181.97 643.627 182.98 646.55 182.98C649.449 182.98 651.528 181.982 652.788 179.986C654.071 177.966 654.712 174.972 654.712 171.003C654.712 167.059 654.071 164.1 652.788 162.128C651.504 160.156 649.401 159.169 646.479 159.169C643.579 159.169 641.488 160.156 640.205 162.128C638.922 164.076 638.28 167.035 638.28 171.003ZM665.833 171.003C665.833 177.491 664.123 182.564 660.701 186.224C657.279 189.883 652.514 191.713 646.407 191.713C642.581 191.713 639.207 190.881 636.284 189.218C633.361 187.531 631.116 185.119 629.547 181.982C627.979 178.845 627.195 175.186 627.195 171.003C627.195 164.492 628.894 159.431 632.292 155.819C635.69 152.207 640.466 150.401 646.621 150.401C650.447 150.401 653.821 151.233 656.744 152.896C659.667 154.559 661.913 156.948 663.481 160.061C665.049 163.174 665.833 166.821 665.833 171.003Z" fill="white"/>
<defs>
<linearGradient id="paint0_linear" x1="69.0001" y1="230" x2="872" y2="229.764" gradientUnits="userSpaceOnUse">
<stop stop-color="#B6000B"/>
<stop offset="1" stop-color="#FF1C29"/>
</linearGradient>
<linearGradient id="paint1_linear" x1="818" y1="248" x2="-3.99712e-07" y2="248" gradientUnits="userSpaceOnUse">
<stop stop-color="#FF1C29"/>
<stop offset="1" stop-color="#B6000B"/>
</linearGradient>
<linearGradient id="paint2_linear" x1="1476.01" y1="13027.1" x2="2984.12" y2="11519" gradientUnits="userSpaceOnUse">
<stop stop-color="#FF1C29"/>
<stop offset="1" stop-color="#FF9D00"/>
</linearGradient>
<linearGradient id="paint3_linear" x1="732.651" y1="122.744" x2="799.734" y2="55.6609" gradientUnits="userSpaceOnUse">
<stop stop-color="#FF9D00"/>
<stop offset="1" stop-color="#FF1C29"/>
</linearGradient>
</defs>
</svg>
