<svg width="872" height="478" viewBox="0 0 872 478" fill="none" xmlns="http://www.w3.org/2000/svg">
<path opacity="0.75" d="M175.588 426.504C299.016 474.427 439.004 481.636 547.732 470.614C694.504 455.747 742.83 415.763 764.134 394.291C774.718 383.65 835.793 322.295 821.508 265.717C814.657 238.571 795.809 233.716 793.073 205.27C789.014 163.133 827.832 146.763 827.765 111.6C827.765 68.9928 771.613 28.5604 730.631 14.8026C626.354 -20.1693 513.769 13.614 454.365 46.0855C394.961 78.557 321.923 104.85 231.662 79.0167C141.401 53.1831 39.3781 89.1754 13.8808 150.284C-13.6796 216.37 -18.131 351.235 175.588 426.504Z" fill="url(#paint0_linear)"/>
<path opacity="0.75" d="M130 459C261.515 511.347 532.64 433.389 647.098 431.786C955.925 427.446 931.179 179.504 667.572 90.6667C384.029 -4.88652 105.521 -7.7233 59.5385 204.126C59.8077 204.182 -21.9998 398.5 130 459Z" fill="url(#paint1_linear)"/>
<path opacity="0.75" d="M840.199 166.587C847.055 166.587 852.612 161.03 852.612 154.174C852.612 147.319 847.055 141.762 840.199 141.762C833.344 141.762 827.787 147.319 827.787 154.174C827.787 161.03 833.344 166.587 840.199 166.587Z" fill="url(#paint2_linear)"/>
<path opacity="0.75" d="M285.022 74.4757C305.588 74.4757 322.259 57.8042 322.259 37.2389C322.259 16.6735 305.588 0.00205994 285.022 0.00205994C264.457 0.00205994 247.785 16.6735 247.785 37.2389C247.785 57.8042 264.457 74.4757 285.022 74.4757Z" fill="url(#paint3_linear)"/>
<path d="M85.8906 268.971V283.752C85.8906 285.44 85.5104 286.919 84.7499 288.19C83.9999 289.461 82.9114 290.435 81.4843 291.112C80.0572 291.789 78.3697 292.127 76.4218 292.127C73.4843 292.127 71.2031 291.377 69.5781 289.877C67.9531 288.367 67.1406 286.304 67.1406 283.69V268.971H71.9687V282.955C71.9687 284.716 72.3229 286.008 73.0312 286.83C73.7395 287.653 74.9114 288.065 76.5468 288.065C78.1301 288.065 79.276 287.653 79.9843 286.83C80.7031 285.997 81.0624 284.695 81.0624 282.924V268.971H85.8906ZM106.75 291.815H101.984V281.612C101.984 280.351 101.771 279.409 101.344 278.784C100.927 278.148 100.266 277.83 99.3593 277.83C98.1406 277.83 97.2551 278.278 96.7031 279.174C96.151 280.07 95.8749 281.544 95.8749 283.596V291.815H91.1093V274.346H94.7499L95.3906 276.58H95.6562C96.1249 275.778 96.802 275.153 97.6874 274.705C98.5729 274.247 99.5885 274.018 100.734 274.018C103.349 274.018 105.12 274.872 106.047 276.58H106.469C106.937 275.768 107.625 275.138 108.531 274.69C109.448 274.242 110.479 274.018 111.625 274.018C113.604 274.018 115.099 274.528 116.109 275.549C117.13 276.56 117.641 278.185 117.641 280.424V291.815H112.859V281.612C112.859 280.351 112.646 279.409 112.219 278.784C111.802 278.148 111.141 277.83 110.234 277.83C109.068 277.83 108.193 278.247 107.609 279.08C107.036 279.914 106.75 281.237 106.75 283.049V291.815ZM141.953 291.815L141.031 289.44H140.906C140.104 290.45 139.276 291.153 138.422 291.549C137.578 291.935 136.474 292.127 135.109 292.127C133.432 292.127 132.109 291.648 131.141 290.69C130.182 289.731 129.703 288.367 129.703 286.596C129.703 284.742 130.349 283.377 131.641 282.502C132.943 281.617 134.901 281.127 137.516 281.034L140.547 280.94V280.174C140.547 278.403 139.641 277.518 137.828 277.518C136.432 277.518 134.792 277.94 132.906 278.784L131.328 275.565C133.338 274.513 135.568 273.987 138.016 273.987C140.359 273.987 142.156 274.497 143.406 275.518C144.656 276.539 145.281 278.091 145.281 280.174V291.815H141.953ZM140.547 283.721L138.703 283.784C137.318 283.825 136.286 284.075 135.609 284.534C134.932 284.992 134.594 285.69 134.594 286.627C134.594 287.971 135.365 288.643 136.906 288.643C138.01 288.643 138.891 288.325 139.547 287.69C140.213 287.054 140.547 286.211 140.547 285.159V283.721ZM165.844 291.815H161.078V281.612C161.078 280.351 160.865 279.409 160.437 278.784C160.021 278.148 159.359 277.83 158.453 277.83C157.234 277.83 156.349 278.278 155.797 279.174C155.245 280.07 154.969 281.544 154.969 283.596V291.815H150.203V274.346H153.844L154.484 276.58H154.75C155.219 275.778 155.896 275.153 156.781 274.705C157.667 274.247 158.682 274.018 159.828 274.018C162.443 274.018 164.213 274.872 165.141 276.58H165.562C166.031 275.768 166.719 275.138 167.625 274.69C168.542 274.242 169.573 274.018 170.719 274.018C172.698 274.018 174.193 274.528 175.203 275.549C176.224 276.56 176.734 278.185 176.734 280.424V291.815H171.953V281.612C171.953 280.351 171.74 279.409 171.312 278.784C170.896 278.148 170.234 277.83 169.328 277.83C168.161 277.83 167.286 278.247 166.703 279.08C166.13 279.914 165.844 281.237 165.844 283.049V291.815ZM191.359 274.018C193.422 274.018 195.036 274.825 196.203 276.44C197.37 278.044 197.953 280.247 197.953 283.049C197.953 285.935 197.349 288.169 196.141 289.752C194.943 291.336 193.307 292.127 191.234 292.127C189.182 292.127 187.573 291.383 186.406 289.893H186.078L185.281 291.815H181.641V267.502H186.406V273.159C186.406 273.877 186.344 275.028 186.219 276.612H186.406C187.521 274.883 189.172 274.018 191.359 274.018ZM189.828 277.83C188.651 277.83 187.792 278.195 187.25 278.924C186.708 279.643 186.427 280.836 186.406 282.502V283.018C186.406 284.893 186.682 286.237 187.234 287.049C187.797 287.862 188.682 288.268 189.891 288.268C190.87 288.268 191.646 287.82 192.219 286.924C192.802 286.018 193.094 284.705 193.094 282.987C193.094 281.268 192.802 279.981 192.219 279.127C191.635 278.263 190.838 277.83 189.828 277.83ZM201.687 269.83C201.687 268.278 202.552 267.502 204.281 267.502C206.01 267.502 206.875 268.278 206.875 269.83C206.875 270.57 206.656 271.148 206.219 271.565C205.792 271.971 205.146 272.174 204.281 272.174C202.552 272.174 201.687 271.393 201.687 269.83ZM206.656 291.815H201.891V274.346H206.656V291.815ZM218.906 277.409C217.896 277.409 217.104 277.731 216.531 278.377C215.958 279.013 215.63 279.919 215.547 281.096H222.234C222.213 279.919 221.906 279.013 221.312 278.377C220.719 277.731 219.917 277.409 218.906 277.409ZM219.578 292.127C216.766 292.127 214.568 291.351 212.984 289.799C211.401 288.247 210.609 286.049 210.609 283.205C210.609 280.278 211.338 278.018 212.797 276.424C214.266 274.82 216.292 274.018 218.875 274.018C221.344 274.018 223.266 274.721 224.641 276.127C226.016 277.534 226.703 279.476 226.703 281.955V284.268H215.437C215.49 285.622 215.891 286.679 216.641 287.44C217.391 288.2 218.443 288.58 219.797 288.58C220.849 288.58 221.844 288.471 222.781 288.252C223.719 288.034 224.698 287.685 225.719 287.205V290.893C224.885 291.31 223.995 291.617 223.047 291.815C222.099 292.023 220.943 292.127 219.578 292.127ZM246.703 291.815H241.937V281.612C241.937 280.351 241.713 279.409 241.266 278.784C240.818 278.148 240.104 277.83 239.125 277.83C237.792 277.83 236.828 278.278 236.234 279.174C235.641 280.06 235.344 281.534 235.344 283.596V291.815H230.578V274.346H234.219L234.859 276.58H235.125C235.656 275.737 236.385 275.101 237.312 274.674C238.25 274.237 239.312 274.018 240.5 274.018C242.531 274.018 244.073 274.57 245.125 275.674C246.177 276.768 246.703 278.351 246.703 280.424V291.815ZM258.969 288.33C259.802 288.33 260.802 288.148 261.969 287.784V291.33C260.781 291.862 259.323 292.127 257.594 292.127C255.687 292.127 254.297 291.648 253.422 290.69C252.557 289.721 252.125 288.273 252.125 286.346V277.924H249.844V275.909L252.469 274.315L253.844 270.627H256.891V274.346H261.781V277.924H256.891V286.346C256.891 287.023 257.078 287.523 257.453 287.846C257.838 288.169 258.344 288.33 258.969 288.33ZM272.75 277.409C271.74 277.409 270.948 277.731 270.375 278.377C269.802 279.013 269.474 279.919 269.391 281.096H276.078C276.057 279.919 275.75 279.013 275.156 278.377C274.562 277.731 273.76 277.409 272.75 277.409ZM273.422 292.127C270.609 292.127 268.411 291.351 266.828 289.799C265.245 288.247 264.453 286.049 264.453 283.205C264.453 280.278 265.182 278.018 266.641 276.424C268.109 274.82 270.135 274.018 272.719 274.018C275.187 274.018 277.109 274.721 278.484 276.127C279.859 277.534 280.547 279.476 280.547 281.955V284.268H269.281C269.333 285.622 269.734 286.679 270.484 287.44C271.234 288.2 272.286 288.58 273.641 288.58C274.693 288.58 275.687 288.471 276.625 288.252C277.562 288.034 278.542 287.685 279.562 287.205V290.893C278.729 291.31 277.838 291.617 276.891 291.815C275.943 292.023 274.786 292.127 273.422 292.127ZM300.094 288.33C300.927 288.33 301.927 288.148 303.094 287.784V291.33C301.906 291.862 300.448 292.127 298.719 292.127C296.812 292.127 295.422 291.648 294.547 290.69C293.682 289.721 293.25 288.273 293.25 286.346V277.924H290.969V275.909L293.594 274.315L294.969 270.627H298.016V274.346H302.906V277.924H298.016V286.346C298.016 287.023 298.203 287.523 298.578 287.846C298.963 288.169 299.469 288.33 300.094 288.33ZM310.437 283.049C310.437 284.778 310.719 286.086 311.281 286.971C311.854 287.856 312.781 288.299 314.062 288.299C315.333 288.299 316.245 287.862 316.797 286.987C317.359 286.101 317.641 284.789 317.641 283.049C317.641 281.32 317.359 280.023 316.797 279.159C316.234 278.294 315.312 277.862 314.031 277.862C312.76 277.862 311.844 278.294 311.281 279.159C310.719 280.013 310.437 281.31 310.437 283.049ZM322.516 283.049C322.516 285.893 321.766 288.117 320.266 289.721C318.766 291.325 316.677 292.127 314 292.127C312.323 292.127 310.844 291.763 309.562 291.034C308.281 290.294 307.297 289.237 306.609 287.862C305.922 286.487 305.578 284.883 305.578 283.049C305.578 280.195 306.323 277.976 307.812 276.393C309.302 274.81 311.396 274.018 314.094 274.018C315.771 274.018 317.25 274.383 318.531 275.112C319.812 275.841 320.797 276.888 321.484 278.252C322.172 279.617 322.516 281.216 322.516 283.049ZM333.812 288.33C334.646 288.33 335.646 288.148 336.812 287.784V291.33C335.625 291.862 334.167 292.127 332.437 292.127C330.531 292.127 329.141 291.648 328.266 290.69C327.401 289.721 326.969 288.273 326.969 286.346V277.924H324.687V275.909L327.312 274.315L328.687 270.627H331.734V274.346H336.625V277.924H331.734V286.346C331.734 287.023 331.922 287.523 332.297 287.846C332.682 288.169 333.187 288.33 333.812 288.33ZM351.453 291.815L350.531 289.44H350.406C349.604 290.45 348.776 291.153 347.922 291.549C347.078 291.935 345.974 292.127 344.609 292.127C342.932 292.127 341.609 291.648 340.641 290.69C339.682 289.731 339.203 288.367 339.203 286.596C339.203 284.742 339.849 283.377 341.141 282.502C342.443 281.617 344.401 281.127 347.016 281.034L350.047 280.94V280.174C350.047 278.403 349.141 277.518 347.328 277.518C345.932 277.518 344.292 277.94 342.406 278.784L340.828 275.565C342.838 274.513 345.068 273.987 347.516 273.987C349.859 273.987 351.656 274.497 352.906 275.518C354.156 276.539 354.781 278.091 354.781 280.174V291.815H351.453ZM350.047 283.721L348.203 283.784C346.818 283.825 345.786 284.075 345.109 284.534C344.432 284.992 344.094 285.69 344.094 286.627C344.094 287.971 344.865 288.643 346.406 288.643C347.51 288.643 348.391 288.325 349.047 287.69C349.713 287.054 350.047 286.211 350.047 285.159V283.721ZM364.469 291.815H359.703V267.502H364.469V291.815ZM385.125 291.815H380.359V281.612C380.359 280.351 380.146 279.409 379.719 278.784C379.302 278.148 378.641 277.83 377.734 277.83C376.516 277.83 375.63 278.278 375.078 279.174C374.526 280.07 374.25 281.544 374.25 283.596V291.815H369.484V274.346H373.125L373.766 276.58H374.031C374.5 275.778 375.177 275.153 376.062 274.705C376.948 274.247 377.963 274.018 379.109 274.018C381.724 274.018 383.495 274.872 384.422 276.58H384.844C385.312 275.768 386 275.138 386.906 274.69C387.823 274.242 388.854 274.018 390 274.018C391.979 274.018 393.474 274.528 394.484 275.549C395.505 276.56 396.016 278.185 396.016 280.424V291.815H391.234V281.612C391.234 280.351 391.021 279.409 390.594 278.784C390.177 278.148 389.516 277.83 388.609 277.83C387.443 277.83 386.568 278.247 385.984 279.08C385.411 279.914 385.125 281.237 385.125 283.049V291.815ZM408.156 277.409C407.146 277.409 406.354 277.731 405.781 278.377C405.208 279.013 404.88 279.919 404.797 281.096H411.484C411.463 279.919 411.156 279.013 410.562 278.377C409.969 277.731 409.167 277.409 408.156 277.409ZM408.828 292.127C406.016 292.127 403.818 291.351 402.234 289.799C400.651 288.247 399.859 286.049 399.859 283.205C399.859 280.278 400.588 278.018 402.047 276.424C403.516 274.82 405.542 274.018 408.125 274.018C410.594 274.018 412.516 274.721 413.891 276.127C415.266 277.534 415.953 279.476 415.953 281.955V284.268H404.687C404.74 285.622 405.141 286.679 405.891 287.44C406.641 288.2 407.693 288.58 409.047 288.58C410.099 288.58 411.094 288.471 412.031 288.252C412.969 288.034 413.948 287.685 414.969 287.205V290.893C414.135 291.31 413.245 291.617 412.297 291.815C411.349 292.023 410.193 292.127 408.828 292.127ZM435.953 291.815H431.187V281.612C431.187 280.351 430.963 279.409 430.516 278.784C430.068 278.148 429.354 277.83 428.375 277.83C427.042 277.83 426.078 278.278 425.484 279.174C424.891 280.06 424.594 281.534 424.594 283.596V291.815H419.828V274.346H423.469L424.109 276.58H424.375C424.906 275.737 425.635 275.101 426.562 274.674C427.5 274.237 428.562 274.018 429.75 274.018C431.781 274.018 433.323 274.57 434.375 275.674C435.427 276.768 435.953 278.351 435.953 280.424V291.815ZM448.219 288.33C449.052 288.33 450.052 288.148 451.219 287.784V291.33C450.031 291.862 448.573 292.127 446.844 292.127C444.937 292.127 443.547 291.648 442.672 290.69C441.807 289.721 441.375 288.273 441.375 286.346V277.924H439.094V275.909L441.719 274.315L443.094 270.627H446.141V274.346H451.031V277.924H446.141V286.346C446.141 287.023 446.328 287.523 446.703 287.846C447.088 288.169 447.594 288.33 448.219 288.33ZM462 277.409C460.99 277.409 460.198 277.731 459.625 278.377C459.052 279.013 458.724 279.919 458.641 281.096H465.328C465.307 279.919 465 279.013 464.406 278.377C463.812 277.731 463.01 277.409 462 277.409ZM462.672 292.127C459.859 292.127 457.661 291.351 456.078 289.799C454.495 288.247 453.703 286.049 453.703 283.205C453.703 280.278 454.432 278.018 455.891 276.424C457.359 274.82 459.385 274.018 461.969 274.018C464.437 274.018 466.359 274.721 467.734 276.127C469.109 277.534 469.797 279.476 469.797 281.955V284.268H458.531C458.583 285.622 458.984 286.679 459.734 287.44C460.484 288.2 461.536 288.58 462.891 288.58C463.943 288.58 464.937 288.471 465.875 288.252C466.812 288.034 467.792 287.685 468.812 287.205V290.893C467.979 291.31 467.088 291.617 466.141 291.815C465.193 292.023 464.036 292.127 462.672 292.127ZM489.078 292.127C483.641 292.127 480.922 289.143 480.922 283.174C480.922 280.205 481.661 277.94 483.141 276.377C484.62 274.804 486.74 274.018 489.5 274.018C491.521 274.018 493.333 274.414 494.937 275.205L493.531 278.893C492.781 278.591 492.083 278.346 491.437 278.159C490.792 277.961 490.146 277.862 489.5 277.862C487.021 277.862 485.781 279.622 485.781 283.143C485.781 286.56 487.021 288.268 489.5 288.268C490.417 288.268 491.266 288.148 492.047 287.909C492.828 287.659 493.609 287.273 494.391 286.752V290.83C493.62 291.32 492.838 291.659 492.047 291.846C491.266 292.034 490.276 292.127 489.078 292.127ZM503.219 291.815H498.453V267.502H503.219V291.815ZM508.031 269.83C508.031 268.278 508.896 267.502 510.625 267.502C512.354 267.502 513.219 268.278 513.219 269.83C513.219 270.57 513 271.148 512.562 271.565C512.135 271.971 511.49 272.174 510.625 272.174C508.896 272.174 508.031 271.393 508.031 269.83ZM513 291.815H508.234V274.346H513V291.815ZM533.656 291.815H528.891V281.612C528.891 280.351 528.677 279.409 528.25 278.784C527.833 278.148 527.172 277.83 526.266 277.83C525.047 277.83 524.161 278.278 523.609 279.174C523.057 280.07 522.781 281.544 522.781 283.596V291.815H518.016V274.346H521.656L522.297 276.58H522.562C523.031 275.778 523.708 275.153 524.594 274.705C525.479 274.247 526.495 274.018 527.641 274.018C530.255 274.018 532.026 274.872 532.953 276.58H533.375C533.844 275.768 534.531 275.138 535.437 274.69C536.354 274.242 537.385 274.018 538.531 274.018C540.51 274.018 542.005 274.528 543.016 275.549C544.036 276.56 544.547 278.185 544.547 280.424V291.815H539.766V281.612C539.766 280.351 539.552 279.409 539.125 278.784C538.708 278.148 538.047 277.83 537.141 277.83C535.974 277.83 535.099 278.247 534.516 279.08C533.943 279.914 533.656 281.237 533.656 283.049V291.815ZM560.547 291.815L559.625 289.44H559.5C558.698 290.45 557.87 291.153 557.016 291.549C556.172 291.935 555.068 292.127 553.703 292.127C552.026 292.127 550.703 291.648 549.734 290.69C548.776 289.731 548.297 288.367 548.297 286.596C548.297 284.742 548.943 283.377 550.234 282.502C551.536 281.617 553.495 281.127 556.109 281.034L559.141 280.94V280.174C559.141 278.403 558.234 277.518 556.422 277.518C555.026 277.518 553.385 277.94 551.5 278.784L549.922 275.565C551.932 274.513 554.161 273.987 556.609 273.987C558.953 273.987 560.75 274.497 562 275.518C563.25 276.539 563.875 278.091 563.875 280.174V291.815H560.547ZM559.141 283.721L557.297 283.784C555.911 283.825 554.88 284.075 554.203 284.534C553.526 284.992 553.187 285.69 553.187 286.627C553.187 287.971 553.958 288.643 555.5 288.643C556.604 288.643 557.484 288.325 558.141 287.69C558.807 287.054 559.141 286.211 559.141 285.159V283.721ZM576.156 288.33C576.99 288.33 577.99 288.148 579.156 287.784V291.33C577.969 291.862 576.51 292.127 574.781 292.127C572.875 292.127 571.484 291.648 570.609 290.69C569.745 289.721 569.312 288.273 569.312 286.346V277.924H567.031V275.909L569.656 274.315L571.031 270.627H574.078V274.346H578.969V277.924H574.078V286.346C574.078 287.023 574.266 287.523 574.641 287.846C575.026 288.169 575.531 288.33 576.156 288.33ZM582.5 269.83C582.5 268.278 583.365 267.502 585.094 267.502C586.823 267.502 587.687 268.278 587.687 269.83C587.687 270.57 587.469 271.148 587.031 271.565C586.604 271.971 585.958 272.174 585.094 272.174C583.365 272.174 582.5 271.393 582.5 269.83ZM587.469 291.815H582.703V274.346H587.469V291.815ZM604.641 291.815H590.844V289.002L598.937 277.987H591.328V274.346H604.359V277.44L596.484 288.174H604.641V291.815ZM619.203 291.815L618.281 289.44H618.156C617.354 290.45 616.526 291.153 615.672 291.549C614.828 291.935 613.724 292.127 612.359 292.127C610.682 292.127 609.359 291.648 608.391 290.69C607.432 289.731 606.953 288.367 606.953 286.596C606.953 284.742 607.599 283.377 608.891 282.502C610.193 281.617 612.151 281.127 614.766 281.034L617.797 280.94V280.174C617.797 278.403 616.891 277.518 615.078 277.518C613.682 277.518 612.042 277.94 610.156 278.784L608.578 275.565C610.588 274.513 612.818 273.987 615.266 273.987C617.609 273.987 619.406 274.497 620.656 275.518C621.906 276.539 622.531 278.091 622.531 280.174V291.815H619.203ZM617.797 283.721L615.953 283.784C614.568 283.825 613.536 284.075 612.859 284.534C612.182 284.992 611.844 285.69 611.844 286.627C611.844 287.971 612.615 288.643 614.156 288.643C615.26 288.643 616.141 288.325 616.797 287.69C617.463 287.054 617.797 286.211 617.797 285.159V283.721ZM632.984 292.127C630.932 292.127 629.318 291.33 628.141 289.737C626.974 288.143 626.391 285.935 626.391 283.112C626.391 280.247 626.984 278.018 628.172 276.424C629.37 274.82 631.016 274.018 633.109 274.018C635.307 274.018 636.984 274.872 638.141 276.58H638.297C638.057 275.278 637.937 274.117 637.937 273.096V267.502H642.719V291.815H639.062L638.141 289.549H637.937C636.854 291.268 635.203 292.127 632.984 292.127ZM634.656 288.33C635.875 288.33 636.766 287.976 637.328 287.268C637.901 286.56 638.213 285.356 638.266 283.659V283.143C638.266 281.268 637.974 279.924 637.391 279.112C636.818 278.299 635.88 277.893 634.578 277.893C633.516 277.893 632.687 278.346 632.094 279.252C631.51 280.148 631.219 281.455 631.219 283.174C631.219 284.893 631.516 286.185 632.109 287.049C632.703 287.903 633.552 288.33 634.656 288.33ZM651.5 283.049C651.5 284.778 651.781 286.086 652.344 286.971C652.917 287.856 653.844 288.299 655.125 288.299C656.396 288.299 657.307 287.862 657.859 286.987C658.422 286.101 658.703 284.789 658.703 283.049C658.703 281.32 658.422 280.023 657.859 279.159C657.297 278.294 656.375 277.862 655.094 277.862C653.823 277.862 652.906 278.294 652.344 279.159C651.781 280.013 651.5 281.31 651.5 283.049ZM663.578 283.049C663.578 285.893 662.828 288.117 661.328 289.721C659.828 291.325 657.74 292.127 655.062 292.127C653.385 292.127 651.906 291.763 650.625 291.034C649.344 290.294 648.359 289.237 647.672 287.862C646.984 286.487 646.641 284.883 646.641 283.049C646.641 280.195 647.385 277.976 648.875 276.393C650.365 274.81 652.458 274.018 655.156 274.018C656.833 274.018 658.312 274.383 659.594 275.112C660.875 275.841 661.859 276.888 662.547 278.252C663.234 279.617 663.578 281.216 663.578 283.049ZM685.422 292.127C683.37 292.127 681.76 291.383 680.594 289.893H680.344C680.51 291.351 680.594 292.195 680.594 292.424V299.502H675.828V274.346H679.703L680.375 276.612H680.594C681.708 274.883 683.359 274.018 685.547 274.018C687.609 274.018 689.224 274.815 690.391 276.409C691.557 278.002 692.141 280.216 692.141 283.049C692.141 284.914 691.865 286.534 691.312 287.909C690.771 289.284 689.995 290.33 688.984 291.049C687.974 291.768 686.786 292.127 685.422 292.127ZM684.016 277.83C682.838 277.83 681.979 278.195 681.437 278.924C680.896 279.643 680.615 280.836 680.594 282.502V283.018C680.594 284.893 680.87 286.237 681.422 287.049C681.984 287.862 682.87 288.268 684.078 288.268C686.213 288.268 687.281 286.508 687.281 282.987C687.281 281.268 687.016 279.981 686.484 279.127C685.963 278.263 685.141 277.83 684.016 277.83ZM707.172 291.815L706.25 289.44H706.125C705.323 290.45 704.495 291.153 703.641 291.549C702.797 291.935 701.693 292.127 700.328 292.127C698.651 292.127 697.328 291.648 696.359 290.69C695.401 289.731 694.922 288.367 694.922 286.596C694.922 284.742 695.568 283.377 696.859 282.502C698.161 281.617 700.12 281.127 702.734 281.034L705.766 280.94V280.174C705.766 278.403 704.859 277.518 703.047 277.518C701.651 277.518 700.01 277.94 698.125 278.784L696.547 275.565C698.557 274.513 700.786 273.987 703.234 273.987C705.578 273.987 707.375 274.497 708.625 275.518C709.875 276.539 710.5 278.091 710.5 280.174V291.815H707.172ZM705.766 283.721L703.922 283.784C702.536 283.825 701.505 284.075 700.828 284.534C700.151 284.992 699.812 285.69 699.812 286.627C699.812 287.971 700.583 288.643 702.125 288.643C703.229 288.643 704.109 288.325 704.766 287.69C705.432 287.054 705.766 286.211 705.766 285.159V283.721ZM725.172 274.018C725.818 274.018 726.354 274.065 726.781 274.159L726.422 278.627C726.036 278.523 725.568 278.471 725.016 278.471C723.495 278.471 722.307 278.862 721.453 279.643C720.609 280.424 720.187 281.518 720.187 282.924V291.815H715.422V274.346H719.031L719.734 277.284H719.969C720.51 276.304 721.24 275.518 722.156 274.924C723.083 274.32 724.088 274.018 725.172 274.018ZM741.047 291.815L740.125 289.44H740C739.198 290.45 738.37 291.153 737.516 291.549C736.672 291.935 735.568 292.127 734.203 292.127C732.526 292.127 731.203 291.648 730.234 290.69C729.276 289.731 728.797 288.367 728.797 286.596C728.797 284.742 729.443 283.377 730.734 282.502C732.036 281.617 733.995 281.127 736.609 281.034L739.641 280.94V280.174C739.641 278.403 738.734 277.518 736.922 277.518C735.526 277.518 733.885 277.94 732 278.784L730.422 275.565C732.432 274.513 734.661 273.987 737.109 273.987C739.453 273.987 741.25 274.497 742.5 275.518C743.75 276.539 744.375 278.091 744.375 280.174V291.815H741.047ZM739.641 283.721L737.797 283.784C736.411 283.825 735.38 284.075 734.703 284.534C734.026 284.992 733.687 285.69 733.687 286.627C733.687 287.971 734.458 288.643 736 288.643C737.104 288.643 737.984 288.325 738.641 287.69C739.307 287.054 739.641 286.211 739.641 285.159V283.721ZM769.984 291.815L769.344 289.58H769.094C768.583 290.393 767.859 291.023 766.922 291.471C765.984 291.909 764.917 292.127 763.719 292.127C761.667 292.127 760.12 291.58 759.078 290.487C758.036 289.383 757.516 287.799 757.516 285.737V274.346H762.281V284.549C762.281 285.81 762.505 286.758 762.953 287.393C763.401 288.018 764.115 288.33 765.094 288.33C766.427 288.33 767.391 287.888 767.984 287.002C768.578 286.106 768.875 284.627 768.875 282.565V274.346H773.641V291.815H769.984ZM794.281 291.815H789.516V281.612C789.516 280.351 789.302 279.409 788.875 278.784C788.458 278.148 787.797 277.83 786.891 277.83C785.672 277.83 784.786 278.278 784.234 279.174C783.682 280.07 783.406 281.544 783.406 283.596V291.815H778.641V274.346H782.281L782.922 276.58H783.187C783.656 275.778 784.333 275.153 785.219 274.705C786.104 274.247 787.12 274.018 788.266 274.018C790.88 274.018 792.651 274.872 793.578 276.58H794C794.469 275.768 795.156 275.138 796.062 274.69C796.979 274.242 798.01 274.018 799.156 274.018C801.135 274.018 802.63 274.528 803.641 275.549C804.661 276.56 805.172 278.185 805.172 280.424V291.815H800.391V281.612C800.391 280.351 800.177 279.409 799.75 278.784C799.333 278.148 798.672 277.83 797.766 277.83C796.599 277.83 795.724 278.247 795.141 279.08C794.568 279.914 794.281 281.237 794.281 283.049V291.815ZM158.344 335.815H153.578V325.612C153.578 324.351 153.365 323.409 152.937 322.784C152.521 322.148 151.859 321.83 150.953 321.83C149.734 321.83 148.849 322.278 148.297 323.174C147.745 324.07 147.469 325.544 147.469 327.596V335.815H142.703V318.346H146.344L146.984 320.58H147.25C147.719 319.778 148.396 319.153 149.281 318.705C150.167 318.247 151.182 318.018 152.328 318.018C154.943 318.018 156.713 318.872 157.641 320.58H158.062C158.531 319.768 159.219 319.138 160.125 318.69C161.042 318.242 162.073 318.018 163.219 318.018C165.198 318.018 166.693 318.528 167.703 319.549C168.724 320.56 169.234 322.185 169.234 324.424V335.815H164.453V325.612C164.453 324.351 164.24 323.409 163.812 322.784C163.396 322.148 162.734 321.83 161.828 321.83C160.661 321.83 159.786 322.247 159.203 323.08C158.63 323.914 158.344 325.237 158.344 327.049V335.815ZM181.375 321.409C180.365 321.409 179.573 321.731 179 322.377C178.427 323.013 178.099 323.919 178.016 325.096H184.703C184.682 323.919 184.375 323.013 183.781 322.377C183.187 321.731 182.385 321.409 181.375 321.409ZM182.047 336.127C179.234 336.127 177.036 335.351 175.453 333.799C173.87 332.247 173.078 330.049 173.078 327.205C173.078 324.278 173.807 322.018 175.266 320.424C176.734 318.82 178.76 318.018 181.344 318.018C183.812 318.018 185.734 318.721 187.109 320.127C188.484 321.534 189.172 323.476 189.172 325.955V328.268H177.906C177.958 329.622 178.359 330.679 179.109 331.44C179.859 332.2 180.911 332.58 182.266 332.58C183.318 332.58 184.312 332.471 185.25 332.252C186.187 332.034 187.167 331.685 188.187 331.205V334.893C187.354 335.31 186.463 335.617 185.516 335.815C184.568 336.023 183.411 336.127 182.047 336.127ZM197.812 335.815H193.047V311.502H197.812V335.815ZM218.953 335.815H214.187V325.612C214.187 323.091 213.25 321.83 211.375 321.83C210.042 321.83 209.078 322.284 208.484 323.19C207.891 324.096 207.594 325.565 207.594 327.596V335.815H202.828V311.502H207.594V316.455C207.594 316.841 207.557 317.747 207.484 319.174L207.375 320.58H207.625C208.687 318.872 210.375 318.018 212.687 318.018C214.74 318.018 216.297 318.57 217.359 319.674C218.422 320.778 218.953 322.362 218.953 324.424V335.815ZM227.656 327.049C227.656 328.778 227.937 330.086 228.5 330.971C229.073 331.856 230 332.299 231.281 332.299C232.552 332.299 233.463 331.862 234.016 330.987C234.578 330.101 234.859 328.789 234.859 327.049C234.859 325.32 234.578 324.023 234.016 323.159C233.453 322.294 232.531 321.862 231.25 321.862C229.979 321.862 229.062 322.294 228.5 323.159C227.937 324.013 227.656 325.31 227.656 327.049ZM239.734 327.049C239.734 329.893 238.984 332.117 237.484 333.721C235.984 335.325 233.896 336.127 231.219 336.127C229.542 336.127 228.062 335.763 226.781 335.034C225.5 334.294 224.516 333.237 223.828 331.862C223.141 330.487 222.797 328.883 222.797 327.049C222.797 324.195 223.542 321.976 225.031 320.393C226.521 318.81 228.615 318.018 231.312 318.018C232.99 318.018 234.469 318.383 235.75 319.112C237.031 319.841 238.016 320.888 238.703 322.252C239.391 323.617 239.734 325.216 239.734 327.049ZM253.422 318.018C254.068 318.018 254.604 318.065 255.031 318.159L254.672 322.627C254.286 322.523 253.818 322.471 253.266 322.471C251.745 322.471 250.557 322.862 249.703 323.643C248.859 324.424 248.437 325.518 248.437 326.924V335.815H243.672V318.346H247.281L247.984 321.284H248.219C248.76 320.304 249.49 319.518 250.406 318.924C251.333 318.32 252.338 318.018 253.422 318.018ZM276.234 318.018C278.297 318.018 279.911 318.825 281.078 320.44C282.245 322.044 282.828 324.247 282.828 327.049C282.828 329.935 282.224 332.169 281.016 333.752C279.818 335.336 278.182 336.127 276.109 336.127C274.057 336.127 272.448 335.383 271.281 333.893H270.953L270.156 335.815H266.516V311.502H271.281V317.159C271.281 317.877 271.219 319.028 271.094 320.612H271.281C272.396 318.883 274.047 318.018 276.234 318.018ZM274.703 321.83C273.526 321.83 272.667 322.195 272.125 322.924C271.583 323.643 271.302 324.836 271.281 326.502V327.018C271.281 328.893 271.557 330.237 272.109 331.049C272.672 331.862 273.557 332.268 274.766 332.268C275.745 332.268 276.521 331.82 277.094 330.924C277.677 330.018 277.969 328.705 277.969 326.987C277.969 325.268 277.677 323.981 277.094 323.127C276.51 322.263 275.713 321.83 274.703 321.83ZM294 321.409C292.99 321.409 292.198 321.731 291.625 322.377C291.052 323.013 290.724 323.919 290.641 325.096H297.328C297.307 323.919 297 323.013 296.406 322.377C295.812 321.731 295.01 321.409 294 321.409ZM294.672 336.127C291.859 336.127 289.661 335.351 288.078 333.799C286.495 332.247 285.703 330.049 285.703 327.205C285.703 324.278 286.432 322.018 287.891 320.424C289.359 318.82 291.385 318.018 293.969 318.018C296.437 318.018 298.359 318.721 299.734 320.127C301.109 321.534 301.797 323.476 301.797 325.955V328.268H290.531C290.583 329.622 290.984 330.679 291.734 331.44C292.484 332.2 293.536 332.58 294.891 332.58C295.943 332.58 296.937 332.471 297.875 332.252C298.812 332.034 299.792 331.685 300.812 331.205V334.893C299.979 335.31 299.088 335.617 298.141 335.815C297.193 336.023 296.036 336.127 294.672 336.127ZM321.312 335.815H316.547V325.612C316.547 324.351 316.333 323.409 315.906 322.784C315.49 322.148 314.828 321.83 313.922 321.83C312.703 321.83 311.818 322.278 311.266 323.174C310.713 324.07 310.437 325.544 310.437 327.596V335.815H305.672V318.346H309.312L309.953 320.58H310.219C310.687 319.778 311.365 319.153 312.25 318.705C313.135 318.247 314.151 318.018 315.297 318.018C317.911 318.018 319.682 318.872 320.609 320.58H321.031C321.5 319.768 322.187 319.138 323.094 318.69C324.01 318.242 325.042 318.018 326.187 318.018C328.167 318.018 329.661 318.528 330.672 319.549C331.693 320.56 332.203 322.185 332.203 324.424V335.815H327.422V325.612C327.422 324.351 327.208 323.409 326.781 322.784C326.365 322.148 325.703 321.83 324.797 321.83C323.63 321.83 322.755 322.247 322.172 323.08C321.599 323.914 321.312 325.237 321.312 327.049V335.815ZM352.656 321.409C351.646 321.409 350.854 321.731 350.281 322.377C349.708 323.013 349.38 323.919 349.297 325.096H355.984C355.963 323.919 355.656 323.013 355.062 322.377C354.469 321.731 353.667 321.409 352.656 321.409ZM353.328 336.127C350.516 336.127 348.318 335.351 346.734 333.799C345.151 332.247 344.359 330.049 344.359 327.205C344.359 324.278 345.088 322.018 346.547 320.424C348.016 318.82 350.042 318.018 352.625 318.018C355.094 318.018 357.016 318.721 358.391 320.127C359.766 321.534 360.453 323.476 360.453 325.955V328.268H349.187C349.24 329.622 349.641 330.679 350.391 331.44C351.141 332.2 352.193 332.58 353.547 332.58C354.599 332.58 355.594 332.471 356.531 332.252C357.469 332.034 358.448 331.685 359.469 331.205V334.893C358.635 335.31 357.745 335.617 356.797 335.815C355.849 336.023 354.693 336.127 353.328 336.127ZM376.516 330.627C376.516 332.419 375.891 333.784 374.641 334.721C373.401 335.659 371.542 336.127 369.062 336.127C367.792 336.127 366.708 336.039 365.812 335.862C364.917 335.695 364.078 335.445 363.297 335.112V331.174C364.182 331.591 365.177 331.94 366.281 332.221C367.396 332.502 368.375 332.643 369.219 332.643C370.948 332.643 371.812 332.143 371.812 331.143C371.812 330.768 371.698 330.466 371.469 330.237C371.24 329.997 370.844 329.731 370.281 329.44C369.719 329.138 368.969 328.789 368.031 328.393C366.687 327.83 365.698 327.31 365.062 326.83C364.437 326.351 363.979 325.804 363.687 325.19C363.406 324.565 363.266 323.799 363.266 322.893C363.266 321.341 363.865 320.143 365.062 319.299C366.271 318.445 367.979 318.018 370.187 318.018C372.292 318.018 374.338 318.476 376.328 319.393L374.891 322.83C374.016 322.455 373.198 322.148 372.437 321.909C371.677 321.669 370.901 321.549 370.109 321.549C368.703 321.549 368 321.929 368 322.69C368 323.117 368.224 323.487 368.672 323.799C369.13 324.112 370.125 324.575 371.656 325.19C373.021 325.742 374.021 326.258 374.656 326.737C375.292 327.216 375.76 327.768 376.062 328.393C376.365 329.018 376.516 329.763 376.516 330.627ZM387.594 332.33C388.427 332.33 389.427 332.148 390.594 331.784V335.33C389.406 335.862 387.948 336.127 386.219 336.127C384.312 336.127 382.922 335.648 382.047 334.69C381.182 333.721 380.75 332.273 380.75 330.346V321.924H378.469V319.909L381.094 318.315L382.469 314.627H385.516V318.346H390.406V321.924H385.516V330.346C385.516 331.023 385.703 331.523 386.078 331.846C386.463 332.169 386.969 332.33 387.594 332.33ZM405.234 335.815L404.312 333.44H404.187C403.385 334.45 402.557 335.153 401.703 335.549C400.859 335.935 399.755 336.127 398.391 336.127C396.713 336.127 395.391 335.648 394.422 334.69C393.463 333.731 392.984 332.367 392.984 330.596C392.984 328.742 393.63 327.377 394.922 326.502C396.224 325.617 398.182 325.127 400.797 325.034L403.828 324.94V324.174C403.828 322.403 402.922 321.518 401.109 321.518C399.713 321.518 398.073 321.94 396.187 322.784L394.609 319.565C396.62 318.513 398.849 317.987 401.297 317.987C403.641 317.987 405.437 318.497 406.687 319.518C407.937 320.539 408.562 322.091 408.562 324.174V335.815H405.234ZM403.828 327.721L401.984 327.784C400.599 327.825 399.568 328.075 398.891 328.534C398.213 328.992 397.875 329.69 397.875 330.627C397.875 331.971 398.646 332.643 400.187 332.643C401.292 332.643 402.172 332.325 402.828 331.69C403.495 331.054 403.828 330.211 403.828 329.159V327.721ZM423.234 318.018C423.88 318.018 424.417 318.065 424.844 318.159L424.484 322.627C424.099 322.523 423.63 322.471 423.078 322.471C421.557 322.471 420.37 322.862 419.516 323.643C418.672 324.424 418.25 325.518 418.25 326.924V335.815H413.484V318.346H417.094L417.797 321.284H418.031C418.573 320.304 419.302 319.518 420.219 318.924C421.146 318.32 422.151 318.018 423.234 318.018ZM441.859 336.127C439.807 336.127 438.193 335.33 437.016 333.737C435.849 332.143 435.266 329.935 435.266 327.112C435.266 324.247 435.859 322.018 437.047 320.424C438.245 318.82 439.891 318.018 441.984 318.018C444.182 318.018 445.859 318.872 447.016 320.58H447.172C446.932 319.278 446.812 318.117 446.812 317.096V311.502H451.594V335.815H447.937L447.016 333.549H446.812C445.729 335.268 444.078 336.127 441.859 336.127ZM443.531 332.33C444.75 332.33 445.641 331.976 446.203 331.268C446.776 330.56 447.088 329.356 447.141 327.659V327.143C447.141 325.268 446.849 323.924 446.266 323.112C445.693 322.299 444.755 321.893 443.453 321.893C442.391 321.893 441.562 322.346 440.969 323.252C440.385 324.148 440.094 325.455 440.094 327.174C440.094 328.893 440.391 330.185 440.984 331.049C441.578 331.903 442.427 332.33 443.531 332.33ZM463.812 321.409C462.802 321.409 462.01 321.731 461.437 322.377C460.865 323.013 460.536 323.919 460.453 325.096H467.141C467.12 323.919 466.812 323.013 466.219 322.377C465.625 321.731 464.823 321.409 463.812 321.409ZM464.484 336.127C461.672 336.127 459.474 335.351 457.891 333.799C456.307 332.247 455.516 330.049 455.516 327.205C455.516 324.278 456.245 322.018 457.703 320.424C459.172 318.82 461.198 318.018 463.781 318.018C466.25 318.018 468.172 318.721 469.547 320.127C470.922 321.534 471.609 323.476 471.609 325.955V328.268H460.344C460.396 329.622 460.797 330.679 461.547 331.44C462.297 332.2 463.349 332.58 464.703 332.58C465.755 332.58 466.75 332.471 467.687 332.252C468.625 332.034 469.604 331.685 470.625 331.205V334.893C469.792 335.31 468.901 335.617 467.953 335.815C467.005 336.023 465.849 336.127 464.484 336.127ZM499.922 335.815H495.156V325.612C495.156 324.351 494.932 323.409 494.484 322.784C494.036 322.148 493.323 321.83 492.344 321.83C491.01 321.83 490.047 322.278 489.453 323.174C488.859 324.06 488.562 325.534 488.562 327.596V335.815H483.797V318.346H487.437L488.078 320.58H488.344C488.875 319.737 489.604 319.101 490.531 318.674C491.469 318.237 492.531 318.018 493.719 318.018C495.75 318.018 497.292 318.57 498.344 319.674C499.396 320.768 499.922 322.351 499.922 324.424V335.815ZM508.625 327.049C508.625 328.778 508.906 330.086 509.469 330.971C510.042 331.856 510.969 332.299 512.25 332.299C513.521 332.299 514.432 331.862 514.984 330.987C515.547 330.101 515.828 328.789 515.828 327.049C515.828 325.32 515.547 324.023 514.984 323.159C514.422 322.294 513.5 321.862 512.219 321.862C510.948 321.862 510.031 322.294 509.469 323.159C508.906 324.013 508.625 325.31 508.625 327.049ZM520.703 327.049C520.703 329.893 519.953 332.117 518.453 333.721C516.953 335.325 514.865 336.127 512.187 336.127C510.51 336.127 509.031 335.763 507.75 335.034C506.469 334.294 505.484 333.237 504.797 331.862C504.109 330.487 503.766 328.883 503.766 327.049C503.766 324.195 504.51 321.976 506 320.393C507.49 318.81 509.583 318.018 512.281 318.018C513.958 318.018 515.437 318.383 516.719 319.112C518 319.841 518.984 320.888 519.672 322.252C520.359 323.617 520.703 325.216 520.703 327.049ZM536.828 330.627C536.828 332.419 536.203 333.784 534.953 334.721C533.713 335.659 531.854 336.127 529.375 336.127C528.104 336.127 527.021 336.039 526.125 335.862C525.229 335.695 524.391 335.445 523.609 335.112V331.174C524.495 331.591 525.49 331.94 526.594 332.221C527.708 332.502 528.687 332.643 529.531 332.643C531.26 332.643 532.125 332.143 532.125 331.143C532.125 330.768 532.01 330.466 531.781 330.237C531.552 329.997 531.156 329.731 530.594 329.44C530.031 329.138 529.281 328.789 528.344 328.393C527 327.83 526.01 327.31 525.375 326.83C524.75 326.351 524.292 325.804 524 325.19C523.719 324.565 523.578 323.799 523.578 322.893C523.578 321.341 524.177 320.143 525.375 319.299C526.583 318.445 528.292 318.018 530.5 318.018C532.604 318.018 534.651 318.476 536.641 319.393L535.203 322.83C534.328 322.455 533.51 322.148 532.75 321.909C531.99 321.669 531.213 321.549 530.422 321.549C529.016 321.549 528.312 321.929 528.312 322.69C528.312 323.117 528.536 323.487 528.984 323.799C529.443 324.112 530.437 324.575 531.969 325.19C533.333 325.742 534.333 326.258 534.969 326.737C535.604 327.216 536.073 327.768 536.375 328.393C536.677 329.018 536.828 329.763 536.828 330.627ZM552.734 330.627C552.734 332.419 552.109 333.784 550.859 334.721C549.62 335.659 547.76 336.127 545.281 336.127C544.01 336.127 542.927 336.039 542.031 335.862C541.135 335.695 540.297 335.445 539.516 335.112V331.174C540.401 331.591 541.396 331.94 542.5 332.221C543.615 332.502 544.594 332.643 545.437 332.643C547.167 332.643 548.031 332.143 548.031 331.143C548.031 330.768 547.917 330.466 547.687 330.237C547.458 329.997 547.062 329.731 546.5 329.44C545.937 329.138 545.187 328.789 544.25 328.393C542.906 327.83 541.917 327.31 541.281 326.83C540.656 326.351 540.198 325.804 539.906 325.19C539.625 324.565 539.484 323.799 539.484 322.893C539.484 321.341 540.083 320.143 541.281 319.299C542.49 318.445 544.198 318.018 546.406 318.018C548.51 318.018 550.557 318.476 552.547 319.393L551.109 322.83C550.234 322.455 549.417 322.148 548.656 321.909C547.896 321.669 547.12 321.549 546.328 321.549C544.922 321.549 544.219 321.929 544.219 322.69C544.219 323.117 544.443 323.487 544.891 323.799C545.349 324.112 546.344 324.575 547.875 325.19C549.24 325.742 550.24 326.258 550.875 326.737C551.51 327.216 551.979 327.768 552.281 328.393C552.583 329.018 552.734 329.763 552.734 330.627ZM560.25 327.049C560.25 328.778 560.531 330.086 561.094 330.971C561.667 331.856 562.594 332.299 563.875 332.299C565.146 332.299 566.057 331.862 566.609 330.987C567.172 330.101 567.453 328.789 567.453 327.049C567.453 325.32 567.172 324.023 566.609 323.159C566.047 322.294 565.125 321.862 563.844 321.862C562.573 321.862 561.656 322.294 561.094 323.159C560.531 324.013 560.25 325.31 560.25 327.049ZM572.328 327.049C572.328 329.893 571.578 332.117 570.078 333.721C568.578 335.325 566.49 336.127 563.812 336.127C562.135 336.127 560.656 335.763 559.375 335.034C558.094 334.294 557.109 333.237 556.422 331.862C555.734 330.487 555.391 328.883 555.391 327.049C555.391 324.195 556.135 321.976 557.625 320.393C559.115 318.81 561.208 318.018 563.906 318.018C565.583 318.018 567.062 318.383 568.344 319.112C569.625 319.841 570.609 320.888 571.297 322.252C571.984 323.617 572.328 325.216 572.328 327.049ZM588.453 330.627C588.453 332.419 587.828 333.784 586.578 334.721C585.338 335.659 583.479 336.127 581 336.127C579.729 336.127 578.646 336.039 577.75 335.862C576.854 335.695 576.016 335.445 575.234 335.112V331.174C576.12 331.591 577.115 331.94 578.219 332.221C579.333 332.502 580.312 332.643 581.156 332.643C582.885 332.643 583.75 332.143 583.75 331.143C583.75 330.768 583.635 330.466 583.406 330.237C583.177 329.997 582.781 329.731 582.219 329.44C581.656 329.138 580.906 328.789 579.969 328.393C578.625 327.83 577.635 327.31 577 326.83C576.375 326.351 575.917 325.804 575.625 325.19C575.344 324.565 575.203 323.799 575.203 322.893C575.203 321.341 575.802 320.143 577 319.299C578.208 318.445 579.917 318.018 582.125 318.018C584.229 318.018 586.276 318.476 588.266 319.393L586.828 322.83C585.953 322.455 585.135 322.148 584.375 321.909C583.615 321.669 582.838 321.549 582.047 321.549C580.641 321.549 579.937 321.929 579.937 322.69C579.937 323.117 580.161 323.487 580.609 323.799C581.068 324.112 582.062 324.575 583.594 325.19C584.958 325.742 585.958 326.258 586.594 326.737C587.229 327.216 587.698 327.768 588 328.393C588.302 329.018 588.453 329.763 588.453 330.627ZM607.578 336.127C602.141 336.127 599.422 333.143 599.422 327.174C599.422 324.205 600.161 321.94 601.641 320.377C603.12 318.804 605.24 318.018 608 318.018C610.021 318.018 611.833 318.414 613.437 319.205L612.031 322.893C611.281 322.591 610.583 322.346 609.937 322.159C609.292 321.961 608.646 321.862 608 321.862C605.521 321.862 604.281 323.622 604.281 327.143C604.281 330.56 605.521 332.268 608 332.268C608.917 332.268 609.766 332.148 610.547 331.909C611.328 331.659 612.109 331.273 612.891 330.752V334.83C612.12 335.32 611.338 335.659 610.547 335.846C609.766 336.034 608.776 336.127 607.578 336.127ZM621.719 335.815H616.953V311.502H621.719V335.815ZM626.531 313.83C626.531 312.278 627.396 311.502 629.125 311.502C630.854 311.502 631.719 312.278 631.719 313.83C631.719 314.57 631.5 315.148 631.062 315.565C630.635 315.971 629.99 316.174 629.125 316.174C627.396 316.174 626.531 315.393 626.531 313.83ZM631.5 335.815H626.734V318.346H631.5V335.815ZM643.75 321.409C642.74 321.409 641.948 321.731 641.375 322.377C640.802 323.013 640.474 323.919 640.391 325.096H647.078C647.057 323.919 646.75 323.013 646.156 322.377C645.562 321.731 644.76 321.409 643.75 321.409ZM644.422 336.127C641.609 336.127 639.411 335.351 637.828 333.799C636.245 332.247 635.453 330.049 635.453 327.205C635.453 324.278 636.182 322.018 637.641 320.424C639.109 318.82 641.135 318.018 643.719 318.018C646.187 318.018 648.109 318.721 649.484 320.127C650.859 321.534 651.547 323.476 651.547 325.955V328.268H640.281C640.333 329.622 640.734 330.679 641.484 331.44C642.234 332.2 643.286 332.58 644.641 332.58C645.693 332.58 646.687 332.471 647.625 332.252C648.562 332.034 649.542 331.685 650.562 331.205V334.893C649.729 335.31 648.838 335.617 647.891 335.815C646.943 336.023 645.786 336.127 644.422 336.127ZM671.547 335.815H666.781V325.612C666.781 324.351 666.557 323.409 666.109 322.784C665.661 322.148 664.948 321.83 663.969 321.83C662.635 321.83 661.672 322.278 661.078 323.174C660.484 324.06 660.187 325.534 660.187 327.596V335.815H655.422V318.346H659.062L659.703 320.58H659.969C660.5 319.737 661.229 319.101 662.156 318.674C663.094 318.237 664.156 318.018 665.344 318.018C667.375 318.018 668.917 318.57 669.969 319.674C671.021 320.768 671.547 322.351 671.547 324.424V335.815ZM683.812 332.33C684.646 332.33 685.646 332.148 686.812 331.784V335.33C685.625 335.862 684.167 336.127 682.437 336.127C680.531 336.127 679.141 335.648 678.266 334.69C677.401 333.721 676.969 332.273 676.969 330.346V321.924H674.687V319.909L677.312 318.315L678.687 314.627H681.734V318.346H686.625V321.924H681.734V330.346C681.734 331.023 681.922 331.523 682.297 331.846C682.682 332.169 683.187 332.33 683.812 332.33ZM697.594 321.409C696.583 321.409 695.792 321.731 695.219 322.377C694.646 323.013 694.318 323.919 694.234 325.096H700.922C700.901 323.919 700.594 323.013 700 322.377C699.406 321.731 698.604 321.409 697.594 321.409ZM698.266 336.127C695.453 336.127 693.255 335.351 691.672 333.799C690.088 332.247 689.297 330.049 689.297 327.205C689.297 324.278 690.026 322.018 691.484 320.424C692.953 318.82 694.979 318.018 697.562 318.018C700.031 318.018 701.953 318.721 703.328 320.127C704.703 321.534 705.391 323.476 705.391 325.955V328.268H694.125C694.177 329.622 694.578 330.679 695.328 331.44C696.078 332.2 697.13 332.58 698.484 332.58C699.536 332.58 700.531 332.471 701.469 332.252C702.406 332.034 703.385 331.685 704.406 331.205V334.893C703.573 335.31 702.682 335.617 701.734 335.815C700.786 336.023 699.63 336.127 698.266 336.127ZM721.453 330.627C721.453 332.419 720.828 333.784 719.578 334.721C718.338 335.659 716.479 336.127 714 336.127C712.729 336.127 711.646 336.039 710.75 335.862C709.854 335.695 709.016 335.445 708.234 335.112V331.174C709.12 331.591 710.115 331.94 711.219 332.221C712.333 332.502 713.312 332.643 714.156 332.643C715.885 332.643 716.75 332.143 716.75 331.143C716.75 330.768 716.635 330.466 716.406 330.237C716.177 329.997 715.781 329.731 715.219 329.44C714.656 329.138 713.906 328.789 712.969 328.393C711.625 327.83 710.635 327.31 710 326.83C709.375 326.351 708.917 325.804 708.625 325.19C708.344 324.565 708.203 323.799 708.203 322.893C708.203 321.341 708.802 320.143 710 319.299C711.208 318.445 712.917 318.018 715.125 318.018C717.229 318.018 719.276 318.476 721.266 319.393L719.828 322.83C718.953 322.455 718.135 322.148 717.375 321.909C716.615 321.669 715.838 321.549 715.047 321.549C713.641 321.549 712.937 321.929 712.937 322.69C712.937 323.117 713.161 323.487 713.609 323.799C714.068 324.112 715.062 324.575 716.594 325.19C717.958 325.742 718.958 326.258 719.594 326.737C720.229 327.216 720.698 327.768 721 328.393C721.302 329.018 721.453 329.763 721.453 330.627ZM724.5 333.58C724.5 332.705 724.734 332.044 725.203 331.596C725.672 331.148 726.354 330.924 727.25 330.924C728.115 330.924 728.781 331.153 729.25 331.612C729.729 332.07 729.969 332.726 729.969 333.58C729.969 334.403 729.729 335.054 729.25 335.534C728.771 336.002 728.104 336.237 727.25 336.237C726.375 336.237 725.698 336.008 725.219 335.549C724.74 335.08 724.5 334.424 724.5 333.58Z" fill="#F4F4F4"/>
<path d="M248.581 176.002C244.423 176.002 241.203 177.57 238.921 180.707C236.64 183.82 235.5 188.169 235.5 193.753C235.5 205.373 239.86 211.183 248.581 211.183C252.241 211.183 256.672 210.268 261.876 208.439V217.706C257.599 219.488 252.823 220.38 247.547 220.38C239.967 220.38 234.169 218.086 230.153 213.5C226.137 208.89 224.129 202.284 224.129 193.682C224.129 188.264 225.115 183.523 227.087 179.46C229.06 175.372 231.888 172.248 235.571 170.085C239.278 167.899 243.615 166.806 248.581 166.806C253.643 166.806 258.728 168.03 263.837 170.477L260.272 179.46C258.324 178.533 256.363 177.725 254.391 177.036C252.419 176.347 250.482 176.002 248.581 176.002ZM283.014 219.667H272.142V164.204H283.014V219.667ZM293.992 169.515C293.992 165.974 295.965 164.204 299.909 164.204C303.854 164.204 305.826 165.974 305.826 169.515C305.826 171.202 305.327 172.521 304.329 173.471C303.355 174.398 301.882 174.861 299.909 174.861C295.965 174.861 293.992 173.079 293.992 169.515ZM305.327 219.667H294.456V179.816H305.327V219.667ZM352.449 219.667H341.578V196.391C341.578 193.515 341.09 191.365 340.116 189.939C339.166 188.49 337.657 187.765 335.589 187.765C332.809 187.765 330.789 188.787 329.53 190.83C328.27 192.874 327.641 196.236 327.641 200.918V219.667H316.769V179.816H325.074L326.536 184.913H327.142C328.211 183.083 329.756 181.658 331.775 180.636C333.795 179.59 336.112 179.068 338.726 179.068C344.691 179.068 348.73 181.016 350.845 184.913H351.808C352.877 183.06 354.445 181.622 356.513 180.6C358.604 179.578 360.956 179.068 363.57 179.068C368.085 179.068 371.495 180.232 373.8 182.561C376.129 184.866 377.293 188.573 377.293 193.682V219.667H366.386V196.391C366.386 193.515 365.899 191.365 364.925 189.939C363.974 188.49 362.465 187.765 360.398 187.765C357.736 187.765 355.74 188.715 354.41 190.616C353.103 192.517 352.449 195.535 352.449 199.67V219.667ZM413.793 219.667L411.69 214.249H411.405C409.576 216.554 407.686 218.158 405.738 219.061C403.813 219.94 401.294 220.38 398.181 220.38C394.355 220.38 391.337 219.286 389.127 217.1C386.941 214.914 385.848 211.801 385.848 207.761C385.848 203.532 387.321 200.419 390.268 198.422C393.238 196.403 397.706 195.286 403.67 195.072L410.585 194.858V193.111C410.585 189.072 408.518 187.052 404.383 187.052C401.199 187.052 397.456 188.014 393.155 189.939L389.555 182.596C394.141 180.196 399.227 178.996 404.811 178.996C410.158 178.996 414.257 180.161 417.108 182.489C419.96 184.818 421.386 188.359 421.386 193.111V219.667H413.793ZM410.585 201.203L406.379 201.345C403.219 201.44 400.866 202.011 399.322 203.056C397.777 204.102 397.005 205.694 397.005 207.833C397.005 210.898 398.763 212.431 402.28 212.431C404.799 212.431 406.807 211.706 408.304 210.256C409.825 208.807 410.585 206.882 410.585 204.482V201.203ZM449.402 211.718C451.303 211.718 453.585 211.302 456.246 210.47V218.562C453.537 219.774 450.21 220.38 446.266 220.38C441.917 220.38 438.745 219.286 436.749 217.1C434.776 214.89 433.79 211.587 433.79 207.191V187.979H428.586V183.38L434.574 179.745L437.711 171.333H444.662V179.816H455.818V187.979H444.662V207.191C444.662 208.736 445.089 209.876 445.945 210.613C446.824 211.35 447.977 211.718 449.402 211.718ZM463.874 169.515C463.874 165.974 465.846 164.204 469.791 164.204C473.736 164.204 475.708 165.974 475.708 169.515C475.708 171.202 475.209 172.521 474.211 173.471C473.237 174.398 471.763 174.861 469.791 174.861C465.846 174.861 463.874 173.079 463.874 169.515ZM475.209 219.667H464.337V179.816H475.209V219.667ZM514.382 219.667H482.908V213.251L501.372 188.121H484.013V179.816H513.741V186.874L495.776 211.361H514.382V219.667ZM547.603 219.667L545.5 214.249H545.215C543.385 216.554 541.496 218.158 539.547 219.061C537.623 219.94 535.104 220.38 531.991 220.38C528.165 220.38 525.147 219.286 522.937 217.1C520.751 214.914 519.658 211.801 519.658 207.761C519.658 203.532 521.131 200.419 524.078 198.422C527.048 196.403 531.515 195.286 537.48 195.072L544.395 194.858V193.111C544.395 189.072 542.328 187.052 538.193 187.052C535.009 187.052 531.266 188.014 526.965 189.939L523.365 182.596C527.951 180.196 533.036 178.996 538.621 178.996C543.967 178.996 548.066 180.161 550.918 182.489C553.77 184.818 555.195 188.359 555.195 193.111V219.667H547.603ZM544.395 201.203L540.189 201.345C537.028 201.44 534.676 202.011 533.131 203.056C531.587 204.102 530.814 205.694 530.814 207.833C530.814 210.898 532.573 212.431 536.09 212.431C538.609 212.431 540.617 211.706 542.114 210.256C543.635 208.807 544.395 206.882 544.395 204.482V201.203ZM579.042 220.38C574.36 220.38 570.677 218.562 567.992 214.926C565.33 211.29 564 206.252 564 199.813C564 193.278 565.354 188.193 568.063 184.557C570.796 180.897 574.55 179.068 579.327 179.068C584.341 179.068 588.167 181.016 590.804 184.913H591.161C590.614 181.943 590.341 179.293 590.341 176.964V164.204H601.248V219.667H592.907L590.804 214.498H590.341C587.869 218.419 584.103 220.38 579.042 220.38ZM582.855 211.718C585.636 211.718 587.667 210.91 588.951 209.294C590.258 207.678 590.971 204.934 591.089 201.06V199.884C591.089 195.607 590.424 192.541 589.093 190.688C587.786 188.834 585.648 187.907 582.677 187.907C580.253 187.907 578.364 188.941 577.01 191.008C575.679 193.052 575.014 196.034 575.014 199.955C575.014 203.876 575.691 206.823 577.045 208.795C578.4 210.744 580.337 211.718 582.855 211.718ZM621.28 199.67C621.28 203.615 621.922 206.597 623.205 208.617C624.512 210.637 626.627 211.647 629.55 211.647C632.449 211.647 634.528 210.649 635.788 208.652C637.071 206.633 637.712 203.638 637.712 199.67C637.712 195.725 637.071 192.767 635.788 190.795C634.504 188.822 632.401 187.836 629.479 187.836C626.579 187.836 624.488 188.822 623.205 190.795C621.922 192.743 621.28 195.702 621.28 199.67ZM648.833 199.67C648.833 206.157 647.123 211.231 643.701 214.89C640.279 218.55 635.514 220.38 629.407 220.38C625.581 220.38 622.207 219.548 619.284 217.884C616.361 216.197 614.116 213.785 612.547 210.649C610.979 207.512 610.195 203.852 610.195 199.67C610.195 193.159 611.894 188.097 615.292 184.485C618.69 180.873 623.466 179.068 629.621 179.068C633.447 179.068 636.821 179.899 639.744 181.563C642.667 183.226 644.913 185.614 646.481 188.727C648.049 191.84 648.833 195.488 648.833 199.67Z" fill="white"/>
<defs>
<linearGradient id="paint0_linear" x1="-2.75597e-09" y1="238" x2="828" y2="237.757" gradientUnits="userSpaceOnUse">
<stop stop-color="#B6000B"/>
<stop offset="1" stop-color="#FF1C29"/>
</linearGradient>
<linearGradient id="paint1_linear" x1="872" y1="236" x2="44.9997" y2="236" gradientUnits="userSpaceOnUse">
<stop stop-color="#FF1C29"/>
<stop offset="1" stop-color="#B6000B"/>
</linearGradient>
<linearGradient id="paint2_linear" x1="19235.4" y1="3749.51" x2="19624" y2="3361.01" gradientUnits="userSpaceOnUse">
<stop stop-color="#FF5C00"/>
<stop offset="1" stop-color="#FF9D00"/>
</linearGradient>
<linearGradient id="paint3_linear" x1="258.695" y1="63.5659" x2="311.349" y2="10.9119" gradientUnits="userSpaceOnUse">
<stop stop-color="#FF9D00"/>
<stop offset="1" stop-color="#FF1C29"/>
</linearGradient>
</defs>
</svg>
