<svg width="127" height="114" viewBox="0 0 127 114" fill="none" xmlns="http://www.w3.org/2000/svg">
<path opacity="0.75" d="M25.4099 101.541C43.2715 112.95 63.5297 114.666 79.264 112.042C100.504 108.503 107.497 98.9833 110.58 93.8714C112.112 91.3381 120.95 76.7309 118.883 63.2609C117.892 56.7982 115.164 55.6423 114.768 48.8699C114.181 38.8382 119.798 34.9408 119.788 26.5694C119.788 16.4256 111.662 6.79956 105.732 3.52415C90.6417 -4.80183 74.3492 3.24118 65.7526 10.9719C57.1561 18.7026 46.5865 24.9624 33.5245 18.812C20.4626 12.6616 5.69853 21.2306 2.00874 35.779C-1.97961 51.5127 -2.62379 83.6207 25.4099 101.541Z" fill="url(#paint0_linear)"/>
<path opacity="0.75" d="M18.8127 109.277C37.8447 121.74 77.0801 103.18 93.6436 102.798C138.335 101.765 134.754 42.7357 96.6065 21.5857C55.5742 -1.16327 15.2703 -1.83864 8.61606 48.5978C8.65501 48.6111 -3.18361 94.8736 18.8127 109.277Z" fill="url(#paint1_linear)"/>
<path d="M48.4254 86.3828C47.9019 86.3828 47.4777 86.809 47.4777 87.335V93.0479C47.4777 93.5738 47.9019 94 48.4254 94C48.9489 94 49.3731 93.5738 49.3731 93.0479V87.335C49.3731 86.809 48.9488 86.3828 48.4254 86.3828ZM60.892 89.5566C60.3686 89.5566 59.9443 89.9829 59.9443 90.5088C59.9443 91.0346 60.3686 91.4609 60.892 91.4609C61.4154 91.4609 61.8397 91.0346 61.8397 90.5088C61.8397 89.9829 61.4154 89.5566 60.892 89.5566ZM66.5783 89.5566C66.0549 89.5566 65.6306 89.9829 65.6306 90.5088C65.6306 91.0346 66.0549 91.4609 66.5783 91.4609C67.1017 91.4609 67.526 91.0346 67.526 90.5088C67.526 89.9829 67.1017 89.5566 66.5783 89.5566ZM60.892 83.8438C60.3686 83.8438 59.9443 84.2701 59.9443 84.7959C59.9443 85.3217 60.3686 85.748 60.892 85.748C61.4154 85.748 61.8397 85.3217 61.8397 84.7959C61.8397 84.2701 61.4154 83.8438 60.892 83.8438ZM66.5783 83.8438C66.0549 83.8438 65.6306 84.2701 65.6306 84.7959C65.6306 85.3217 66.0549 85.748 66.5783 85.748C67.1017 85.748 67.526 85.3217 67.526 84.7959C67.526 84.2701 67.1017 83.8438 66.5783 83.8438ZM91.1025 60.4209H79.7299C78.1623 60.4209 76.8868 61.7024 76.8868 63.2773V72.418C76.8868 73.9929 78.1623 75.2744 79.7299 75.2744H80.8672C81.3898 75.2744 81.8149 75.7015 81.8149 76.2266V77.8717C81.2151 77.473 80.5638 77.1514 79.8766 76.9186L69.2117 73.3132C68.488 73.0681 68.1306 72.3805 68.1842 71.6471C71.8356 69.4969 74.3614 65.6175 74.6392 61.1356C76.4129 61.087 77.8413 59.6233 77.8413 57.8297C77.8413 56.045 76.4272 54.5868 74.6657 54.5243C74.6674 54.3378 74.6763 52.9095 74.6543 52.7571C74.5167 51.801 74.3288 50.3973 74.1661 48.9852C74.0052 47.5896 73.8388 46.1471 73.6721 45.1699C75.7687 43.5261 76.8491 40.9564 76.5638 38.2864C76.4631 37.3423 76.1894 36.4358 75.7503 35.5913C75.5079 35.1251 74.9351 34.9448 74.4715 35.1882C74.0076 35.4317 73.8279 36.0068 74.0703 36.473C74.399 37.1051 74.6038 37.7834 74.6791 38.4895C74.8951 40.5108 74.0724 42.4547 72.4789 43.6896C71.9422 44.1053 71.6812 44.7819 71.7975 45.4557C71.9575 46.3799 72.1231 47.8158 72.2833 49.2043C72.3853 50.0888 72.4895 50.9922 72.5945 51.7839C69.0929 51.3361 65.5412 51.1006 62.0189 51.0835C58.2062 51.0665 54.3631 51.3013 50.5752 51.7869L51.3672 45.6641C51.4788 44.9688 51.1816 44.2645 50.6059 43.8637C48.9718 42.7264 48.0498 40.8564 48.1397 38.8612C48.2703 35.9568 50.6375 33.5501 53.5284 33.3823C54.1018 33.3492 54.6736 33.4015 55.2273 33.5381C55.9018 33.7041 56.6019 33.4754 57.0532 32.9405C58.1455 31.6466 59.7384 30.9043 61.4236 30.9043C63.1086 30.9043 64.7016 31.6466 65.794 32.9406C66.2452 33.4754 66.9446 33.7044 67.62 33.5382C68.2964 33.3715 68.9942 33.3306 69.6945 33.4164C70.2715 33.4873 70.8325 33.6466 71.362 33.89C71.8382 34.1088 72.4003 33.8986 72.618 33.4205C72.836 32.9423 72.6266 32.3773 72.1507 32.1586C71.4439 31.8335 70.6949 31.6208 69.9244 31.5264C69.0113 31.414 68.0991 31.4652 67.2131 31.6778C65.7607 29.9755 63.653 29 61.4236 29C59.1941 29 57.0865 29.9754 55.6341 31.6778C54.9107 31.5042 54.1656 31.4375 53.4191 31.4814C51.5434 31.5902 49.7768 32.3961 48.4445 33.7506C47.1117 35.1054 46.331 36.8899 46.2463 38.7754C46.1275 41.414 47.3392 43.8883 49.4896 45.4035C49.4762 45.4792 48.5332 52.7867 48.5303 52.8583C48.5286 52.9002 48.527 54.4809 48.5284 54.5243C46.7669 54.5868 45.3528 56.0451 45.3528 57.8297C45.3528 59.6231 46.7809 61.0868 48.5544 61.1356C48.6393 62.5182 48.9375 63.866 49.4459 65.1524C49.6412 65.647 50.2 65.8759 50.6763 65.6862C51.1629 65.4923 51.4006 64.9387 51.2075 64.45C50.6875 63.1335 50.4238 61.741 50.4238 60.3111V53.7307C54.256 53.2213 58.1482 52.9698 62.0098 52.9879C65.5951 53.0053 69.2103 53.2569 72.7703 53.7302V60.3111C72.7703 66.5008 67.758 71.5365 61.597 71.5365C58.4829 71.5365 55.4865 70.2158 53.3756 67.913C53.021 67.5263 52.4214 67.5013 52.0364 67.8577C51.6514 68.2139 51.6268 68.8162 51.9813 69.2031C52.9618 70.2727 54.106 71.1604 55.3571 71.8429V71.8771C55.3571 72.5284 54.9441 73.1055 54.3295 73.3132L43.6644 76.9187C40.2763 78.0647 38 81.2478 38 84.8391V93.0479C38 93.5738 38.4242 94 38.9477 94C39.4712 94 39.8954 93.5738 39.8954 93.0479V84.8391C39.8954 82.066 41.6531 79.6085 44.2691 78.7235L53.2108 75.7006L57.7279 79.2168C56.057 80.2077 55.002 82.0344 55.002 84.006V93.0479C55.002 93.5738 55.4262 94 55.9497 94C56.4732 94 56.8974 93.5738 56.8974 93.0479V84.0059C56.8974 82.5943 57.7196 81.295 58.9918 80.6963L69.9082 75.5579L79.2712 78.7232C80.235 79.0499 81.1069 79.6033 81.8146 80.3299V81.9031H81.8068C80.4774 81.9031 79.3957 82.99 79.3957 84.3257V91.5775C79.3957 92.9132 80.4774 94 81.8068 94H87.0203C89.4552 94 91.4361 92.0096 91.4361 89.5634V86.3398C91.4361 84.6154 90.4511 83.1185 89.0172 82.3847V76.2266C89.0172 75.7015 89.4422 75.2744 89.9649 75.2744H91.1021C92.6698 75.2744 93.9453 73.9929 93.9453 72.418V63.2773C93.9457 61.7024 92.6702 60.4209 91.1025 60.4209V60.4209ZM74.6657 56.4305C75.3816 56.4906 75.9459 57.0951 75.9459 57.8297C75.9459 58.5642 75.3816 59.1688 74.6657 59.2288V56.4305ZM48.5282 59.2287C47.8124 59.1686 47.2481 58.5641 47.2481 57.8295C47.2481 57.095 47.8124 56.4904 48.5282 56.4304V59.2287ZM59.6339 78.2912L55.3398 74.9485C56.2646 74.4963 56.9311 73.6518 57.1625 72.6573C58.5729 73.1693 60.0728 73.4408 61.5971 73.4408C63.2753 73.4408 64.8802 73.1205 66.3555 72.539C66.5125 73.3398 66.9483 74.0517 67.5762 74.5527L59.6339 78.2912ZM89.541 86.3398V89.5634C89.541 90.9597 88.4104 92.0957 87.0206 92.0957H81.8072C81.5229 92.0957 81.2915 91.8633 81.2915 91.5775V84.3257C81.2915 84.0399 81.5229 83.8074 81.8072 83.8074H87.0206C88.4102 83.8074 89.541 84.9434 89.541 86.3398ZM92.0502 72.418C92.0502 72.943 91.6251 73.3701 91.1025 73.3701H89.9652C88.3976 73.3701 87.1221 74.6516 87.1221 76.2266V81.9057C87.0306 81.9016 83.8104 81.9035 83.7103 81.903V76.2266C83.7103 74.6516 82.4348 73.3701 80.8672 73.3701H79.7299C79.2073 73.3701 78.7822 72.943 78.7822 72.418V63.2773C78.7822 62.7523 79.2073 62.3252 79.7299 62.3252H91.1025C91.6251 62.3252 92.0502 62.7523 92.0502 63.2773V72.418ZM60.4759 41.7745V46.3395C60.4759 46.8655 60.9001 47.2917 61.4236 47.2917C61.9471 47.2917 62.3713 46.8655 62.3713 46.3395V41.7745C62.3713 41.2486 61.9471 40.8224 61.4236 40.8224C60.9001 40.8224 60.4759 41.2486 60.4759 41.7745ZM66.2183 41.4089L64.3284 45.9739C64.1274 46.4594 64.3562 47.0167 64.8395 47.2187C65.3119 47.4161 65.8756 47.1968 66.0785 46.7051L67.9684 42.1402C68.1694 41.6547 67.9406 41.0974 67.4573 40.8954C66.9741 40.6934 66.4193 40.9233 66.2183 41.4089V41.4089ZM68.0732 59.7916V57.8265C68.0732 57.3005 67.649 56.8743 67.1254 56.8743C66.6019 56.8743 66.1777 57.3005 66.1777 57.8265V59.7916C66.1777 60.3176 66.6019 60.7437 67.1254 60.7437C67.649 60.7437 68.0732 60.3176 68.0732 59.7916ZM81.6254 64.2295C81.1018 64.2295 80.6776 64.6557 80.6776 65.1816V70.5137C80.6776 71.0396 81.1018 71.4658 81.6254 71.4658C82.1489 71.4658 82.5731 71.0396 82.5731 70.5137V65.1816C82.5731 64.6557 82.1489 64.2295 81.6254 64.2295ZM55.3898 40.8954C54.9065 41.0974 54.6776 41.6546 54.8787 42.1402L56.7686 46.7051C56.9715 47.1967 57.5341 47.4165 58.0075 47.2187C58.4909 47.0167 58.7197 46.4595 58.5187 45.9739L56.6288 41.4089C56.4278 40.9233 55.873 40.6935 55.3898 40.8954V40.8954ZM85.4162 64.2295C84.8927 64.2295 84.4685 64.6557 84.4685 65.1816V70.5137C84.4685 71.0396 84.8927 71.4658 85.4162 71.4658C85.9397 71.4658 86.3639 71.0396 86.3639 70.5137V65.1816C86.3639 64.6557 85.9397 64.2295 85.4162 64.2295ZM89.2071 64.2295C88.6836 64.2295 88.2594 64.6557 88.2594 65.1816V70.5137C88.2594 71.0396 88.6836 71.4658 89.2071 71.4658C89.7306 71.4658 90.1548 71.0396 90.1548 70.5137V65.1816C90.1548 64.6557 89.7306 64.2295 89.2071 64.2295ZM61.7369 66.3045C62.6977 66.27 63.419 65.8921 63.8548 65.5812C64.2817 65.2767 64.382 64.6823 64.0788 64.2536C63.7761 63.8249 63.1843 63.724 62.7575 64.0285C62.5734 64.1598 62.1871 64.383 61.6689 64.4015C61.0799 64.4226 60.6447 64.1766 60.4357 64.0279C60.0083 63.7237 59.417 63.8255 59.1146 64.2545C58.812 64.6836 58.913 65.278 59.3401 65.5818C59.7015 65.8389 60.6994 66.3419 61.7369 66.3045V66.3045ZM57.0162 59.7916V57.8265C57.0162 57.3005 56.592 56.8743 56.0685 56.8743C55.545 56.8743 55.1208 57.3005 55.1208 57.8265V59.7916C55.1208 60.3176 55.545 60.7437 56.0685 60.7437C56.592 60.7437 57.0162 60.3176 57.0162 59.7916V59.7916Z" fill="white"/>
<defs>
<linearGradient id="paint0_linear" x1="-3.98826e-10" y1="56.6622" x2="119.822" y2="56.6408" gradientUnits="userSpaceOnUse">
<stop stop-color="#B6000B"/>
<stop offset="1" stop-color="#FF1C29"/>
</linearGradient>
<linearGradient id="paint1_linear" x1="126.19" y1="56.1862" x2="6.5121" y2="56.1862" gradientUnits="userSpaceOnUse">
<stop stop-color="#FF1C29"/>
<stop offset="1" stop-color="#B6000B"/>
</linearGradient>
</defs>
</svg>
