<svg width="165" height="44" viewBox="0 0 165 44" fill="none" xmlns="http://www.w3.org/2000/svg">
<path d="M17.6895 24.3125L20.0273 21.3242L25.5293 15.3477H31.5762L23.7715 23.873L32.0508 35H25.8633L20.2031 27.0371L17.9004 28.8828V35H12.5391V7.64844H17.9004V19.8477L17.6191 24.3125H17.6895ZM34.6348 10.2676C34.6348 8.52148 35.6074 7.64844 37.5527 7.64844C39.498 7.64844 40.4707 8.52148 40.4707 10.2676C40.4707 11.0996 40.2246 11.75 39.7324 12.2188C39.252 12.6758 38.5254 12.9043 37.5527 12.9043C35.6074 12.9043 34.6348 12.0254 34.6348 10.2676ZM40.2246 35H34.8633V15.3477H40.2246V35ZM64.0078 35H58.6465V23.5215C58.6465 22.1035 58.3945 21.043 57.8906 20.3398C57.3867 19.625 56.584 19.2676 55.4824 19.2676C53.9824 19.2676 52.8984 19.7715 52.2305 20.7793C51.5625 21.7754 51.2285 23.4336 51.2285 25.7539V35H45.8672V15.3477H49.9629L50.6836 17.8613H50.9824C51.5801 16.9121 52.4004 16.1973 53.4434 15.7168C54.498 15.2246 55.6934 14.9785 57.0293 14.9785C59.3145 14.9785 61.0488 15.5996 62.2324 16.8418C63.416 18.0723 64.0078 19.8535 64.0078 22.1855V35ZM77.8066 31.0801C78.7441 31.0801 79.8691 30.875 81.1816 30.4648V34.4551C79.8457 35.0527 78.2051 35.3516 76.2598 35.3516C74.1152 35.3516 72.5508 34.8125 71.5664 33.7344C70.5938 32.6445 70.1074 31.0156 70.1074 28.8477V19.373H67.541V17.1055L70.4941 15.3125L72.041 11.1641H75.4688V15.3477H80.9707V19.373H75.4688V28.8477C75.4688 29.6094 75.6797 30.1719 76.1016 30.5352C76.5352 30.8984 77.1035 31.0801 77.8066 31.0801ZM98.8828 29.1641C98.8828 31.1797 98.1797 32.7148 96.7734 33.7695C95.3789 34.8242 93.2871 35.3516 90.498 35.3516C89.0684 35.3516 87.8496 35.252 86.8418 35.0527C85.834 34.8652 84.8906 34.584 84.0117 34.209V29.7793C85.0078 30.248 86.127 30.6406 87.3691 30.957C88.623 31.2734 89.7246 31.4316 90.6738 31.4316C92.6191 31.4316 93.5918 30.8691 93.5918 29.7441C93.5918 29.3223 93.4629 28.9824 93.2051 28.7246C92.9473 28.4551 92.502 28.1562 91.8691 27.8281C91.2363 27.4883 90.3926 27.0957 89.3379 26.6504C87.8262 26.0176 86.7129 25.4316 85.998 24.8926C85.2949 24.3535 84.7793 23.7383 84.4512 23.0469C84.1348 22.3438 83.9766 21.4824 83.9766 20.4629C83.9766 18.7168 84.6504 17.3691 85.998 16.4199C87.3574 15.459 89.2793 14.9785 91.7637 14.9785C94.1309 14.9785 96.4336 15.4941 98.6719 16.5254L97.0547 20.3926C96.0703 19.9707 95.1504 19.625 94.2949 19.3555C93.4395 19.0859 92.5664 18.9512 91.6758 18.9512C90.0938 18.9512 89.3027 19.3789 89.3027 20.2344C89.3027 20.7148 89.5547 21.1309 90.0586 21.4824C90.5742 21.834 91.6934 22.3555 93.416 23.0469C94.9512 23.668 96.0762 24.248 96.791 24.7871C97.5059 25.3262 98.0332 25.9473 98.373 26.6504C98.7129 27.3535 98.8828 28.1914 98.8828 29.1641ZM116.988 35L116.268 32.4863H115.986C115.412 33.4004 114.598 34.1094 113.543 34.6133C112.488 35.1055 111.287 35.3516 109.939 35.3516C107.631 35.3516 105.891 34.7363 104.719 33.5059C103.547 32.2637 102.961 30.4824 102.961 28.1621V15.3477H108.322V26.8262C108.322 28.2441 108.574 29.3105 109.078 30.0254C109.582 30.7285 110.385 31.0801 111.486 31.0801C112.986 31.0801 114.07 30.582 114.738 29.5859C115.406 28.5781 115.74 26.9141 115.74 24.5938V15.3477H121.102V35H116.988ZM143.83 15.3477V18.0723L140.754 18.8633C141.316 19.7422 141.598 20.7266 141.598 21.8164C141.598 23.9258 140.859 25.5723 139.383 26.7559C137.918 27.9277 135.879 28.5137 133.266 28.5137L132.299 28.4609L131.508 28.373C130.957 28.7949 130.682 29.2637 130.682 29.7793C130.682 30.5527 131.666 30.9395 133.635 30.9395H136.975C139.131 30.9395 140.771 31.4023 141.896 32.3281C143.033 33.2539 143.602 34.6133 143.602 36.4062C143.602 38.7031 142.641 40.4844 140.719 41.75C138.809 43.0156 136.061 43.6484 132.475 43.6484C129.732 43.6484 127.635 43.168 126.182 42.207C124.74 41.2578 124.02 39.9219 124.02 38.1992C124.02 37.0156 124.389 36.0254 125.127 35.2285C125.865 34.4316 126.949 33.8633 128.379 33.5234C127.828 33.2891 127.348 32.9082 126.938 32.3809C126.527 31.8418 126.322 31.2734 126.322 30.6758C126.322 29.9258 126.539 29.3047 126.973 28.8125C127.406 28.3086 128.033 27.8164 128.854 27.3359C127.822 26.8906 127.002 26.1758 126.393 25.1914C125.795 24.207 125.496 23.0469 125.496 21.7109C125.496 19.5664 126.193 17.9082 127.588 16.7363C128.982 15.5645 130.975 14.9785 133.564 14.9785C134.115 14.9785 134.766 15.0312 135.516 15.1367C136.277 15.2305 136.764 15.3008 136.975 15.3477H143.83ZM128.66 37.7773C128.66 38.5156 129.012 39.0957 129.715 39.5176C130.43 39.9395 131.426 40.1504 132.703 40.1504C134.625 40.1504 136.131 39.8867 137.221 39.3594C138.311 38.832 138.855 38.1113 138.855 37.1973C138.855 36.459 138.533 35.9492 137.889 35.668C137.244 35.3867 136.248 35.2461 134.9 35.2461H132.123C131.139 35.2461 130.312 35.4746 129.645 35.9316C128.988 36.4004 128.66 37.0156 128.66 37.7773ZM130.611 21.7812C130.611 22.8477 130.852 23.6914 131.332 24.3125C131.824 24.9336 132.568 25.2441 133.564 25.2441C134.572 25.2441 135.311 24.9336 135.779 24.3125C136.248 23.6914 136.482 22.8477 136.482 21.7812C136.482 19.4141 135.51 18.2305 133.564 18.2305C131.596 18.2305 130.611 19.4141 130.611 21.7812ZM146.854 10.2676C146.854 8.52148 147.826 7.64844 149.771 7.64844C151.717 7.64844 152.689 8.52148 152.689 10.2676C152.689 11.0996 152.443 11.75 151.951 12.2188C151.471 12.6758 150.744 12.9043 149.771 12.9043C147.826 12.9043 146.854 12.0254 146.854 10.2676ZM152.443 35H147.082V15.3477H152.443V35Z" fill="white"/>
</svg>
