<svg width="453" height="200" viewBox="0 0 453 200" fill="none" xmlns="http://www.w3.org/2000/svg">
<path d="M445.71 169.822C445.71 168.905 445.891 167.996 446.242 167.149C446.594 166.302 447.109 165.532 447.758 164.884C448.407 164.236 449.177 163.722 450.025 163.372C450.873 163.022 451.782 162.842 452.699 162.844V148.876C451.75 148.926 450.802 148.783 449.91 148.454C449.019 148.126 448.204 147.619 447.515 146.965C446.826 146.311 446.278 145.523 445.904 144.65C445.53 143.777 445.338 142.836 445.339 141.886C445.34 140.936 445.535 139.997 445.912 139.125C446.289 138.253 446.84 137.467 447.53 136.815C448.221 136.163 449.038 135.658 449.93 135.332C450.822 135.006 451.771 134.866 452.72 134.919V120.941C450.869 120.941 449.094 120.206 447.785 118.897C446.477 117.588 445.741 115.813 445.741 113.962C445.741 112.112 446.477 110.336 447.785 109.028C449.094 107.719 450.869 106.984 452.72 106.984V93.0162C451.78 93.0525 450.843 92.8988 449.964 92.5642C449.085 92.2296 448.282 91.721 447.604 91.0689C446.927 90.4168 446.387 89.6347 446.019 88.7693C445.651 87.9038 445.461 86.973 445.461 86.0324C445.461 85.0919 445.651 84.161 446.019 83.2956C446.387 82.4302 446.927 81.648 447.604 80.9959C448.282 80.3438 449.085 79.8353 449.964 79.5007C450.843 79.1661 451.78 79.0123 452.72 79.0487V65.0811C451.803 65.0811 450.896 64.9006 450.049 64.5499C449.203 64.1992 448.433 63.6851 447.785 63.0371C447.137 62.3891 446.623 61.6198 446.273 60.7731C445.922 59.9264 445.741 59.019 445.741 58.1025C445.741 57.1861 445.922 56.2786 446.273 55.432C446.623 54.5853 447.137 53.816 447.785 53.1679C448.433 52.5199 449.203 52.0059 450.049 51.6552C450.896 51.3045 451.803 51.124 452.72 51.124V37.1564C451.78 37.1927 450.843 37.039 449.964 36.7044C449.085 36.3698 448.282 35.8612 447.604 35.2091C446.927 34.5571 446.387 33.7749 446.019 32.9094C445.651 32.044 445.461 31.1132 445.461 30.1726C445.461 29.2321 445.651 28.3012 446.019 27.4358C446.387 26.5704 446.927 25.7882 447.604 25.1361C448.282 24.484 449.085 23.9755 449.964 23.6409C450.843 23.3063 451.78 23.1525 452.72 23.1889V16.1477C448.436 16.1477 444.328 14.4468 441.298 11.4188C438.268 8.39079 436.565 4.2836 436.562 0H16.1686C16.1686 2.1223 15.7502 4.22379 14.9374 6.18428C14.1246 8.14477 12.9333 9.9258 11.4316 11.4255C9.92998 12.9252 8.1474 14.1143 6.18587 14.9245C4.22433 15.7348 2.1223 16.1504 0 16.1477V23.1889C1.80551 23.2586 3.51382 24.025 4.76655 25.3271C6.01927 26.6291 6.71904 28.3658 6.71904 30.1726C6.71904 31.9795 6.01927 33.7161 4.76655 35.0182C3.51382 36.3203 1.80551 37.0866 0 37.1564V51.124C1.85083 51.124 3.62586 51.8592 4.93459 53.1679C6.24332 54.4767 6.97856 56.2517 6.97856 58.1025C6.97856 59.9534 6.24332 61.7284 4.93459 63.0371C3.62586 64.3459 1.85083 65.0811 0 65.0811V79.0487C1.80551 79.1184 3.51382 79.8848 4.76655 81.1868C6.01927 82.4889 6.71904 84.2256 6.71904 86.0324C6.71904 87.8393 6.01927 89.5759 4.76655 90.878C3.51382 92.1801 1.80551 92.9464 0 93.0162V106.984C1.85083 106.984 3.62586 107.719 4.93459 109.028C6.24332 110.336 6.97856 112.112 6.97856 113.962C6.97856 115.813 6.24332 117.588 4.93459 118.897C3.62586 120.206 1.85083 120.941 0 120.941V134.919C1.80551 134.989 3.51382 135.755 4.76655 137.057C6.01927 138.359 6.71904 140.096 6.71904 141.903C6.71904 143.71 6.01927 145.446 4.76655 146.748C3.51382 148.05 1.80551 148.817 0 148.886V162.854C0.916438 162.854 1.8239 163.035 2.67058 163.385C3.51726 163.736 4.28657 164.25 4.93459 164.898C5.58261 165.546 6.09665 166.315 6.44735 167.162C6.79806 168.009 6.97857 168.916 6.97857 169.833C6.97857 170.749 6.79806 171.656 6.44735 172.503C6.09665 173.35 5.58261 174.119 4.93459 174.767C4.28657 175.415 3.51726 175.929 2.67058 176.28C1.8239 176.631 0.916438 176.811 0 176.811V183.852C2.12192 183.851 4.22333 184.267 6.18425 185.078C8.14517 185.889 9.92719 187.078 11.4286 188.578C12.93 190.077 14.1213 191.857 14.9346 193.817C15.7479 195.777 16.1672 197.878 16.1686 200H436.551C436.554 195.714 438.259 191.604 441.291 188.574C444.323 185.544 448.434 183.842 452.72 183.842V176.801C451.801 176.805 450.89 176.627 450.04 176.278C449.189 175.93 448.416 175.416 447.765 174.768C447.114 174.119 446.597 173.349 446.244 172.5C445.892 171.651 445.71 170.741 445.71 169.822Z" fill="url(#paint0_linear)"/>
<mask id="mask0" mask-type="alpha" maskUnits="userSpaceOnUse" x="0" y="0" width="453" height="200">
<path d="M445.71 169.822C445.71 168.905 445.891 167.996 446.242 167.149C446.594 166.302 447.109 165.532 447.758 164.884C448.407 164.236 449.177 163.722 450.025 163.372C450.873 163.022 451.782 162.842 452.699 162.844V148.876C451.75 148.926 450.802 148.783 449.91 148.454C449.019 148.126 448.204 147.619 447.515 146.965C446.826 146.311 446.278 145.523 445.904 144.65C445.53 143.777 445.338 142.836 445.339 141.886C445.34 140.936 445.535 139.997 445.912 139.125C446.289 138.253 446.84 137.467 447.53 136.815C448.221 136.163 449.038 135.658 449.93 135.332C450.822 135.006 451.771 134.866 452.72 134.919V120.941C450.869 120.941 449.094 120.206 447.785 118.897C446.477 117.588 445.741 115.813 445.741 113.962C445.741 112.112 446.477 110.336 447.785 109.028C449.094 107.719 450.869 106.984 452.72 106.984V93.0162C451.78 93.0525 450.843 92.8988 449.964 92.5642C449.085 92.2296 448.282 91.721 447.604 91.0689C446.927 90.4168 446.387 89.6347 446.019 88.7693C445.651 87.9038 445.461 86.973 445.461 86.0324C445.461 85.0919 445.651 84.161 446.019 83.2956C446.387 82.4302 446.927 81.648 447.604 80.9959C448.282 80.3438 449.085 79.8353 449.964 79.5007C450.843 79.1661 451.78 79.0123 452.72 79.0487V65.0811C451.803 65.0811 450.896 64.9006 450.049 64.5499C449.203 64.1992 448.433 63.6851 447.785 63.0371C447.137 62.3891 446.623 61.6198 446.273 60.7731C445.922 59.9264 445.741 59.019 445.741 58.1025C445.741 57.1861 445.922 56.2786 446.273 55.432C446.623 54.5853 447.137 53.816 447.785 53.1679C448.433 52.5199 449.203 52.0059 450.049 51.6552C450.896 51.3045 451.803 51.124 452.72 51.124V37.1564C451.78 37.1927 450.843 37.039 449.964 36.7044C449.085 36.3698 448.282 35.8612 447.604 35.2091C446.927 34.5571 446.387 33.7749 446.019 32.9094C445.651 32.044 445.461 31.1132 445.461 30.1726C445.461 29.2321 445.651 28.3012 446.019 27.4358C446.387 26.5704 446.927 25.7882 447.604 25.1361C448.282 24.484 449.085 23.9755 449.964 23.6409C450.843 23.3063 451.78 23.1525 452.72 23.1889V16.1477C448.436 16.1477 444.328 14.4468 441.298 11.4188C438.268 8.39079 436.565 4.2836 436.562 0H16.1686C16.1686 2.1223 15.7502 4.22379 14.9374 6.18428C14.1246 8.14477 12.9333 9.9258 11.4316 11.4255C9.92998 12.9252 8.1474 14.1143 6.18587 14.9245C4.22433 15.7348 2.1223 16.1504 0 16.1477V23.1889C1.80551 23.2586 3.51382 24.025 4.76655 25.3271C6.01927 26.6291 6.71904 28.3658 6.71904 30.1726C6.71904 31.9795 6.01927 33.7161 4.76655 35.0182C3.51382 36.3203 1.80551 37.0866 0 37.1564V51.124C1.85083 51.124 3.62586 51.8592 4.93459 53.1679C6.24332 54.4767 6.97856 56.2517 6.97856 58.1025C6.97856 59.9534 6.24332 61.7284 4.93459 63.0371C3.62586 64.3459 1.85083 65.0811 0 65.0811V79.0487C1.80551 79.1184 3.51382 79.8848 4.76655 81.1868C6.01927 82.4889 6.71904 84.2256 6.71904 86.0324C6.71904 87.8393 6.01927 89.5759 4.76655 90.878C3.51382 92.1801 1.80551 92.9464 0 93.0162V106.984C1.85083 106.984 3.62586 107.719 4.93459 109.028C6.24332 110.336 6.97856 112.112 6.97856 113.962C6.97856 115.813 6.24332 117.588 4.93459 118.897C3.62586 120.206 1.85083 120.941 0 120.941V134.919C1.80551 134.989 3.51382 135.755 4.76655 137.057C6.01927 138.359 6.71904 140.096 6.71904 141.903C6.71904 143.71 6.01927 145.446 4.76655 146.748C3.51382 148.05 1.80551 148.817 0 148.886V162.854C0.916438 162.854 1.8239 163.035 2.67058 163.385C3.51726 163.736 4.28657 164.25 4.93459 164.898C5.58261 165.546 6.09665 166.315 6.44735 167.162C6.79806 168.009 6.97857 168.916 6.97857 169.833C6.97857 170.749 6.79806 171.656 6.44735 172.503C6.09665 173.35 5.58261 174.119 4.93459 174.767C4.28657 175.415 3.51726 175.929 2.67058 176.28C1.8239 176.631 0.916438 176.811 0 176.811V183.852C2.12192 183.851 4.22333 184.267 6.18425 185.078C8.14517 185.889 9.92719 187.078 11.4286 188.578C12.93 190.077 14.1213 191.857 14.9346 193.817C15.7479 195.777 16.1672 197.878 16.1686 200H436.551C436.554 195.714 438.259 191.604 441.291 188.574C444.323 185.544 448.434 183.842 452.72 183.842V176.801C451.801 176.805 450.89 176.627 450.04 176.278C449.189 175.93 448.416 175.416 447.765 174.768C447.114 174.119 446.597 173.349 446.244 172.5C445.892 171.651 445.71 170.741 445.71 169.822Z" fill="url(#paint1_linear)"/>
</mask>
<g mask="url(#mask0)">
<path d="M45.7184 84H30.9048V43.4425L31.0487 36.7788L31.2884 29.4918C28.8274 31.9528 27.1175 33.5668 26.1587 34.3338L18.1048 40.8058L10.9617 31.8889L33.5416 13.9112H45.7184V84ZM113.794 48.9556C113.794 61.1964 111.78 70.2571 107.753 76.1378C103.758 82.0185 97.5898 84.9588 89.2482 84.9588C81.1623 84.9588 75.0579 81.9226 70.935 75.8501C66.8441 69.7777 64.7986 60.8129 64.7986 48.9556C64.7986 36.587 66.7962 27.4783 70.7912 21.6296C74.7862 15.7489 80.9386 12.8086 89.2482 12.8086C97.3342 12.8086 103.439 15.8768 107.561 22.0131C111.716 28.1495 113.794 37.1303 113.794 48.9556ZM79.5163 48.9556C79.5163 57.5529 80.2514 63.7212 81.7216 67.4606C83.2237 71.168 85.7326 73.0217 89.2482 73.0217C92.6999 73.0217 95.1928 71.136 96.7269 67.3647C98.261 63.5934 99.028 57.457 99.028 48.9556C99.028 40.3583 98.245 34.19 96.679 30.4506C95.1449 26.6793 92.668 24.7937 89.2482 24.7937C85.7646 24.7937 83.2717 26.6793 81.7695 30.4506C80.2674 34.19 79.5163 40.3583 79.5163 48.9556ZM132.442 34.9091C132.442 38.968 132.794 42.0043 133.497 44.0178C134.232 45.9993 135.399 46.9901 136.997 46.9901C140.065 46.9901 141.599 42.9631 141.599 34.9091C141.599 26.919 140.065 22.924 136.997 22.924C135.399 22.924 134.232 23.9148 133.497 25.8963C132.794 27.8459 132.442 30.8501 132.442 34.9091ZM153.68 34.8132C153.68 42.1641 152.258 47.6932 149.413 51.4006C146.569 55.076 142.398 56.9137 136.901 56.9137C131.627 56.9137 127.553 55.0281 124.676 51.2567C121.8 47.4535 120.361 41.9723 120.361 34.8132C120.361 20.2074 125.875 12.9045 136.901 12.9045C142.302 12.9045 146.441 14.8061 149.317 18.6094C152.226 22.3807 153.68 27.782 153.68 34.8132ZM186.663 13.9112L147.783 84H136.278L175.157 13.9112H186.663ZM181.533 62.9062C181.533 66.9652 181.885 70.0014 182.588 72.0149C183.323 73.9964 184.49 74.9872 186.088 74.9872C189.156 74.9872 190.69 70.9602 190.69 62.9062C190.69 54.9162 189.156 50.9212 186.088 50.9212C184.49 50.9212 183.323 51.9119 182.588 53.8935C181.885 55.843 181.533 58.8473 181.533 62.9062ZM202.771 62.8104C202.771 70.1293 201.349 75.6424 198.504 79.3498C195.66 83.0252 191.489 84.8629 185.992 84.8629C180.718 84.8629 176.643 82.9773 173.767 79.206C170.891 75.4027 169.452 69.9375 169.452 62.8104C169.452 48.2045 174.966 40.9016 185.992 40.9016C191.393 40.9016 195.532 42.8033 198.408 46.6065C201.317 50.3778 202.771 55.7791 202.771 62.8104Z" fill="white" fill-opacity="0.05"/>
<path d="M256.718 53H241.905V12.4425L242.049 5.77877L242.288 -1.50817C239.827 0.952772 238.118 2.56676 237.159 3.33381L229.105 9.80575L221.962 0.888851L244.542 -17.0888H256.718V53ZM324.794 17.9556C324.794 30.1964 322.78 39.2571 318.753 45.1378C314.758 51.0185 308.59 53.9588 300.248 53.9588C292.162 53.9588 286.058 50.9226 281.935 44.8501C277.844 38.7777 275.799 29.8129 275.799 17.9556C275.799 5.587 277.796 -3.52166 281.791 -9.37038C285.786 -15.2511 291.939 -18.1914 300.248 -18.1914C308.334 -18.1914 314.439 -15.1232 318.561 -8.98686C322.716 -2.85049 324.794 6.13033 324.794 17.9556ZM290.516 17.9556C290.516 26.5529 291.251 32.7212 292.722 36.4606C294.224 40.168 296.733 42.0217 300.248 42.0217C303.7 42.0217 306.193 40.136 307.727 36.3647C309.261 32.5934 310.028 26.457 310.028 17.9556C310.028 9.35831 309.245 3.18999 307.679 -0.549359C306.145 -4.32066 303.668 -6.20632 300.248 -6.20632C296.765 -6.20632 294.272 -4.32066 292.77 -0.549359C291.267 3.18999 290.516 9.35831 290.516 17.9556ZM343.442 3.90909C343.442 7.96804 343.794 11.0043 344.497 13.0178C345.232 14.9993 346.399 15.9901 347.997 15.9901C351.065 15.9901 352.599 11.9631 352.599 3.90909C352.599 -4.08096 351.065 -8.07599 347.997 -8.07599C346.399 -8.07599 345.232 -7.08522 344.497 -5.10369C343.794 -3.15412 343.442 -0.149856 343.442 3.90909ZM364.68 3.81321C364.68 11.1641 363.258 16.6932 360.413 20.4006C357.569 24.076 353.398 25.9137 347.901 25.9137C342.627 25.9137 338.553 24.0281 335.676 20.2567C332.8 16.4535 331.361 10.9723 331.361 3.81321C331.361 -10.7926 336.875 -18.0955 347.901 -18.0955C353.302 -18.0955 357.441 -16.1939 360.317 -12.3906C363.226 -8.61931 364.68 -3.21804 364.68 3.81321ZM397.663 -17.0888L358.783 53H347.278L386.157 -17.0888H397.663ZM392.533 31.9062C392.533 35.9652 392.885 39.0014 393.588 41.0149C394.323 42.9964 395.49 43.9872 397.088 43.9872C400.156 43.9872 401.69 39.9602 401.69 31.9062C401.69 23.9162 400.156 19.9212 397.088 19.9212C395.49 19.9212 394.323 20.9119 393.588 22.8935C392.885 24.843 392.533 27.8473 392.533 31.9062ZM413.771 31.8104C413.771 39.1293 412.349 44.6424 409.504 48.3498C406.66 52.0252 402.489 53.8629 396.992 53.8629C391.718 53.8629 387.643 51.9773 384.767 48.206C381.891 44.4027 380.452 38.9375 380.452 31.8104C380.452 17.2045 385.966 9.90163 396.992 9.90163C402.393 9.90163 406.532 11.8033 409.408 15.6065C412.317 19.3778 413.771 24.7791 413.771 31.8104Z" fill="white" fill-opacity="0.05"/>
<path d="M467.718 22H452.905V-18.5575L453.049 -25.2212L453.288 -32.5082C450.827 -30.0472 449.118 -28.4332 448.159 -27.6662L440.105 -21.1942L432.962 -30.1111L455.542 -48.0888H467.718V22ZM535.794 -13.0444C535.794 -0.803625 533.78 8.2571 529.753 14.1378C525.758 20.0185 519.59 22.9588 511.248 22.9588C503.162 22.9588 497.058 19.9226 492.935 13.8501C488.844 7.77769 486.799 -1.18715 486.799 -13.0444C486.799 -25.413 488.796 -34.5217 492.791 -40.3704C496.786 -46.2511 502.939 -49.1914 511.248 -49.1914C519.334 -49.1914 525.439 -46.1232 529.561 -39.9869C533.716 -33.8505 535.794 -24.8697 535.794 -13.0444ZM501.516 -13.0444C501.516 -4.44709 502.251 1.72123 503.722 5.46058C505.224 9.16796 507.733 11.0217 511.248 11.0217C514.7 11.0217 517.193 9.136 518.727 5.3647C520.261 1.59339 521.028 -4.54297 521.028 -13.0444C521.028 -21.6417 520.245 -27.81 518.679 -31.5494C517.145 -35.3207 514.668 -37.2063 511.248 -37.2063C507.765 -37.2063 505.272 -35.3207 503.77 -31.5494C502.267 -27.81 501.516 -21.6417 501.516 -13.0444ZM554.442 -27.0909C554.442 -23.032 554.794 -19.9957 555.497 -17.9822C556.232 -16.0007 557.399 -15.0099 558.997 -15.0099C562.065 -15.0099 563.599 -19.0369 563.599 -27.0909C563.599 -35.081 562.065 -39.076 558.997 -39.076C557.399 -39.076 556.232 -38.0852 555.497 -36.1037C554.794 -34.1541 554.442 -31.1499 554.442 -27.0909ZM575.68 -27.1868C575.68 -19.8359 574.258 -14.3068 571.413 -10.5994C568.569 -6.92401 564.398 -5.08629 558.901 -5.08629C553.627 -5.08629 549.553 -6.97195 546.676 -10.7433C543.8 -14.5465 542.361 -20.0277 542.361 -27.1868C542.361 -41.7926 547.875 -49.0955 558.901 -49.0955C564.302 -49.0955 568.441 -47.1939 571.317 -43.3906C574.226 -39.6193 575.68 -34.218 575.68 -27.1868ZM608.663 -48.0888L569.783 22H558.278L597.157 -48.0888H608.663ZM603.533 0.906247C603.533 4.9652 603.885 8.00142 604.588 10.0149C605.323 11.9964 606.49 12.9872 608.088 12.9872C611.156 12.9872 612.69 8.96022 612.69 0.906247C612.69 -7.08381 611.156 -11.0788 608.088 -11.0788C606.49 -11.0788 605.323 -10.0881 604.588 -8.10654C603.885 -6.15696 603.533 -3.1527 603.533 0.906247ZM624.771 0.810366C624.771 8.12926 623.349 13.6424 620.504 17.3498C617.66 21.0252 613.489 22.8629 607.992 22.8629C602.718 22.8629 598.643 20.9773 595.767 17.206C592.891 13.4027 591.452 7.9375 591.452 0.810366C591.452 -13.7955 596.966 -21.0984 607.992 -21.0984C613.393 -21.0984 617.532 -19.1967 620.408 -15.3935C623.317 -11.6222 624.771 -6.22088 624.771 0.810366Z" fill="white" fill-opacity="0.05"/>
<path d="M10.7184 182H-4.09517V141.442L-3.95135 134.779L-3.71165 127.492C-6.17258 129.953 -7.88245 131.567 -8.84126 132.334L-16.8952 138.806L-24.0383 129.889L-1.45845 111.911H10.7184V182ZM78.7937 146.956C78.7937 159.196 76.7802 168.257 72.7532 174.138C68.7582 180.018 62.5898 182.959 54.2482 182.959C46.1623 182.959 40.0579 179.923 35.935 173.85C31.8441 167.778 29.7986 158.813 29.7986 146.956C29.7986 134.587 31.7962 125.478 35.7912 119.63C39.7862 113.749 45.9386 110.809 54.2482 110.809C62.3342 110.809 68.4386 113.877 72.5614 120.013C76.7163 126.15 78.7937 135.13 78.7937 146.956ZM44.5163 146.956C44.5163 155.553 45.2514 161.721 46.7216 165.461C48.2237 169.168 50.7326 171.022 54.2482 171.022C57.6999 171.022 60.1928 169.136 61.7269 165.365C63.261 161.593 64.028 155.457 64.028 146.956C64.028 138.358 63.245 132.19 61.679 128.451C60.1449 124.679 57.668 122.794 54.2482 122.794C50.7646 122.794 48.2717 124.679 46.7695 128.451C45.2674 132.19 44.5163 138.358 44.5163 146.956ZM97.4425 132.909C97.4425 136.968 97.794 140.004 98.4971 142.018C99.2322 143.999 100.399 144.99 101.997 144.99C105.065 144.99 106.599 140.963 106.599 132.909C106.599 124.919 105.065 120.924 101.997 120.924C100.399 120.924 99.2322 121.915 98.4971 123.896C97.794 125.846 97.4425 128.85 97.4425 132.909ZM118.68 132.813C118.68 140.164 117.258 145.693 114.413 149.401C111.569 153.076 107.398 154.914 101.901 154.914C96.6275 154.914 92.5525 153.028 89.6761 149.257C86.7997 145.453 85.3615 139.972 85.3615 132.813C85.3615 118.207 90.8746 110.904 101.901 110.904C107.302 110.904 111.441 112.806 114.317 116.609C117.226 120.381 118.68 125.782 118.68 132.813ZM151.663 111.911L112.783 182H101.278L140.157 111.911H151.663ZM146.533 160.906C146.533 164.965 146.885 168.001 147.588 170.015C148.323 171.996 149.49 172.987 151.088 172.987C154.156 172.987 155.69 168.96 155.69 160.906C155.69 152.916 154.156 148.921 151.088 148.921C149.49 148.921 148.323 149.912 147.588 151.893C146.885 153.843 146.533 156.847 146.533 160.906ZM167.771 160.81C167.771 168.129 166.349 173.642 163.504 177.35C160.66 181.025 156.489 182.863 150.992 182.863C145.718 182.863 141.643 180.977 138.767 177.206C135.891 173.403 134.452 167.937 134.452 160.81C134.452 146.205 139.966 138.902 150.992 138.902C156.393 138.902 160.532 140.803 163.408 144.607C166.317 148.378 167.771 153.779 167.771 160.81Z" fill="white" fill-opacity="0.05"/>
<path d="M221.718 151H206.905V110.442L207.049 103.779L207.288 96.4918C204.827 98.9528 203.118 100.567 202.159 101.334L194.105 107.806L186.962 98.8889L209.542 80.9112H221.718V151ZM289.794 115.956C289.794 128.196 287.78 137.257 283.753 143.138C279.758 149.018 273.59 151.959 265.248 151.959C257.162 151.959 251.058 148.923 246.935 142.85C242.844 136.778 240.799 127.813 240.799 115.956C240.799 103.587 242.796 94.4783 246.791 88.6296C250.786 82.7489 256.939 79.8086 265.248 79.8086C273.334 79.8086 279.439 82.8768 283.561 89.0131C287.716 95.1495 289.794 104.13 289.794 115.956ZM255.516 115.956C255.516 124.553 256.251 130.721 257.722 134.461C259.224 138.168 261.733 140.022 265.248 140.022C268.7 140.022 271.193 138.136 272.727 134.365C274.261 130.593 275.028 124.457 275.028 115.956C275.028 107.358 274.245 101.19 272.679 97.4506C271.145 93.6793 268.668 91.7937 265.248 91.7937C261.765 91.7937 259.272 93.6793 257.77 97.4506C256.267 101.19 255.516 107.358 255.516 115.956ZM308.442 101.909C308.442 105.968 308.794 109.004 309.497 111.018C310.232 112.999 311.399 113.99 312.997 113.99C316.065 113.99 317.599 109.963 317.599 101.909C317.599 93.919 316.065 89.924 312.997 89.924C311.399 89.924 310.232 90.9148 309.497 92.8963C308.794 94.8459 308.442 97.8501 308.442 101.909ZM329.68 101.813C329.68 109.164 328.258 114.693 325.413 118.401C322.569 122.076 318.398 123.914 312.901 123.914C307.627 123.914 303.553 122.028 300.676 118.257C297.8 114.453 296.361 108.972 296.361 101.813C296.361 87.2074 301.875 79.9045 312.901 79.9045C318.302 79.9045 322.441 81.8061 325.317 85.6094C328.226 89.3807 329.68 94.782 329.68 101.813ZM362.663 80.9112L323.783 151H312.278L351.157 80.9112H362.663ZM357.533 129.906C357.533 133.965 357.885 137.001 358.588 139.015C359.323 140.996 360.49 141.987 362.088 141.987C365.156 141.987 366.69 137.96 366.69 129.906C366.69 121.916 365.156 117.921 362.088 117.921C360.49 117.921 359.323 118.912 358.588 120.893C357.885 122.843 357.533 125.847 357.533 129.906ZM378.771 129.81C378.771 137.129 377.349 142.642 374.504 146.35C371.66 150.025 367.489 151.863 361.992 151.863C356.718 151.863 352.643 149.977 349.767 146.206C346.891 142.403 345.452 136.937 345.452 129.81C345.452 115.205 350.966 107.902 361.992 107.902C367.393 107.902 371.532 109.803 374.408 113.607C377.317 117.378 378.771 122.779 378.771 129.81Z" fill="white" fill-opacity="0.05"/>
<path d="M432.718 120H417.905V79.4425L418.049 72.7788L418.288 65.4918C415.827 67.9528 414.118 69.5668 413.159 70.3338L405.105 76.8058L397.962 67.8889L420.542 49.9112H432.718V120ZM500.794 84.9556C500.794 97.1964 498.78 106.257 494.753 112.138C490.758 118.018 484.59 120.959 476.248 120.959C468.162 120.959 462.058 117.923 457.935 111.85C453.844 105.778 451.799 96.8129 451.799 84.9556C451.799 72.587 453.796 63.4783 457.791 57.6296C461.786 51.7489 467.939 48.8086 476.248 48.8086C484.334 48.8086 490.439 51.8768 494.561 58.0131C498.716 64.1495 500.794 73.1303 500.794 84.9556ZM466.516 84.9556C466.516 93.5529 467.251 99.7212 468.722 103.461C470.224 107.168 472.733 109.022 476.248 109.022C479.7 109.022 482.193 107.136 483.727 103.365C485.261 99.5934 486.028 93.457 486.028 84.9556C486.028 76.3583 485.245 70.19 483.679 66.4506C482.145 62.6793 479.668 60.7937 476.248 60.7937C472.765 60.7937 470.272 62.6793 468.77 66.4506C467.267 70.19 466.516 76.3583 466.516 84.9556ZM519.442 70.9091C519.442 74.968 519.794 78.0043 520.497 80.0178C521.232 81.9993 522.399 82.9901 523.997 82.9901C527.065 82.9901 528.599 78.9631 528.599 70.9091C528.599 62.919 527.065 58.924 523.997 58.924C522.399 58.924 521.232 59.9148 520.497 61.8963C519.794 63.8459 519.442 66.8501 519.442 70.9091ZM540.68 70.8132C540.68 78.1641 539.258 83.6932 536.413 87.4006C533.569 91.076 529.398 92.9137 523.901 92.9137C518.627 92.9137 514.553 91.0281 511.676 87.2567C508.8 83.4535 507.361 77.9723 507.361 70.8132C507.361 56.2074 512.875 48.9045 523.901 48.9045C529.302 48.9045 533.441 50.8061 536.317 54.6094C539.226 58.3807 540.68 63.782 540.68 70.8132ZM573.663 49.9112L534.783 120H523.278L562.157 49.9112H573.663ZM568.533 98.9062C568.533 102.965 568.885 106.001 569.588 108.015C570.323 109.996 571.49 110.987 573.088 110.987C576.156 110.987 577.69 106.96 577.69 98.9062C577.69 90.9162 576.156 86.9212 573.088 86.9212C571.49 86.9212 570.323 87.9119 569.588 89.8935C568.885 91.843 568.533 94.8473 568.533 98.9062ZM589.771 98.8104C589.771 106.129 588.349 111.642 585.504 115.35C582.66 119.025 578.489 120.863 572.992 120.863C567.718 120.863 563.643 118.977 560.767 115.206C557.891 111.403 556.452 105.937 556.452 98.8104C556.452 84.2045 561.966 76.9016 572.992 76.9016C578.393 76.9016 582.532 78.8033 585.408 82.6065C588.317 86.3778 589.771 91.7791 589.771 98.8104Z" fill="white" fill-opacity="0.05"/>
<path d="M186.718 249H171.905V208.442L172.049 201.779L172.288 194.492C169.827 196.953 168.118 198.567 167.159 199.334L159.105 205.806L151.962 196.889L174.542 178.911H186.718V249ZM254.794 213.956C254.794 226.196 252.78 235.257 248.753 241.138C244.758 247.018 238.59 249.959 230.248 249.959C222.162 249.959 216.058 246.923 211.935 240.85C207.844 234.778 205.799 225.813 205.799 213.956C205.799 201.587 207.796 192.478 211.791 186.63C215.786 180.749 221.939 177.809 230.248 177.809C238.334 177.809 244.439 180.877 248.561 187.013C252.716 193.15 254.794 202.13 254.794 213.956ZM220.516 213.956C220.516 222.553 221.251 228.721 222.722 232.461C224.224 236.168 226.733 238.022 230.248 238.022C233.7 238.022 236.193 236.136 237.727 232.365C239.261 228.593 240.028 222.457 240.028 213.956C240.028 205.358 239.245 199.19 237.679 195.451C236.145 191.679 233.668 189.794 230.248 189.794C226.765 189.794 224.272 191.679 222.77 195.451C221.267 199.19 220.516 205.358 220.516 213.956ZM273.442 199.909C273.442 203.968 273.794 207.004 274.497 209.018C275.232 210.999 276.399 211.99 277.997 211.99C281.065 211.99 282.599 207.963 282.599 199.909C282.599 191.919 281.065 187.924 277.997 187.924C276.399 187.924 275.232 188.915 274.497 190.896C273.794 192.846 273.442 195.85 273.442 199.909ZM294.68 199.813C294.68 207.164 293.258 212.693 290.413 216.401C287.569 220.076 283.398 221.914 277.901 221.914C272.627 221.914 268.553 220.028 265.676 216.257C262.8 212.453 261.361 206.972 261.361 199.813C261.361 185.207 266.875 177.904 277.901 177.904C283.302 177.904 287.441 179.806 290.317 183.609C293.226 187.381 294.68 192.782 294.68 199.813ZM327.663 178.911L288.783 249H277.278L316.157 178.911H327.663ZM322.533 227.906C322.533 231.965 322.885 235.001 323.588 237.015C324.323 238.996 325.49 239.987 327.088 239.987C330.156 239.987 331.69 235.96 331.69 227.906C331.69 219.916 330.156 215.921 327.088 215.921C325.49 215.921 324.323 216.912 323.588 218.893C322.885 220.843 322.533 223.847 322.533 227.906ZM343.771 227.81C343.771 235.129 342.349 240.642 339.504 244.35C336.66 248.025 332.489 249.863 326.992 249.863C321.718 249.863 317.643 247.977 314.767 244.206C311.891 240.403 310.452 234.937 310.452 227.81C310.452 213.205 315.966 205.902 326.992 205.902C332.393 205.902 336.532 207.803 339.408 211.607C342.317 215.378 343.771 220.779 343.771 227.81Z" fill="white" fill-opacity="0.05"/>
<path d="M397.718 218H382.905V177.442L383.049 170.779L383.288 163.492C380.827 165.953 379.118 167.567 378.159 168.334L370.105 174.806L362.962 165.889L385.542 147.911H397.718V218ZM465.794 182.956C465.794 195.196 463.78 204.257 459.753 210.138C455.758 216.018 449.59 218.959 441.248 218.959C433.162 218.959 427.058 215.923 422.935 209.85C418.844 203.778 416.799 194.813 416.799 182.956C416.799 170.587 418.796 161.478 422.791 155.63C426.786 149.749 432.939 146.809 441.248 146.809C449.334 146.809 455.439 149.877 459.561 156.013C463.716 162.15 465.794 171.13 465.794 182.956ZM431.516 182.956C431.516 191.553 432.251 197.721 433.722 201.461C435.224 205.168 437.733 207.022 441.248 207.022C444.7 207.022 447.193 205.136 448.727 201.365C450.261 197.593 451.028 191.457 451.028 182.956C451.028 174.358 450.245 168.19 448.679 164.451C447.145 160.679 444.668 158.794 441.248 158.794C437.765 158.794 435.272 160.679 433.77 164.451C432.267 168.19 431.516 174.358 431.516 182.956ZM484.442 168.909C484.442 172.968 484.794 176.004 485.497 178.018C486.232 179.999 487.399 180.99 488.997 180.99C492.065 180.99 493.599 176.963 493.599 168.909C493.599 160.919 492.065 156.924 488.997 156.924C487.399 156.924 486.232 157.915 485.497 159.896C484.794 161.846 484.442 164.85 484.442 168.909ZM505.68 168.813C505.68 176.164 504.258 181.693 501.413 185.401C498.569 189.076 494.398 190.914 488.901 190.914C483.627 190.914 479.553 189.028 476.676 185.257C473.8 181.453 472.361 175.972 472.361 168.813C472.361 154.207 477.875 146.904 488.901 146.904C494.302 146.904 498.441 148.806 501.317 152.609C504.226 156.381 505.68 161.782 505.68 168.813ZM538.663 147.911L499.783 218H488.278L527.157 147.911H538.663ZM533.533 196.906C533.533 200.965 533.885 204.001 534.588 206.015C535.323 207.996 536.49 208.987 538.088 208.987C541.156 208.987 542.69 204.96 542.69 196.906C542.69 188.916 541.156 184.921 538.088 184.921C536.49 184.921 535.323 185.912 534.588 187.893C533.885 189.843 533.533 192.847 533.533 196.906ZM554.771 196.81C554.771 204.129 553.349 209.642 550.504 213.35C547.66 217.025 543.489 218.863 537.992 218.863C532.718 218.863 528.643 216.977 525.767 213.206C522.891 209.403 521.452 203.937 521.452 196.81C521.452 182.205 526.966 174.902 537.992 174.902C543.393 174.902 547.532 176.803 550.408 180.607C553.317 184.378 554.771 189.779 554.771 196.81Z" fill="white" fill-opacity="0.05"/>
</g>
<path d="M26.4956 182.893V17.1074" stroke="#FFA1A1" stroke-width="2" stroke-miterlimit="10" stroke-linecap="round" stroke-dasharray="6 6"/>
<path d="M428.019 17.1074V182.893" stroke="#FFA1A1" stroke-width="2" stroke-miterlimit="10" stroke-linecap="round" stroke-dasharray="6 6"/>
<path d="M288.77 92C288.77 96.6302 289.171 100.094 289.973 102.391C290.812 104.651 292.142 105.781 293.965 105.781C297.465 105.781 299.215 101.188 299.215 92C299.215 82.8854 297.465 78.3281 293.965 78.3281C292.142 78.3281 290.812 79.4583 289.973 81.7188C289.171 83.9427 288.77 87.3698 288.77 92ZM312.997 91.8906C312.997 100.276 311.374 106.583 308.129 110.812C304.885 115.005 300.127 117.102 293.856 117.102C287.84 117.102 283.192 114.951 279.911 110.648C276.629 106.31 274.989 100.057 274.989 91.8906C274.989 75.2292 281.278 66.8984 293.856 66.8984C300.017 66.8984 304.739 69.0677 308.02 73.4062C311.338 77.7083 312.997 83.8698 312.997 91.8906ZM350.622 68.0469L306.27 148H293.145L337.497 68.0469H350.622ZM344.77 123.938C344.77 128.568 345.171 132.031 345.973 134.328C346.812 136.589 348.142 137.719 349.965 137.719C353.465 137.719 355.215 133.125 355.215 123.938C355.215 114.823 353.465 110.266 349.965 110.266C348.142 110.266 346.812 111.396 345.973 113.656C345.171 115.88 344.77 119.307 344.77 123.938ZM368.997 123.828C368.997 132.177 367.374 138.466 364.129 142.695C360.885 146.888 356.127 148.984 349.856 148.984C343.84 148.984 339.192 146.833 335.911 142.531C332.629 138.193 330.989 131.958 330.989 123.828C330.989 107.167 337.278 98.8359 349.856 98.8359C356.017 98.8359 360.739 101.005 364.02 105.344C367.338 109.646 368.997 115.807 368.997 123.828Z" fill="#FF5C00"/>
<path d="M149.103 166H124.406V98.381L124.645 87.271L125.045 75.122C120.942 79.225 118.091 81.9159 116.493 83.1947L103.065 93.985L91.1556 79.1184L128.802 49.1454H149.103V166ZM262.601 107.573C262.601 127.981 259.244 143.087 252.53 152.892C245.869 162.696 235.585 167.599 221.678 167.599C208.197 167.599 198.019 162.536 191.145 152.412C184.325 142.288 180.915 127.342 180.915 107.573C180.915 86.9513 184.245 71.765 190.906 62.0138C197.566 52.2093 207.824 47.3071 221.678 47.3071C235.159 47.3071 245.337 52.4225 252.21 62.6532C259.137 72.884 262.601 87.8572 262.601 107.573ZM205.453 107.573C205.453 121.906 206.678 132.191 209.129 138.425C211.634 144.606 215.817 147.697 221.678 147.697C227.433 147.697 231.589 144.553 234.147 138.265C236.704 131.977 237.983 121.747 237.983 107.573C237.983 93.239 236.678 82.9549 234.067 76.7206C231.509 70.4329 227.379 67.2891 221.678 67.2891C215.87 67.2891 211.714 70.4329 209.209 76.7206C206.705 82.9549 205.453 93.239 205.453 107.573Z" fill="#FF5C00"/>
<path d="M283.77 86C283.77 90.6302 284.171 94.0938 284.973 96.3906C285.812 98.651 287.142 99.7812 288.965 99.7812C292.465 99.7812 294.215 95.1875 294.215 86C294.215 76.8854 292.465 72.3281 288.965 72.3281C287.142 72.3281 285.812 73.4583 284.973 75.7188C284.171 77.9427 283.77 81.3698 283.77 86ZM307.997 85.8906C307.997 94.276 306.374 100.583 303.129 104.812C299.885 109.005 295.127 111.102 288.856 111.102C282.84 111.102 278.192 108.951 274.911 104.648C271.629 100.31 269.989 94.0573 269.989 85.8906C269.989 69.2292 276.278 60.8984 288.856 60.8984C295.017 60.8984 299.739 63.0677 303.02 67.4062C306.338 71.7083 307.997 77.8698 307.997 85.8906ZM345.622 62.0469L301.27 142H288.145L332.497 62.0469H345.622ZM339.77 117.938C339.77 122.568 340.171 126.031 340.973 128.328C341.812 130.589 343.142 131.719 344.965 131.719C348.465 131.719 350.215 127.125 350.215 117.938C350.215 108.823 348.465 104.266 344.965 104.266C343.142 104.266 341.812 105.396 340.973 107.656C340.171 109.88 339.77 113.307 339.77 117.938ZM363.997 117.828C363.997 126.177 362.374 132.466 359.129 136.695C355.885 140.888 351.127 142.984 344.856 142.984C338.84 142.984 334.192 140.833 330.911 136.531C327.629 132.193 325.989 125.958 325.989 117.828C325.989 101.167 332.278 92.8359 344.856 92.8359C351.017 92.8359 355.739 95.0052 359.02 99.3438C362.338 103.646 363.997 109.807 363.997 117.828Z" fill="#FFD701"/>
<path d="M144.103 160H119.406V92.381L119.645 81.271L120.045 69.122C115.942 73.225 113.091 75.9159 111.493 77.1947L98.0649 87.985L86.1556 73.1184L123.802 43.1454H144.103V160ZM257.601 101.573C257.601 121.981 254.244 137.087 247.53 146.892C240.869 156.696 230.585 161.599 216.678 161.599C203.197 161.599 193.019 156.536 186.145 146.412C179.325 136.288 175.915 121.342 175.915 101.573C175.915 80.9513 179.245 65.765 185.906 56.0138C192.566 46.2093 202.824 41.3071 216.678 41.3071C230.159 41.3071 240.337 46.4225 247.21 56.6532C254.137 66.884 257.601 81.8572 257.601 101.573ZM200.453 101.573C200.453 115.906 201.678 126.191 204.129 132.425C206.634 138.606 210.817 141.697 216.678 141.697C222.433 141.697 226.589 138.553 229.147 132.265C231.704 125.977 232.983 115.747 232.983 101.573C232.983 87.239 231.678 76.9549 229.067 70.7206C226.509 64.4329 222.379 61.2891 216.678 61.2891C210.87 61.2891 206.714 64.4329 204.209 70.7206C201.705 76.9549 200.453 87.239 200.453 101.573Z" fill="#FFD701"/>
<defs>
<linearGradient id="paint0_linear" x1="0.0208787" y1="2.02563e-05" x2="452.741" y2="200.282" gradientUnits="userSpaceOnUse">
<stop stop-color="#FF1C29"/>
<stop offset="1" stop-color="#B6000B"/>
</linearGradient>
<linearGradient id="paint1_linear" x1="0.0208787" y1="2.02563e-05" x2="452.741" y2="200.282" gradientUnits="userSpaceOnUse">
<stop stop-color="#FF1C29"/>
<stop offset="1" stop-color="#B6000B"/>
</linearGradient>
</defs>
</svg>
