<svg width="153" height="27" viewBox="0 0 153 27" fill="none" xmlns="http://www.w3.org/2000/svg">
<path d="M9.98633 2.65527C11.7637 2.65527 13.2676 3.05404 14.498 3.85156C14.4525 4.52376 14.2303 5.21875 13.8315 5.93652C13.4442 6.6429 12.9884 7.17269 12.4644 7.52588C11.8605 7.10433 11.1541 6.89355 10.3452 6.89355C8.89827 6.89355 8.1748 7.6626 8.1748 9.20068V9.40576H11.8149C11.9744 10.1805 12.0542 10.8926 12.0542 11.542C12.0542 12.2142 11.9744 12.9149 11.8149 13.644H8.1748V26C7.33171 26.1367 6.47721 26.2051 5.61133 26.2051C4.74544 26.2051 3.85677 26.1367 2.94531 26V13.644H0.774902C0.638184 13.0174 0.569824 12.3281 0.569824 11.5762C0.569824 10.7786 0.638184 10.0552 0.774902 9.40576H2.97949C3.09342 7.20687 3.78271 5.53206 5.04736 4.38135C6.31201 3.23063 7.95833 2.65527 9.98633 2.65527ZM20.8213 8.92725C23.362 8.92725 25.3558 9.514 26.8027 10.6875C28.2497 11.861 28.9731 13.701 28.9731 16.2075V24.9233C26.2843 26.0171 23.4873 26.564 20.582 26.564C18.1781 26.564 16.321 26.1025 15.0107 25.1797C13.7005 24.2568 13.0454 22.8953 13.0454 21.0952C13.0454 19.3862 13.7062 18.0817 15.0278 17.1816C16.3494 16.2702 18.104 15.8258 20.2915 15.8486C21.6929 15.8942 22.8607 16.0594 23.7949 16.3442V15.6777C23.7949 14.0485 22.6499 13.2282 20.3599 13.2168C18.6053 13.2168 17.1014 13.6953 15.8481 14.6523C14.5835 13.9574 13.8372 12.8522 13.6094 11.3369C14.2588 10.7559 15.2215 10.209 16.4976 9.69629C17.7736 9.18359 19.2148 8.92725 20.8213 8.92725ZM18.2578 20.8901C18.2578 21.5168 18.5142 22.0124 19.0269 22.377C19.5396 22.7415 20.2858 22.9238 21.2656 22.9238C22.0632 22.9238 22.9062 22.7928 23.7949 22.5308V19.4888C22.9062 19.2267 21.9492 19.1014 20.9238 19.1128C19.1465 19.1128 18.2578 19.7052 18.2578 20.8901ZM39.603 8.8418C41.1411 8.8418 42.4229 9.007 43.4482 9.3374C43.4027 11.1603 42.9128 12.6642 41.9785 13.8491C41.3975 13.6896 40.731 13.6099 39.979 13.6099C38.9308 13.6099 38.082 13.7751 37.4326 14.1055V26C36.5895 26.1367 35.7122 26.2051 34.8008 26.2051C33.9349 26.2051 33.069 26.1367 32.2031 26V11.4053C32.9209 10.7559 33.9235 10.1691 35.2109 9.64502C36.5098 9.10954 37.9738 8.8418 39.603 8.8418ZM50.3184 6.3125C49.7031 6.92773 48.9626 7.23535 48.0967 7.23535C47.2308 7.23535 46.4902 6.92773 45.875 6.3125C45.2598 5.69727 44.9521 4.95671 44.9521 4.09082C44.9521 3.22493 45.2598 2.49007 45.875 1.88623C46.4902 1.28239 47.2308 0.980469 48.0967 0.980469C48.9626 0.980469 49.7031 1.28239 50.3184 1.88623C50.945 2.49007 51.2583 3.22493 51.2583 4.09082C51.2583 4.95671 50.945 5.69727 50.3184 6.3125ZM48.0625 26.2051C47.2194 26.2051 46.3592 26.1367 45.4819 26V9.40576C46.1541 9.26904 47.0143 9.20068 48.0625 9.20068C49.0879 9.20068 49.9652 9.26904 50.6943 9.40576V26C49.8512 26.1367 48.974 26.2051 48.0625 26.2051ZM61.1875 8.92725C63.7282 8.92725 65.722 9.514 67.1689 10.6875C68.6159 11.861 69.3394 13.701 69.3394 16.2075V24.9233C66.6506 26.0171 63.8535 26.564 60.9482 26.564C58.5443 26.564 56.6872 26.1025 55.377 25.1797C54.0667 24.2568 53.4116 22.8953 53.4116 21.0952C53.4116 19.3862 54.0724 18.0817 55.394 17.1816C56.7157 16.2702 58.4702 15.8258 60.6577 15.8486C62.0591 15.8942 63.2269 16.0594 64.1611 16.3442V15.6777C64.1611 14.0485 63.0161 13.2282 60.7261 13.2168C58.9715 13.2168 57.4676 13.6953 56.2144 14.6523C54.9497 13.9574 54.2035 12.8522 53.9756 11.3369C54.625 10.7559 55.5877 10.209 56.8638 9.69629C58.1398 9.18359 59.5811 8.92725 61.1875 8.92725ZM58.624 20.8901C58.624 21.5168 58.8804 22.0124 59.3931 22.377C59.9058 22.7415 60.652 22.9238 61.6318 22.9238C62.4294 22.9238 63.2725 22.7928 64.1611 22.5308V19.4888C63.2725 19.2267 62.3154 19.1014 61.29 19.1128C59.5127 19.1128 58.624 19.7052 58.624 20.8901ZM79.0122 26.5981C77.3032 26.5981 75.8164 26.3874 74.5518 25.9658C73.2871 25.5443 72.3244 25.0544 71.6636 24.4961C71.9484 22.8441 72.6377 21.6763 73.7314 20.9927C75.5088 22.1092 77.3317 22.6675 79.2002 22.6675C80.6471 22.6675 81.3649 22.2288 81.3535 21.3516C81.3535 20.9072 81.0915 20.554 80.5674 20.292C80.0433 20.0186 79.109 19.7622 77.7646 19.5229C76.9671 19.3634 76.2835 19.1868 75.7139 18.9932C75.1442 18.7881 74.5575 18.4919 73.9536 18.1045C73.3612 17.7171 72.9111 17.2101 72.6035 16.5835C72.3073 15.9569 72.1592 15.1992 72.1592 14.3105C72.1592 12.6357 72.8371 11.3198 74.1929 10.3628C75.5601 9.40576 77.3203 8.92725 79.4736 8.92725C82.3675 8.92725 84.6177 9.43994 86.2241 10.4653C86.019 12.0946 85.4152 13.3079 84.4126 14.1055C82.9657 13.2852 81.3421 12.875 79.542 12.875C77.9355 12.875 77.1323 13.2738 77.1323 14.0713C77.1323 14.4928 77.3602 14.8062 77.8159 15.0112C78.2716 15.2163 79.1603 15.4499 80.4819 15.7119C82.396 16.0423 83.8828 16.5892 84.9424 17.3525C86.0133 18.1045 86.5488 19.3065 86.5488 20.9585C86.5488 22.7131 85.8937 24.0916 84.5835 25.0942C83.2733 26.0968 81.4162 26.5981 79.0122 26.5981ZM92.0859 26.6665C91.1973 26.6665 90.4282 26.3361 89.7788 25.6753C89.1294 25.0031 88.8047 24.2227 88.8047 23.334C88.8047 22.4225 89.1294 21.6421 89.7788 20.9927C90.4282 20.3433 91.1973 20.0186 92.0859 20.0186C92.9974 20.0186 93.7778 20.3433 94.4272 20.9927C95.0881 21.6421 95.4185 22.4225 95.4185 23.334C95.4185 24.2227 95.0881 25.0031 94.4272 25.6753C93.7778 26.3361 92.9974 26.6665 92.0859 26.6665ZM112.064 2.79199C113.112 2.79199 113.989 2.86035 114.696 2.99707V24.9575C112.497 26.0513 110.002 26.5981 107.21 26.5981C104.157 26.5981 101.776 25.8348 100.067 24.3081C98.3579 22.7814 97.5034 20.6167 97.5034 17.814C97.5034 15.1593 98.3921 13.0174 100.169 11.3882C101.947 9.74756 104.151 8.92725 106.783 8.92725C107.809 8.92725 108.709 9.02979 109.483 9.23486V2.99707C110.178 2.86035 111.039 2.79199 112.064 2.79199ZM107.022 22.1548C107.843 22.1548 108.663 22.0465 109.483 21.8301V13.8491C108.834 13.5187 108.042 13.3592 107.108 13.3706C105.843 13.3706 104.801 13.7694 103.98 14.5669C103.172 15.353 102.767 16.4126 102.767 17.7456C102.767 19.0672 103.16 20.1325 103.946 20.9414C104.732 21.7503 105.758 22.1548 107.022 22.1548ZM134.093 16.5493C134.093 17.4836 134.036 18.2982 133.922 18.9932H122.865C123.172 21.2604 124.534 22.394 126.949 22.394C128.487 22.394 130.122 21.8358 131.854 20.7192C132.948 21.5623 133.58 22.7415 133.751 24.2568C131.7 25.8177 129.251 26.5981 126.402 26.5981C123.771 26.5981 121.634 25.8234 119.994 24.2739C118.353 22.7131 117.533 20.5711 117.533 17.8481C117.533 15.2391 118.353 13.1029 119.994 11.4395C121.646 9.76465 123.719 8.92725 126.214 8.92725C128.573 8.92725 130.475 9.62223 131.922 11.0122C133.369 12.3908 134.093 14.2365 134.093 16.5493ZM122.865 16.0537H129.154C129.154 15.165 128.92 14.4245 128.453 13.832C127.986 13.2396 127.251 12.9206 126.249 12.875C125.269 12.875 124.488 13.1598 123.907 13.7295C123.326 14.2992 122.979 15.0739 122.865 16.0537ZM146.705 26C145.908 26.1595 145.053 26.2393 144.142 26.2393C143.242 26.2393 142.381 26.1595 141.561 26C139.977 23.5505 138.713 21.061 137.767 18.5317C136.821 16.0024 135.973 13.0345 135.221 9.62793C136.155 9.3431 137.408 9.20068 138.98 9.20068C139.698 9.20068 140.336 9.23486 140.895 9.30322C141.76 13.9972 142.797 17.9165 144.005 21.061C144.142 21.4142 144.216 21.682 144.227 21.8643H144.261C144.261 21.682 144.318 21.4142 144.432 21.061C145.503 18.2583 146.528 14.339 147.508 9.30322C148.089 9.23486 148.767 9.20068 149.542 9.20068C150.829 9.20068 151.974 9.3431 152.977 9.62793C151.462 16.179 149.371 21.6364 146.705 26Z" fill="#1D77FF"/>
</svg>
