<svg width="141" height="37" viewBox="0 0 141 37" fill="none" xmlns="http://www.w3.org/2000/svg">
<path d="M5.68945 17.3125L8.02734 14.3242L13.5293 8.34766H19.5762L11.7715 16.873L20.0508 28H13.8633L8.20312 20.0371L5.90039 21.8828V28H0.539062V0.648438H5.90039V12.8477L5.61914 17.3125H5.68945Z" fill="#FF1C29"/>
<path d="M22.6348 3.26758C22.6348 1.52148 23.6074 0.648438 25.5527 0.648438C27.498 0.648438 28.4707 1.52148 28.4707 3.26758C28.4707 4.09961 28.2246 4.75 27.7324 5.21875C27.252 5.67578 26.5254 5.9043 25.5527 5.9043C23.6074 5.9043 22.6348 5.02539 22.6348 3.26758ZM28.2246 28H22.8633V8.34766H28.2246V28ZM52.0078 28H46.6465V16.5215C46.6465 15.1035 46.3945 14.043 45.8906 13.3398C45.3867 12.625 44.584 12.2676 43.4824 12.2676C41.9824 12.2676 40.8984 12.7715 40.2305 13.7793C39.5625 14.7754 39.2285 16.4336 39.2285 18.7539V28H33.8672V8.34766H37.9629L38.6836 10.8613H38.9824C39.5801 9.91211 40.4004 9.19727 41.4434 8.7168C42.498 8.22461 43.6934 7.97852 45.0293 7.97852C47.3145 7.97852 49.0488 8.59961 50.2324 9.8418C51.416 11.0723 52.0078 12.8535 52.0078 15.1855V28ZM65.8066 24.0801C66.7441 24.0801 67.8691 23.875 69.1816 23.4648V27.4551C67.8457 28.0527 66.2051 28.3516 64.2598 28.3516C62.1152 28.3516 60.5508 27.8125 59.5664 26.7344C58.5938 25.6445 58.1074 24.0156 58.1074 21.8477V12.373H55.541V10.1055L58.4941 8.3125L60.041 4.16406H63.4688V8.34766H68.9707V12.373H63.4688V21.8477C63.4688 22.6094 63.6797 23.1719 64.1016 23.5352C64.5352 23.8984 65.1035 24.0801 65.8066 24.0801ZM86.8828 22.1641C86.8828 24.1797 86.1797 25.7148 84.7734 26.7695C83.3789 27.8242 81.2871 28.3516 78.498 28.3516C77.0684 28.3516 75.8496 28.252 74.8418 28.0527C73.834 27.8652 72.8906 27.584 72.0117 27.209V22.7793C73.0078 23.248 74.127 23.6406 75.3691 23.957C76.623 24.2734 77.7246 24.4316 78.6738 24.4316C80.6191 24.4316 81.5918 23.8691 81.5918 22.7441C81.5918 22.3223 81.4629 21.9824 81.2051 21.7246C80.9473 21.4551 80.502 21.1562 79.8691 20.8281C79.2363 20.4883 78.3926 20.0957 77.3379 19.6504C75.8262 19.0176 74.7129 18.4316 73.998 17.8926C73.2949 17.3535 72.7793 16.7383 72.4512 16.0469C72.1348 15.3438 71.9766 14.4824 71.9766 13.4629C71.9766 11.7168 72.6504 10.3691 73.998 9.41992C75.3574 8.45898 77.2793 7.97852 79.7637 7.97852C82.1309 7.97852 84.4336 8.49414 86.6719 9.52539L85.0547 13.3926C84.0703 12.9707 83.1504 12.625 82.2949 12.3555C81.4395 12.0859 80.5664 11.9512 79.6758 11.9512C78.0938 11.9512 77.3027 12.3789 77.3027 13.2344C77.3027 13.7148 77.5547 14.1309 78.0586 14.4824C78.5742 14.834 79.6934 15.3555 81.416 16.0469C82.9512 16.668 84.0762 17.248 84.791 17.7871C85.5059 18.3262 86.0332 18.9473 86.373 19.6504C86.7129 20.3535 86.8828 21.1914 86.8828 22.1641ZM104.988 28L104.268 25.4863H103.986C103.412 26.4004 102.598 27.1094 101.543 27.6133C100.488 28.1055 99.2871 28.3516 97.9395 28.3516C95.6309 28.3516 93.8906 27.7363 92.7188 26.5059C91.5469 25.2637 90.9609 23.4824 90.9609 21.1621V8.34766H96.3223V19.8262C96.3223 21.2441 96.5742 22.3105 97.0781 23.0254C97.582 23.7285 98.3848 24.0801 99.4863 24.0801C100.986 24.0801 102.07 23.582 102.738 22.5859C103.406 21.5781 103.74 19.9141 103.74 17.5938V8.34766H109.102V28H104.988ZM131.83 8.34766V11.0723L128.754 11.8633C129.316 12.7422 129.598 13.7266 129.598 14.8164C129.598 16.9258 128.859 18.5723 127.383 19.7559C125.918 20.9277 123.879 21.5137 121.266 21.5137L120.299 21.4609L119.508 21.373C118.957 21.7949 118.682 22.2637 118.682 22.7793C118.682 23.5527 119.666 23.9395 121.635 23.9395H124.975C127.131 23.9395 128.771 24.4023 129.896 25.3281C131.033 26.2539 131.602 27.6133 131.602 29.4062C131.602 31.7031 130.641 33.4844 128.719 34.75C126.809 36.0156 124.061 36.6484 120.475 36.6484C117.732 36.6484 115.635 36.168 114.182 35.207C112.74 34.2578 112.02 32.9219 112.02 31.1992C112.02 30.0156 112.389 29.0254 113.127 28.2285C113.865 27.4316 114.949 26.8633 116.379 26.5234C115.828 26.2891 115.348 25.9082 114.938 25.3809C114.527 24.8418 114.322 24.2734 114.322 23.6758C114.322 22.9258 114.539 22.3047 114.973 21.8125C115.406 21.3086 116.033 20.8164 116.854 20.3359C115.822 19.8906 115.002 19.1758 114.393 18.1914C113.795 17.207 113.496 16.0469 113.496 14.7109C113.496 12.5664 114.193 10.9082 115.588 9.73633C116.982 8.56445 118.975 7.97852 121.564 7.97852C122.115 7.97852 122.766 8.03125 123.516 8.13672C124.277 8.23047 124.764 8.30078 124.975 8.34766H131.83ZM116.66 30.7773C116.66 31.5156 117.012 32.0957 117.715 32.5176C118.43 32.9395 119.426 33.1504 120.703 33.1504C122.625 33.1504 124.131 32.8867 125.221 32.3594C126.311 31.832 126.855 31.1113 126.855 30.1973C126.855 29.459 126.533 28.9492 125.889 28.668C125.244 28.3867 124.248 28.2461 122.9 28.2461H120.123C119.139 28.2461 118.312 28.4746 117.645 28.9316C116.988 29.4004 116.66 30.0156 116.66 30.7773ZM118.611 14.7812C118.611 15.8477 118.852 16.6914 119.332 17.3125C119.824 17.9336 120.568 18.2441 121.564 18.2441C122.572 18.2441 123.311 17.9336 123.779 17.3125C124.248 16.6914 124.482 15.8477 124.482 14.7812C124.482 12.4141 123.51 11.2305 121.564 11.2305C119.596 11.2305 118.611 12.4141 118.611 14.7812ZM134.854 3.26758C134.854 1.52148 135.826 0.648438 137.771 0.648438C139.717 0.648438 140.689 1.52148 140.689 3.26758C140.689 4.09961 140.443 4.75 139.951 5.21875C139.471 5.67578 138.744 5.9043 137.771 5.9043C135.826 5.9043 134.854 5.02539 134.854 3.26758ZM140.443 28H135.082V8.34766H140.443V28Z" fill="black"/>
</svg>
