<svg width="453" height="200" viewBox="0 0 453 200" fill="none" xmlns="http://www.w3.org/2000/svg">
<path d="M445.71 169.822C445.71 168.905 445.891 167.996 446.242 167.149C446.594 166.302 447.109 165.532 447.758 164.884C448.407 164.236 449.177 163.722 450.025 163.372C450.873 163.022 451.782 162.842 452.699 162.844V148.876C451.75 148.926 450.802 148.783 449.91 148.454C449.019 148.126 448.204 147.619 447.515 146.965C446.826 146.311 446.278 145.523 445.904 144.65C445.53 143.777 445.338 142.836 445.339 141.886C445.34 140.936 445.535 139.997 445.912 139.125C446.289 138.253 446.84 137.467 447.53 136.815C448.221 136.163 449.038 135.658 449.93 135.332C450.822 135.006 451.771 134.866 452.72 134.919V120.941C450.869 120.941 449.094 120.206 447.785 118.897C446.477 117.588 445.741 115.813 445.741 113.962C445.741 112.112 446.477 110.336 447.785 109.028C449.094 107.719 450.869 106.984 452.72 106.984V93.0162C451.78 93.0525 450.843 92.8988 449.964 92.5642C449.085 92.2296 448.282 91.721 447.604 91.0689C446.927 90.4168 446.387 89.6347 446.019 88.7692C445.651 87.9038 445.461 86.973 445.461 86.0324C445.461 85.0919 445.651 84.161 446.019 83.2956C446.387 82.4302 446.927 81.648 447.604 80.9959C448.282 80.3438 449.085 79.8353 449.964 79.5007C450.843 79.1661 451.78 79.0123 452.72 79.0487V65.0811C451.803 65.0811 450.896 64.9006 450.049 64.5499C449.203 64.1992 448.433 63.6851 447.785 63.0371C447.137 62.3891 446.623 61.6198 446.273 60.7731C445.922 59.9264 445.741 59.019 445.741 58.1025C445.741 57.1861 445.922 56.2786 446.273 55.432C446.623 54.5853 447.137 53.816 447.785 53.1679C448.433 52.5199 449.203 52.0059 450.049 51.6552C450.896 51.3045 451.803 51.124 452.72 51.124V37.1564C451.78 37.1927 450.843 37.039 449.964 36.7044C449.085 36.3698 448.282 35.8612 447.604 35.2091C446.927 34.5571 446.387 33.7749 446.019 32.9094C445.651 32.044 445.461 31.1132 445.461 30.1726C445.461 29.2321 445.651 28.3012 446.019 27.4358C446.387 26.5704 446.927 25.7882 447.604 25.1361C448.282 24.484 449.085 23.9755 449.964 23.6409C450.843 23.3063 451.78 23.1525 452.72 23.1889V16.1477C448.436 16.1477 444.328 14.4468 441.298 11.4188C438.268 8.39079 436.565 4.2836 436.562 0H16.1686C16.1686 2.1223 15.7502 4.22379 14.9374 6.18428C14.1246 8.14477 12.9333 9.9258 11.4316 11.4255C9.92998 12.9253 8.1474 14.1143 6.18587 14.9245C4.22433 15.7348 2.1223 16.1504 0 16.1477V23.1889C1.80551 23.2586 3.51382 24.025 4.76655 25.3271C6.01927 26.6291 6.71904 28.3658 6.71904 30.1726C6.71904 31.9795 6.01927 33.7161 4.76655 35.0182C3.51382 36.3203 1.80551 37.0866 0 37.1564V51.124C1.85083 51.124 3.62586 51.8592 4.93459 53.1679C6.24332 54.4767 6.97856 56.2517 6.97856 58.1025C6.97856 59.9534 6.24332 61.7284 4.93459 63.0371C3.62586 64.3459 1.85083 65.0811 0 65.0811V79.0487C1.80551 79.1184 3.51382 79.8848 4.76655 81.1868C6.01927 82.4889 6.71904 84.2256 6.71904 86.0324C6.71904 87.8393 6.01927 89.5759 4.76655 90.878C3.51382 92.1801 1.80551 92.9464 0 93.0162V106.984C1.85083 106.984 3.62586 107.719 4.93459 109.028C6.24332 110.336 6.97856 112.112 6.97856 113.962C6.97856 115.813 6.24332 117.588 4.93459 118.897C3.62586 120.206 1.85083 120.941 0 120.941V134.919C1.80551 134.989 3.51382 135.755 4.76655 137.057C6.01927 138.359 6.71904 140.096 6.71904 141.903C6.71904 143.71 6.01927 145.446 4.76655 146.748C3.51382 148.05 1.80551 148.817 0 148.886V162.854C0.916438 162.854 1.8239 163.035 2.67058 163.385C3.51726 163.736 4.28657 164.25 4.93459 164.898C5.58261 165.546 6.09665 166.315 6.44735 167.162C6.79806 168.009 6.97857 168.916 6.97857 169.833C6.97857 170.749 6.79806 171.656 6.44735 172.503C6.09665 173.35 5.58261 174.119 4.93459 174.767C4.28657 175.415 3.51726 175.929 2.67058 176.28C1.8239 176.631 0.916438 176.811 0 176.811V183.852C2.12192 183.851 4.22333 184.267 6.18425 185.078C8.14517 185.889 9.92719 187.078 11.4286 188.578C12.93 190.077 14.1213 191.857 14.9346 193.817C15.7479 195.777 16.1672 197.878 16.1686 200H436.551C436.554 195.714 438.259 191.604 441.291 188.574C444.323 185.544 448.434 183.842 452.72 183.842V176.801C451.801 176.805 450.89 176.627 450.04 176.278C449.189 175.93 448.416 175.416 447.765 174.768C447.114 174.119 446.597 173.349 446.244 172.5C445.892 171.651 445.71 170.741 445.71 169.822Z" fill="url(#paint0_linear)"/>
<mask id="mask0" mask-type="alpha" maskUnits="userSpaceOnUse" x="0" y="0" width="453" height="200">
<path d="M445.71 169.822C445.71 168.905 445.891 167.996 446.242 167.149C446.594 166.302 447.109 165.532 447.758 164.884C448.407 164.236 449.177 163.722 450.025 163.372C450.873 163.022 451.782 162.842 452.699 162.844V148.876C451.75 148.926 450.802 148.783 449.91 148.454C449.019 148.126 448.204 147.619 447.515 146.965C446.826 146.311 446.278 145.523 445.904 144.65C445.53 143.777 445.338 142.836 445.339 141.886C445.34 140.936 445.535 139.997 445.912 139.125C446.289 138.253 446.84 137.467 447.53 136.815C448.221 136.163 449.038 135.658 449.93 135.332C450.822 135.006 451.771 134.866 452.72 134.919V120.941C450.869 120.941 449.094 120.206 447.785 118.897C446.477 117.588 445.741 115.813 445.741 113.962C445.741 112.112 446.477 110.336 447.785 109.028C449.094 107.719 450.869 106.984 452.72 106.984V93.0162C451.78 93.0525 450.843 92.8988 449.964 92.5642C449.085 92.2296 448.282 91.721 447.604 91.0689C446.927 90.4168 446.387 89.6347 446.019 88.7692C445.651 87.9038 445.461 86.973 445.461 86.0324C445.461 85.0919 445.651 84.161 446.019 83.2956C446.387 82.4302 446.927 81.648 447.604 80.9959C448.282 80.3438 449.085 79.8353 449.964 79.5007C450.843 79.1661 451.78 79.0123 452.72 79.0487V65.0811C451.803 65.0811 450.896 64.9006 450.049 64.5499C449.203 64.1992 448.433 63.6851 447.785 63.0371C447.137 62.3891 446.623 61.6198 446.273 60.7731C445.922 59.9264 445.741 59.019 445.741 58.1025C445.741 57.1861 445.922 56.2786 446.273 55.432C446.623 54.5853 447.137 53.816 447.785 53.1679C448.433 52.5199 449.203 52.0059 450.049 51.6552C450.896 51.3045 451.803 51.124 452.72 51.124V37.1564C451.78 37.1927 450.843 37.039 449.964 36.7044C449.085 36.3698 448.282 35.8612 447.604 35.2091C446.927 34.5571 446.387 33.7749 446.019 32.9094C445.651 32.044 445.461 31.1132 445.461 30.1726C445.461 29.2321 445.651 28.3012 446.019 27.4358C446.387 26.5704 446.927 25.7882 447.604 25.1361C448.282 24.484 449.085 23.9755 449.964 23.6409C450.843 23.3063 451.78 23.1525 452.72 23.1889V16.1477C448.436 16.1477 444.328 14.4468 441.298 11.4188C438.268 8.39079 436.565 4.2836 436.562 0H16.1686C16.1686 2.1223 15.7502 4.22379 14.9374 6.18428C14.1246 8.14477 12.9333 9.9258 11.4316 11.4255C9.92998 12.9253 8.1474 14.1143 6.18587 14.9245C4.22433 15.7348 2.1223 16.1504 0 16.1477V23.1889C1.80551 23.2586 3.51382 24.025 4.76655 25.3271C6.01927 26.6291 6.71904 28.3658 6.71904 30.1726C6.71904 31.9795 6.01927 33.7161 4.76655 35.0182C3.51382 36.3203 1.80551 37.0866 0 37.1564V51.124C1.85083 51.124 3.62586 51.8592 4.93459 53.1679C6.24332 54.4767 6.97856 56.2517 6.97856 58.1025C6.97856 59.9534 6.24332 61.7284 4.93459 63.0371C3.62586 64.3459 1.85083 65.0811 0 65.0811V79.0487C1.80551 79.1184 3.51382 79.8848 4.76655 81.1868C6.01927 82.4889 6.71904 84.2256 6.71904 86.0324C6.71904 87.8393 6.01927 89.5759 4.76655 90.878C3.51382 92.1801 1.80551 92.9464 0 93.0162V106.984C1.85083 106.984 3.62586 107.719 4.93459 109.028C6.24332 110.336 6.97856 112.112 6.97856 113.962C6.97856 115.813 6.24332 117.588 4.93459 118.897C3.62586 120.206 1.85083 120.941 0 120.941V134.919C1.80551 134.989 3.51382 135.755 4.76655 137.057C6.01927 138.359 6.71904 140.096 6.71904 141.903C6.71904 143.71 6.01927 145.446 4.76655 146.748C3.51382 148.05 1.80551 148.817 0 148.886V162.854C0.916438 162.854 1.8239 163.035 2.67058 163.385C3.51726 163.736 4.28657 164.25 4.93459 164.898C5.58261 165.546 6.09665 166.315 6.44735 167.162C6.79806 168.009 6.97857 168.916 6.97857 169.833C6.97857 170.749 6.79806 171.656 6.44735 172.503C6.09665 173.35 5.58261 174.119 4.93459 174.767C4.28657 175.415 3.51726 175.929 2.67058 176.28C1.8239 176.631 0.916438 176.811 0 176.811V183.852C2.12192 183.851 4.22333 184.267 6.18425 185.078C8.14517 185.889 9.92719 187.078 11.4286 188.578C12.93 190.077 14.1213 191.857 14.9346 193.817C15.7479 195.777 16.1672 197.878 16.1686 200H436.551C436.554 195.714 438.259 191.604 441.291 188.574C444.323 185.544 448.434 183.842 452.72 183.842V176.801C451.801 176.805 450.89 176.627 450.04 176.278C449.189 175.93 448.416 175.416 447.765 174.768C447.114 174.119 446.597 173.349 446.244 172.5C445.892 171.651 445.71 170.741 445.71 169.822Z" fill="url(#paint1_linear)"/>
</mask>
<g mask="url(#mask0)">
<path d="M36.7977 198.224C43.5733 198.224 48.9586 200.125 52.9536 203.929C56.9806 207.732 58.9941 212.941 58.9941 219.557C58.9941 227.387 56.5811 233.412 51.7551 237.631C46.9291 241.849 40.0257 243.959 31.0449 243.959C23.2466 243.959 16.9504 242.696 12.1564 240.172V227.371C14.6812 228.714 17.6216 229.816 20.9774 230.679C24.3332 231.51 27.5133 231.926 30.5175 231.926C39.5623 231.926 44.0846 228.218 44.0846 220.804C44.0846 213.74 39.4025 210.209 30.0381 210.209C28.3442 210.209 26.4746 210.385 24.4291 210.736C22.3837 211.056 20.7217 211.407 19.4433 211.791L13.5467 208.627L16.1834 172.911H54.2001V185.472H29.1752L27.8808 199.23L29.5587 198.895C31.5083 198.447 33.9213 198.224 36.7977 198.224ZM78.5538 193.909C78.5538 197.968 78.9053 201.004 79.6084 203.018C80.3435 204.999 81.5101 205.99 83.1081 205.99C86.1763 205.99 87.7104 201.963 87.7104 193.909C87.7104 185.919 86.1763 181.924 83.1081 181.924C81.5101 181.924 80.3435 182.915 79.6084 184.896C78.9053 186.846 78.5538 189.85 78.5538 193.909ZM99.7913 193.813C99.7913 201.164 98.3691 206.693 95.5246 210.401C92.6802 214.076 88.5094 215.914 83.0122 215.914C77.7388 215.914 73.6638 214.028 70.7874 210.257C67.911 206.453 66.4728 200.972 66.4728 193.813C66.4728 179.207 71.9859 171.904 83.0122 171.904C88.4135 171.904 92.5523 173.806 95.4287 177.609C98.3371 181.381 99.7913 186.782 99.7913 193.813ZM132.774 172.911L93.8947 243H82.389L121.269 172.911H132.774ZM127.645 221.906C127.645 225.965 127.996 229.001 128.699 231.015C129.434 232.996 130.601 233.987 132.199 233.987C135.267 233.987 136.801 229.96 136.801 221.906C136.801 213.916 135.267 209.921 132.199 209.921C130.601 209.921 129.434 210.912 128.699 212.893C127.996 214.843 127.645 217.847 127.645 221.906ZM148.882 221.81C148.882 229.129 147.46 234.642 144.616 238.35C141.771 242.025 137.6 243.863 132.103 243.863C126.83 243.863 122.755 241.977 119.878 238.206C117.002 234.403 115.564 228.938 115.564 221.81C115.564 207.205 121.077 199.902 132.103 199.902C137.504 199.902 141.643 201.803 144.52 205.607C147.428 209.378 148.882 214.779 148.882 221.81Z" fill="white" fill-opacity="0.05"/>
<path d="M24.7977 111.224C31.5733 111.224 36.9586 113.125 40.9536 116.929C44.9806 120.732 46.9941 125.941 46.9941 132.557C46.9941 140.387 44.5811 146.412 39.7551 150.631C34.9291 154.849 28.0257 156.959 19.0449 156.959C11.2466 156.959 4.95042 155.696 0.156384 153.172V140.371C2.68124 141.714 5.62158 142.816 8.97741 143.679C12.3332 144.51 15.5133 144.926 18.5175 144.926C27.5623 144.926 32.0846 141.218 32.0846 133.804C32.0846 126.74 27.4025 123.209 18.0381 123.209C16.3442 123.209 14.4746 123.385 12.4291 123.736C10.3837 124.056 8.72172 124.407 7.44332 124.791L1.54665 121.627L4.18337 85.9112H42.2001V98.4716H17.1752L15.8808 112.23L17.5587 111.895C19.5083 111.447 21.9213 111.224 24.7977 111.224ZM66.5538 106.909C66.5538 110.968 66.9053 114.004 67.6084 116.018C68.3435 117.999 69.5101 118.99 71.1081 118.99C74.1763 118.99 75.7104 114.963 75.7104 106.909C75.7104 98.919 74.1763 94.924 71.1081 94.924C69.5101 94.924 68.3435 95.9148 67.6084 97.8963C66.9053 99.8459 66.5538 102.85 66.5538 106.909ZM87.7913 106.813C87.7913 114.164 86.3691 119.693 83.5246 123.401C80.6802 127.076 76.5094 128.914 71.0122 128.914C65.7388 128.914 61.6638 127.028 58.7874 123.257C55.911 119.453 54.4728 113.972 54.4728 106.813C54.4728 92.2074 59.9859 84.9045 71.0122 84.9045C76.4135 84.9045 80.5523 86.8061 83.4287 90.6094C86.3371 94.3807 87.7913 99.782 87.7913 106.813ZM120.774 85.9112L81.8947 156H70.389L109.269 85.9112H120.774ZM115.645 134.906C115.645 138.965 115.996 142.001 116.699 144.015C117.434 145.996 118.601 146.987 120.199 146.987C123.267 146.987 124.801 142.96 124.801 134.906C124.801 126.916 123.267 122.921 120.199 122.921C118.601 122.921 117.434 123.912 116.699 125.893C115.996 127.843 115.645 130.847 115.645 134.906ZM136.882 134.81C136.882 142.129 135.46 147.642 132.616 151.35C129.771 155.025 125.6 156.863 120.103 156.863C114.83 156.863 110.755 154.977 107.878 151.206C105.002 147.403 103.564 141.938 103.564 134.81C103.564 120.205 109.077 112.902 120.103 112.902C125.504 112.902 129.643 114.803 132.52 118.607C135.428 122.378 136.882 127.779 136.882 134.81Z" fill="white" fill-opacity="0.05"/>
<path d="M12.7977 24.2237C19.5733 24.2237 24.9586 26.1254 28.9536 29.9286C32.9806 33.7319 34.9941 38.9414 34.9941 45.5572C34.9941 53.3874 32.5811 59.4119 27.7551 63.6307C22.9291 67.8494 16.0257 69.9588 7.04488 69.9588C-0.753418 69.9588 -7.04958 68.6964 -11.8436 66.1715V53.3715C-9.31876 54.7138 -6.37842 55.8164 -3.02259 56.6793C0.333229 57.5103 3.51327 57.9258 6.51753 57.9258C15.5623 57.9258 20.0846 54.2184 20.0846 46.8036C20.0846 39.7404 15.4025 36.2088 6.03813 36.2088C4.34424 36.2088 2.47456 36.3846 0.42911 36.7362C-1.61634 37.0558 -3.27828 37.4073 -4.55668 37.7908L-10.4533 34.6268L-7.81663 -1.08877H30.2001V11.4716H5.1752L3.88081 25.2305L5.55873 24.8949C7.5083 24.4474 9.9213 24.2237 12.7977 24.2237ZM54.5538 19.9091C54.5538 23.968 54.9053 27.0043 55.6084 29.0178C56.3435 30.9993 57.5101 31.9901 59.1081 31.9901C62.1763 31.9901 63.7104 27.9631 63.7104 19.9091C63.7104 11.919 62.1763 7.92401 59.1081 7.92401C57.5101 7.92401 56.3435 8.91478 55.6084 10.8963C54.9053 12.8459 54.5538 15.8501 54.5538 19.9091ZM75.7913 19.8132C75.7913 27.1641 74.3691 32.6932 71.5246 36.4006C68.6802 40.076 64.5094 41.9137 59.0122 41.9137C53.7388 41.9137 49.6638 40.0281 46.7874 36.2568C43.911 32.4535 42.4728 26.9723 42.4728 19.8132C42.4728 5.20739 47.9859 -2.09552 59.0122 -2.09552C64.4135 -2.09552 68.5523 -0.193885 71.4287 3.60938C74.3371 7.38069 75.7913 12.782 75.7913 19.8132ZM108.774 -1.08877L69.8947 69H58.389L97.2686 -1.08877H108.774ZM103.645 47.9063C103.645 51.9652 103.996 55.0014 104.699 57.0149C105.434 58.9964 106.601 59.9872 108.199 59.9872C111.267 59.9872 112.801 55.9602 112.801 47.9063C112.801 39.9162 111.267 35.9212 108.199 35.9212C106.601 35.9212 105.434 36.9119 104.699 38.8935C103.996 40.843 103.645 43.8473 103.645 47.9063ZM124.882 47.8104C124.882 55.1293 123.46 60.6424 120.616 64.3498C117.771 68.0252 113.6 69.8629 108.103 69.8629C102.83 69.8629 98.7547 67.9773 95.8783 64.206C93.0019 60.4027 91.5637 54.9375 91.5637 47.8104C91.5637 33.2045 97.0768 25.9016 108.103 25.9016C113.504 25.9016 117.643 27.8033 120.52 31.6065C123.428 35.3778 124.882 40.7791 124.882 47.8104Z" fill="white" fill-opacity="0.05"/>
<path d="M201.798 169.224C208.573 169.224 213.959 171.125 217.954 174.929C221.981 178.732 223.994 183.941 223.994 190.557C223.994 198.387 221.581 204.412 216.755 208.631C211.929 212.849 205.026 214.959 196.045 214.959C188.247 214.959 181.95 213.696 177.156 211.172V198.371C179.681 199.714 182.622 200.816 185.977 201.679C189.333 202.51 192.513 202.926 195.518 202.926C204.562 202.926 209.085 199.218 209.085 191.804C209.085 184.74 204.402 181.209 195.038 181.209C193.344 181.209 191.475 181.385 189.429 181.736C187.384 182.056 185.722 182.407 184.443 182.791L178.547 179.627L181.183 143.911H219.2V156.472H194.175L192.881 170.23L194.559 169.895C196.508 169.447 198.921 169.224 201.798 169.224ZM243.554 164.909C243.554 168.968 243.905 172.004 244.608 174.018C245.344 175.999 246.51 176.99 248.108 176.99C251.176 176.99 252.71 172.963 252.71 164.909C252.71 156.919 251.176 152.924 248.108 152.924C246.51 152.924 245.344 153.915 244.608 155.896C243.905 157.846 243.554 160.85 243.554 164.909ZM264.791 164.813C264.791 172.164 263.369 177.693 260.525 181.401C257.68 185.076 253.509 186.914 248.012 186.914C242.739 186.914 238.664 185.028 235.787 181.257C232.911 177.453 231.473 171.972 231.473 164.813C231.473 150.207 236.986 142.904 248.012 142.904C253.413 142.904 257.552 144.806 260.429 148.609C263.337 152.381 264.791 157.782 264.791 164.813ZM297.774 143.911L258.895 214H247.389L286.269 143.911H297.774ZM292.645 192.906C292.645 196.965 292.996 200.001 293.699 202.015C294.434 203.996 295.601 204.987 297.199 204.987C300.267 204.987 301.801 200.96 301.801 192.906C301.801 184.916 300.267 180.921 297.199 180.921C295.601 180.921 294.434 181.912 293.699 183.893C292.996 185.843 292.645 188.847 292.645 192.906ZM313.882 192.81C313.882 200.129 312.46 205.642 309.616 209.35C306.771 213.025 302.6 214.863 297.103 214.863C291.83 214.863 287.755 212.977 284.878 209.206C282.002 205.403 280.564 199.938 280.564 192.81C280.564 178.205 286.077 170.902 297.103 170.902C302.504 170.902 306.643 172.803 309.52 176.607C312.428 180.378 313.882 185.779 313.882 192.81Z" fill="white" fill-opacity="0.05"/>
<path d="M189.798 82.2237C196.573 82.2237 201.959 84.1254 205.954 87.9286C209.981 91.7319 211.994 96.9414 211.994 103.557C211.994 111.387 209.581 117.412 204.755 121.631C199.929 125.849 193.026 127.959 184.045 127.959C176.247 127.959 169.95 126.696 165.156 124.172V111.371C167.681 112.714 170.622 113.816 173.977 114.679C177.333 115.51 180.513 115.926 183.518 115.926C192.562 115.926 197.085 112.218 197.085 104.804C197.085 97.7404 192.402 94.2088 183.038 94.2088C181.344 94.2088 179.475 94.3846 177.429 94.7362C175.384 95.0558 173.722 95.4073 172.443 95.7908L166.547 92.6268L169.183 56.9112H207.2V69.4716H182.175L180.881 83.2305L182.559 82.8949C184.508 82.4474 186.921 82.2237 189.798 82.2237ZM231.554 77.9091C231.554 81.968 231.905 85.0043 232.608 87.0178C233.344 88.9993 234.51 89.9901 236.108 89.9901C239.176 89.9901 240.71 85.9631 240.71 77.9091C240.71 69.919 239.176 65.924 236.108 65.924C234.51 65.924 233.344 66.9148 232.608 68.8963C231.905 70.8459 231.554 73.8501 231.554 77.9091ZM252.791 77.8132C252.791 85.1641 251.369 90.6932 248.525 94.4006C245.68 98.076 241.509 99.9137 236.012 99.9137C230.739 99.9137 226.664 98.0281 223.787 94.2568C220.911 90.4535 219.473 84.9723 219.473 77.8132C219.473 63.2074 224.986 55.9045 236.012 55.9045C241.413 55.9045 245.552 57.8061 248.429 61.6094C251.337 65.3807 252.791 70.782 252.791 77.8132ZM285.774 56.9112L246.895 127H235.389L274.269 56.9112H285.774ZM280.645 105.906C280.645 109.965 280.996 113.001 281.699 115.015C282.434 116.996 283.601 117.987 285.199 117.987C288.267 117.987 289.801 113.96 289.801 105.906C289.801 97.9162 288.267 93.9212 285.199 93.9212C283.601 93.9212 282.434 94.9119 281.699 96.8935C280.996 98.843 280.645 101.847 280.645 105.906ZM301.882 105.81C301.882 113.129 300.46 118.642 297.616 122.35C294.771 126.025 290.6 127.863 285.103 127.863C279.83 127.863 275.755 125.977 272.878 122.206C270.002 118.403 268.564 112.938 268.564 105.81C268.564 91.2045 274.077 83.9016 285.103 83.9016C290.504 83.9016 294.643 85.8033 297.52 89.6065C300.428 93.3778 301.882 98.7791 301.882 105.81Z" fill="white" fill-opacity="0.05"/>
<path d="M177.798 -4.77627C184.573 -4.77627 189.959 -2.87464 193.954 0.928626C197.981 4.73189 199.994 9.94141 199.994 16.5572C199.994 24.3874 197.581 30.4119 192.755 34.6307C187.929 38.8494 181.026 40.9588 172.045 40.9588C164.247 40.9588 157.95 39.6964 153.156 37.1715V24.3715C155.681 25.7138 158.622 26.8164 161.977 27.6793C165.333 28.5103 168.513 28.9258 171.518 28.9258C180.562 28.9258 185.085 25.2184 185.085 17.8036C185.085 10.7404 180.402 7.20881 171.038 7.20881C169.344 7.20881 167.475 7.38459 165.429 7.73615C163.384 8.05576 161.722 8.40732 160.443 8.79084L154.547 5.62678L157.183 -30.0888H195.2V-17.5284H170.175L168.881 -3.76953L170.559 -4.10511C172.508 -4.55255 174.921 -4.77627 177.798 -4.77627ZM219.554 -9.0909C219.554 -5.03196 219.905 -1.99573 220.608 0.0177596C221.344 1.99929 222.51 2.99006 224.108 2.99006C227.176 2.99006 228.71 -1.03693 228.71 -9.0909C228.71 -17.081 227.176 -21.076 224.108 -21.076C222.51 -21.076 221.344 -20.0852 220.608 -18.1037C219.905 -16.1541 219.554 -13.1499 219.554 -9.0909ZM240.791 -9.18678C240.791 -1.83593 239.369 3.69319 236.525 7.40057C233.68 11.076 229.509 12.9137 224.012 12.9137C218.739 12.9137 214.664 11.0281 211.787 7.25675C208.911 3.45348 207.473 -2.02769 207.473 -9.18678C207.473 -23.7926 212.986 -31.0955 224.012 -31.0955C229.413 -31.0955 233.552 -29.1939 236.429 -25.3906C239.337 -21.6193 240.791 -16.218 240.791 -9.18678ZM273.774 -30.0888L234.895 40H223.389L262.269 -30.0888H273.774ZM268.645 18.9063C268.645 22.9652 268.996 26.0014 269.699 28.0149C270.434 29.9964 271.601 30.9872 273.199 30.9872C276.267 30.9872 277.801 26.9602 277.801 18.9063C277.801 10.9162 276.267 6.92117 273.199 6.92117C271.601 6.92117 270.434 7.91193 269.699 9.89347C268.996 11.843 268.645 14.8473 268.645 18.9063ZM289.882 18.8104C289.882 26.1293 288.46 31.6424 285.616 35.3498C282.771 39.0252 278.6 40.8629 273.103 40.8629C267.83 40.8629 263.755 38.9773 260.878 35.206C258.002 31.4027 256.564 25.9375 256.564 18.8104C256.564 4.20455 262.077 -3.09836 273.103 -3.09836C278.504 -3.09836 282.643 -1.19673 285.52 2.60654C288.428 6.37784 289.882 11.7791 289.882 18.8104Z" fill="white" fill-opacity="0.05"/>
<path d="M366.798 140.224C373.573 140.224 378.959 142.125 382.954 145.929C386.981 149.732 388.994 154.941 388.994 161.557C388.994 169.387 386.581 175.412 381.755 179.631C376.929 183.849 370.026 185.959 361.045 185.959C353.247 185.959 346.95 184.696 342.156 182.172V169.371C344.681 170.714 347.622 171.816 350.977 172.679C354.333 173.51 357.513 173.926 360.518 173.926C369.562 173.926 374.085 170.218 374.085 162.804C374.085 155.74 369.402 152.209 360.038 152.209C358.344 152.209 356.475 152.385 354.429 152.736C352.384 153.056 350.722 153.407 349.443 153.791L343.547 150.627L346.183 114.911H384.2V127.472H359.175L357.881 141.23L359.559 140.895C361.508 140.447 363.921 140.224 366.798 140.224ZM408.554 135.909C408.554 139.968 408.905 143.004 409.608 145.018C410.344 146.999 411.51 147.99 413.108 147.99C416.176 147.99 417.71 143.963 417.71 135.909C417.71 127.919 416.176 123.924 413.108 123.924C411.51 123.924 410.344 124.915 409.608 126.896C408.905 128.846 408.554 131.85 408.554 135.909ZM429.791 135.813C429.791 143.164 428.369 148.693 425.525 152.401C422.68 156.076 418.509 157.914 413.012 157.914C407.739 157.914 403.664 156.028 400.787 152.257C397.911 148.453 396.473 142.972 396.473 135.813C396.473 121.207 401.986 113.904 413.012 113.904C418.413 113.904 422.552 115.806 425.429 119.609C428.337 123.381 429.791 128.782 429.791 135.813ZM462.774 114.911L423.895 185H412.389L451.269 114.911H462.774ZM457.645 163.906C457.645 167.965 457.996 171.001 458.699 173.015C459.434 174.996 460.601 175.987 462.199 175.987C465.267 175.987 466.801 171.96 466.801 163.906C466.801 155.916 465.267 151.921 462.199 151.921C460.601 151.921 459.434 152.912 458.699 154.893C457.996 156.843 457.645 159.847 457.645 163.906ZM478.882 163.81C478.882 171.129 477.46 176.642 474.616 180.35C471.771 184.025 467.6 185.863 462.103 185.863C456.83 185.863 452.755 183.977 449.878 180.206C447.002 176.403 445.564 170.938 445.564 163.81C445.564 149.205 451.077 141.902 462.103 141.902C467.504 141.902 471.643 143.803 474.52 147.607C477.428 151.378 478.882 156.779 478.882 163.81Z" fill="white" fill-opacity="0.05"/>
<path d="M354.798 53.2237C361.573 53.2237 366.959 55.1254 370.954 58.9286C374.981 62.7319 376.994 67.9414 376.994 74.5572C376.994 82.3874 374.581 88.4119 369.755 92.6307C364.929 96.8494 358.026 98.9588 349.045 98.9588C341.247 98.9588 334.95 97.6964 330.156 95.1715V82.3715C332.681 83.7138 335.622 84.8164 338.977 85.6793C342.333 86.5103 345.513 86.9258 348.518 86.9258C357.562 86.9258 362.085 83.2184 362.085 75.8036C362.085 68.7404 357.402 65.2088 348.038 65.2088C346.344 65.2088 344.475 65.3846 342.429 65.7362C340.384 66.0558 338.722 66.4073 337.443 66.7908L331.547 63.6268L334.183 27.9112H372.2V40.4716H347.175L345.881 54.2305L347.559 53.8949C349.508 53.4474 351.921 53.2237 354.798 53.2237ZM396.554 48.9091C396.554 52.968 396.905 56.0043 397.608 58.0178C398.344 59.9993 399.51 60.9901 401.108 60.9901C404.176 60.9901 405.71 56.9631 405.71 48.9091C405.71 40.919 404.176 36.924 401.108 36.924C399.51 36.924 398.344 37.9148 397.608 39.8963C396.905 41.8459 396.554 44.8501 396.554 48.9091ZM417.791 48.8132C417.791 56.1641 416.369 61.6932 413.525 65.4006C410.68 69.076 406.509 70.9137 401.012 70.9137C395.739 70.9137 391.664 69.0281 388.787 65.2568C385.911 61.4535 384.473 55.9723 384.473 48.8132C384.473 34.2074 389.986 26.9045 401.012 26.9045C406.413 26.9045 410.552 28.8061 413.429 32.6094C416.337 36.3807 417.791 41.782 417.791 48.8132ZM450.774 27.9112L411.895 98H400.389L439.269 27.9112H450.774ZM445.645 76.9063C445.645 80.9652 445.996 84.0014 446.699 86.0149C447.434 87.9964 448.601 88.9872 450.199 88.9872C453.267 88.9872 454.801 84.9602 454.801 76.9063C454.801 68.9162 453.267 64.9212 450.199 64.9212C448.601 64.9212 447.434 65.9119 446.699 67.8935C445.996 69.843 445.645 72.8473 445.645 76.9063ZM466.882 76.8104C466.882 84.1293 465.46 89.6424 462.616 93.3498C459.771 97.0252 455.6 98.8629 450.103 98.8629C444.83 98.8629 440.755 96.9773 437.878 93.206C435.002 89.4027 433.564 83.9375 433.564 76.8104C433.564 62.2045 439.077 54.9016 450.103 54.9016C455.504 54.9016 459.643 56.8033 462.52 60.6065C465.428 64.3778 466.882 69.7791 466.882 76.8104Z" fill="white" fill-opacity="0.05"/>
<path d="M342.798 -33.7763C349.573 -33.7763 354.959 -31.8746 358.954 -28.0714C362.981 -24.2681 364.994 -19.0586 364.994 -12.4428C364.994 -4.61257 362.581 1.41193 357.755 5.63068C352.929 9.84943 346.026 11.9588 337.045 11.9588C329.247 11.9588 322.95 10.6964 318.156 8.17152V-4.62855C320.681 -3.28622 323.622 -2.18359 326.977 -1.32067C330.333 -0.489701 333.513 -0.0742177 336.518 -0.0742177C345.562 -0.0742177 350.085 -3.7816 350.085 -11.1964C350.085 -18.2596 345.402 -21.7912 336.038 -21.7912C334.344 -21.7912 332.475 -21.6154 330.429 -21.2638C328.384 -20.9442 326.722 -20.5927 325.443 -20.2092L319.547 -23.3732L322.183 -59.0888H360.2V-46.5284H335.175L333.881 -32.7695L335.559 -33.1051C337.508 -33.5526 339.921 -33.7763 342.798 -33.7763ZM384.554 -38.0909C384.554 -34.032 384.905 -30.9957 385.608 -28.9822C386.344 -27.0007 387.51 -26.0099 389.108 -26.0099C392.176 -26.0099 393.71 -30.0369 393.71 -38.0909C393.71 -46.081 392.176 -50.076 389.108 -50.076C387.51 -50.076 386.344 -49.0852 385.608 -47.1037C384.905 -45.1541 384.554 -42.1499 384.554 -38.0909ZM405.791 -38.1868C405.791 -30.8359 404.369 -25.3068 401.525 -21.5994C398.68 -17.924 394.509 -16.0863 389.012 -16.0863C383.739 -16.0863 379.664 -17.9719 376.787 -21.7432C373.911 -25.5465 372.473 -31.0277 372.473 -38.1868C372.473 -52.7926 377.986 -60.0955 389.012 -60.0955C394.413 -60.0955 398.552 -58.1939 401.429 -54.3906C404.337 -50.6193 405.791 -45.218 405.791 -38.1868ZM438.774 -59.0888L399.895 11H388.389L427.269 -59.0888H438.774ZM433.645 -10.0937C433.645 -6.0348 433.996 -2.99858 434.699 -0.985084C435.434 0.99645 436.601 1.98722 438.199 1.98722C441.267 1.98722 442.801 -2.03977 442.801 -10.0937C442.801 -18.0838 441.267 -22.0788 438.199 -22.0788C436.601 -22.0788 435.434 -21.0881 434.699 -19.1065C433.996 -17.157 433.645 -14.1527 433.645 -10.0937ZM454.882 -10.1896C454.882 -2.87074 453.46 2.6424 450.616 6.34979C447.771 10.0252 443.6 11.8629 438.103 11.8629C432.83 11.8629 428.755 9.97727 425.878 6.20597C423.002 2.4027 421.564 -3.0625 421.564 -10.1896C421.564 -24.7955 427.077 -32.0984 438.103 -32.0984C443.504 -32.0984 447.643 -30.1967 450.52 -26.3935C453.428 -22.6222 454.882 -17.2209 454.882 -10.1896Z" fill="white" fill-opacity="0.05"/>
</g>
<path d="M26.4956 182.893V17.1074" stroke="#FFA1A1" stroke-width="2" stroke-miterlimit="10" stroke-linecap="round" stroke-dasharray="6 6"/>
<path d="M428.019 17.1074V182.893" stroke="#FFA1A1" stroke-width="2" stroke-miterlimit="10" stroke-linecap="round" stroke-dasharray="6 6"/>
<path d="M253.77 93C253.77 97.6302 254.171 101.094 254.973 103.391C255.812 105.651 257.142 106.781 258.965 106.781C262.465 106.781 264.215 102.188 264.215 93C264.215 83.8854 262.465 79.3281 258.965 79.3281C257.142 79.3281 255.812 80.4583 254.973 82.7188C254.171 84.9427 253.77 88.3698 253.77 93ZM277.997 92.8906C277.997 101.276 276.374 107.583 273.129 111.812C269.885 116.005 265.127 118.102 258.856 118.102C252.84 118.102 248.192 115.951 244.911 111.648C241.629 107.31 239.989 101.057 239.989 92.8906C239.989 76.2292 246.278 67.8984 258.856 67.8984C265.017 67.8984 269.739 70.0677 273.02 74.4062C276.338 78.7083 277.997 84.8698 277.997 92.8906ZM315.622 69.0469L271.27 149H258.145L302.497 69.0469H315.622ZM309.77 124.938C309.77 129.568 310.171 133.031 310.973 135.328C311.812 137.589 313.142 138.719 314.965 138.719C318.465 138.719 320.215 134.125 320.215 124.938C320.215 115.823 318.465 111.266 314.965 111.266C313.142 111.266 311.812 112.396 310.973 114.656C310.171 116.88 309.77 120.307 309.77 124.938ZM333.997 124.828C333.997 133.177 332.374 139.466 329.129 143.695C325.885 147.888 321.127 149.984 314.856 149.984C308.84 149.984 304.192 147.833 300.911 143.531C297.629 139.193 295.989 132.958 295.989 124.828C295.989 108.167 302.278 99.8359 314.856 99.8359C321.017 99.8359 325.739 102.005 329.02 106.344C332.338 110.646 333.997 116.807 333.997 124.828Z" fill="#FF5C00"/>
<path d="M186.338 92.3474C197.634 92.3474 206.613 95.5178 213.274 101.859C219.988 108.2 223.345 116.885 223.345 127.915C223.345 140.97 219.322 151.014 211.275 158.048C203.229 165.082 191.72 168.599 176.747 168.599C163.745 168.599 153.248 166.494 145.255 162.284V140.944C149.465 143.181 154.367 145.02 159.962 146.459C165.557 147.844 170.859 148.537 175.867 148.537C190.947 148.537 198.487 142.356 198.487 129.993C198.487 118.217 190.681 112.329 175.068 112.329C172.244 112.329 169.127 112.622 165.717 113.209C162.306 113.741 159.535 114.328 157.404 114.967L147.573 109.692L151.969 50.1454H215.352V71.0865H173.629L171.471 94.0258L174.269 93.4663C177.519 92.7204 181.542 92.3474 186.338 92.3474Z" fill="#FF5C00"/>
<path d="M248.77 85C248.77 89.6302 249.171 93.0938 249.973 95.3906C250.812 97.651 252.142 98.7812 253.965 98.7812C257.465 98.7812 259.215 94.1875 259.215 85C259.215 75.8854 257.465 71.3281 253.965 71.3281C252.142 71.3281 250.812 72.4583 249.973 74.7188C249.171 76.9427 248.77 80.3698 248.77 85ZM272.997 84.8906C272.997 93.276 271.374 99.5833 268.129 103.812C264.885 108.005 260.127 110.102 253.856 110.102C247.84 110.102 243.192 107.951 239.911 103.648C236.629 99.3099 234.989 93.0573 234.989 84.8906C234.989 68.2292 241.278 59.8984 253.856 59.8984C260.017 59.8984 264.739 62.0677 268.02 66.4062C271.338 70.7083 272.997 76.8698 272.997 84.8906ZM310.622 61.0469L266.27 141H253.145L297.497 61.0469H310.622ZM304.77 116.938C304.77 121.568 305.171 125.031 305.973 127.328C306.812 129.589 308.142 130.719 309.965 130.719C313.465 130.719 315.215 126.125 315.215 116.938C315.215 107.823 313.465 103.266 309.965 103.266C308.142 103.266 306.812 104.396 305.973 106.656C305.171 108.88 304.77 112.307 304.77 116.938ZM328.997 116.828C328.997 125.177 327.374 131.466 324.129 135.695C320.885 139.888 316.127 141.984 309.856 141.984C303.84 141.984 299.192 139.833 295.911 135.531C292.629 131.193 290.989 124.958 290.989 116.828C290.989 100.167 297.278 91.8359 309.856 91.8359C316.017 91.8359 320.739 94.0052 324.02 98.3438C327.338 102.646 328.997 108.807 328.997 116.828Z" fill="#FFD701"/>
<path d="M181.338 84.3474C192.634 84.3474 201.613 87.5178 208.274 93.8588C214.988 100.2 218.345 108.885 218.345 119.915C218.345 132.97 214.322 143.014 206.275 150.048C198.229 157.082 186.72 160.599 171.747 160.599C158.745 160.599 148.248 158.494 140.255 154.284V132.944C144.465 135.181 149.367 137.02 154.962 138.459C160.557 139.844 165.859 140.537 170.867 140.537C185.947 140.537 193.487 134.356 193.487 121.993C193.487 110.217 185.681 104.329 170.068 104.329C167.244 104.329 164.127 104.622 160.717 105.209C157.306 105.741 154.535 106.328 152.404 106.967L142.573 101.692L146.969 42.1454H210.352V63.0865H168.629L166.471 86.0258L169.269 85.4663C172.519 84.7204 176.542 84.3474 181.338 84.3474Z" fill="#FFD701"/>
<defs>
<linearGradient id="paint0_linear" x1="0.0208787" y1="2.02563e-05" x2="452.741" y2="200.282" gradientUnits="userSpaceOnUse">
<stop stop-color="#FF1C29"/>
<stop offset="1" stop-color="#B6000B"/>
</linearGradient>
<linearGradient id="paint1_linear" x1="0.0208787" y1="2.02563e-05" x2="452.741" y2="200.282" gradientUnits="userSpaceOnUse">
<stop stop-color="#FF1C29"/>
<stop offset="1" stop-color="#B6000B"/>
</linearGradient>
</defs>
</svg>
