<svg width="35" height="35" viewBox="0 0 35 35" fill="none" xmlns="http://www.w3.org/2000/svg">
<path d="M17.7539 11.5743C17.7251 11.5344 17.6873 11.5019 17.6435 11.4794C17.5997 11.457 17.5512 11.4453 17.502 11.4453C17.4527 11.4453 17.4042 11.457 17.3604 11.4794C17.3166 11.5019 17.2788 11.5344 17.25 11.5743L10.2969 21.1837C10.1484 21.3907 10.2969 21.6798 10.5508 21.6798H12.3828C12.7813 21.6798 13.1602 21.4884 13.3945 21.1642L17.5 15.4845L21.6094 21.1642C21.8438 21.4884 22.2188 21.6798 22.6211 21.6798H24.4531C24.707 21.6798 24.8555 21.3907 24.707 21.1837L17.7539 11.5743V11.5743Z" fill="url(#paint0_linear)"/>
<path d="M17.5 0C7.83594 0 0 7.83594 0 17.5C0 27.1641 7.83594 35 17.5 35C27.1641 35 35 27.1641 35 17.5C35 7.83594 27.1641 0 17.5 0ZM17.5 32.0312C9.47656 32.0312 2.96875 25.5234 2.96875 17.5C2.96875 9.47656 9.47656 2.96875 17.5 2.96875C25.5234 2.96875 32.0312 9.47656 32.0312 17.5C32.0312 25.5234 25.5234 32.0312 17.5 32.0312Z" fill="url(#paint1_linear)"/>
<defs>
<linearGradient id="paint0_linear" x1="10.2378" y1="16.6556" x2="24.7661" y2="16.6556" gradientUnits="userSpaceOnUse">
<stop stop-color="#FF1C29"/>
<stop offset="1" stop-color="#B6000B"/>
</linearGradient>
<linearGradient id="paint1_linear" x1="0" y1="17.8182" x2="35" y2="17.8182" gradientUnits="userSpaceOnUse">
<stop stop-color="#FF1C29"/>
<stop offset="1" stop-color="#B6000B"/>
</linearGradient>
</defs>
</svg>
