<svg width="453" height="200" viewBox="0 0 453 200" fill="none" xmlns="http://www.w3.org/2000/svg">
<path d="M445.71 169.822C445.71 168.905 445.891 167.996 446.242 167.149C446.594 166.302 447.109 165.532 447.758 164.884C448.407 164.236 449.177 163.722 450.025 163.372C450.873 163.022 451.782 162.842 452.699 162.844V148.876C451.75 148.926 450.802 148.783 449.91 148.454C449.019 148.126 448.204 147.619 447.515 146.965C446.826 146.311 446.278 145.523 445.904 144.65C445.53 143.777 445.338 142.836 445.339 141.886C445.34 140.936 445.535 139.997 445.912 139.125C446.289 138.253 446.84 137.467 447.53 136.815C448.221 136.163 449.038 135.658 449.93 135.332C450.822 135.006 451.771 134.866 452.72 134.919V120.941C450.869 120.941 449.094 120.206 447.785 118.897C446.477 117.588 445.741 115.813 445.741 113.962C445.741 112.112 446.477 110.336 447.785 109.028C449.094 107.719 450.869 106.984 452.72 106.984V93.0162C451.78 93.0525 450.843 92.8988 449.964 92.5642C449.085 92.2296 448.282 91.721 447.604 91.0689C446.927 90.4168 446.387 89.6347 446.019 88.7693C445.651 87.9038 445.461 86.973 445.461 86.0324C445.461 85.0919 445.651 84.161 446.019 83.2956C446.387 82.4302 446.927 81.648 447.604 80.9959C448.282 80.3438 449.085 79.8353 449.964 79.5007C450.843 79.1661 451.78 79.0123 452.72 79.0487V65.0811C451.803 65.0811 450.896 64.9006 450.049 64.5499C449.203 64.1992 448.433 63.6851 447.785 63.0371C447.137 62.3891 446.623 61.6198 446.273 60.7731C445.922 59.9264 445.741 59.019 445.741 58.1025C445.741 57.1861 445.922 56.2786 446.273 55.432C446.623 54.5853 447.137 53.816 447.785 53.1679C448.433 52.5199 449.203 52.0059 450.049 51.6552C450.896 51.3045 451.803 51.124 452.72 51.124V37.1564C451.78 37.1927 450.843 37.039 449.964 36.7044C449.085 36.3698 448.282 35.8612 447.604 35.2091C446.927 34.5571 446.387 33.7749 446.019 32.9094C445.651 32.044 445.461 31.1132 445.461 30.1726C445.461 29.2321 445.651 28.3012 446.019 27.4358C446.387 26.5704 446.927 25.7882 447.604 25.1361C448.282 24.484 449.085 23.9755 449.964 23.6409C450.843 23.3063 451.78 23.1525 452.72 23.1889V16.1477C448.436 16.1477 444.328 14.4468 441.298 11.4188C438.268 8.39079 436.565 4.2836 436.562 0H16.1686C16.1686 2.1223 15.7502 4.22379 14.9374 6.18428C14.1246 8.14477 12.9333 9.9258 11.4316 11.4255C9.92998 12.9252 8.1474 14.1143 6.18587 14.9245C4.22433 15.7348 2.1223 16.1504 0 16.1477V23.1889C1.80551 23.2586 3.51382 24.025 4.76655 25.3271C6.01927 26.6291 6.71904 28.3658 6.71904 30.1726C6.71904 31.9795 6.01927 33.7161 4.76655 35.0182C3.51382 36.3203 1.80551 37.0866 0 37.1564V51.124C1.85083 51.124 3.62586 51.8592 4.93459 53.1679C6.24332 54.4767 6.97856 56.2517 6.97856 58.1025C6.97856 59.9534 6.24332 61.7284 4.93459 63.0371C3.62586 64.3459 1.85083 65.0811 0 65.0811V79.0487C1.80551 79.1184 3.51382 79.8848 4.76655 81.1868C6.01927 82.4889 6.71904 84.2256 6.71904 86.0324C6.71904 87.8393 6.01927 89.5759 4.76655 90.878C3.51382 92.1801 1.80551 92.9464 0 93.0162V106.984C1.85083 106.984 3.62586 107.719 4.93459 109.028C6.24332 110.336 6.97856 112.112 6.97856 113.962C6.97856 115.813 6.24332 117.588 4.93459 118.897C3.62586 120.206 1.85083 120.941 0 120.941V134.919C1.80551 134.989 3.51382 135.755 4.76655 137.057C6.01927 138.359 6.71904 140.096 6.71904 141.903C6.71904 143.71 6.01927 145.446 4.76655 146.748C3.51382 148.05 1.80551 148.817 0 148.886V162.854C0.916438 162.854 1.8239 163.035 2.67058 163.385C3.51726 163.736 4.28657 164.25 4.93459 164.898C5.58261 165.546 6.09665 166.315 6.44735 167.162C6.79806 168.009 6.97857 168.916 6.97857 169.833C6.97857 170.749 6.79806 171.656 6.44735 172.503C6.09665 173.35 5.58261 174.119 4.93459 174.767C4.28657 175.415 3.51726 175.929 2.67058 176.28C1.8239 176.631 0.916438 176.811 0 176.811V183.852C2.12192 183.851 4.22333 184.267 6.18425 185.078C8.14517 185.889 9.92719 187.078 11.4286 188.578C12.93 190.077 14.1213 191.857 14.9346 193.817C15.7479 195.777 16.1672 197.878 16.1686 200H436.551C436.554 195.714 438.259 191.604 441.291 188.574C444.323 185.544 448.434 183.842 452.72 183.842V176.801C451.801 176.805 450.89 176.627 450.04 176.278C449.189 175.93 448.416 175.416 447.765 174.768C447.114 174.119 446.597 173.349 446.244 172.5C445.892 171.651 445.71 170.741 445.71 169.822Z" fill="url(#paint0_linear)"/>
<mask id="mask0" mask-type="alpha" maskUnits="userSpaceOnUse" x="0" y="0" width="453" height="200">
<path d="M445.71 169.822C445.71 168.905 445.891 167.996 446.242 167.149C446.594 166.302 447.109 165.532 447.758 164.884C448.407 164.236 449.177 163.722 450.025 163.372C450.873 163.022 451.782 162.842 452.699 162.844V148.876C451.75 148.926 450.802 148.783 449.91 148.454C449.019 148.126 448.204 147.619 447.515 146.965C446.826 146.311 446.278 145.523 445.904 144.65C445.53 143.777 445.338 142.836 445.339 141.886C445.34 140.936 445.535 139.997 445.912 139.125C446.289 138.253 446.84 137.467 447.53 136.815C448.221 136.163 449.038 135.658 449.93 135.332C450.822 135.006 451.771 134.866 452.72 134.919V120.941C450.869 120.941 449.094 120.206 447.785 118.897C446.477 117.588 445.741 115.813 445.741 113.962C445.741 112.112 446.477 110.336 447.785 109.028C449.094 107.719 450.869 106.984 452.72 106.984V93.0162C451.78 93.0525 450.843 92.8988 449.964 92.5642C449.085 92.2296 448.282 91.721 447.604 91.0689C446.927 90.4168 446.387 89.6347 446.019 88.7693C445.651 87.9038 445.461 86.973 445.461 86.0324C445.461 85.0919 445.651 84.161 446.019 83.2956C446.387 82.4302 446.927 81.648 447.604 80.9959C448.282 80.3438 449.085 79.8353 449.964 79.5007C450.843 79.1661 451.78 79.0123 452.72 79.0487V65.0811C451.803 65.0811 450.896 64.9006 450.049 64.5499C449.203 64.1992 448.433 63.6851 447.785 63.0371C447.137 62.3891 446.623 61.6198 446.273 60.7731C445.922 59.9264 445.741 59.019 445.741 58.1025C445.741 57.1861 445.922 56.2786 446.273 55.432C446.623 54.5853 447.137 53.816 447.785 53.1679C448.433 52.5199 449.203 52.0059 450.049 51.6552C450.896 51.3045 451.803 51.124 452.72 51.124V37.1564C451.78 37.1927 450.843 37.039 449.964 36.7044C449.085 36.3698 448.282 35.8612 447.604 35.2091C446.927 34.5571 446.387 33.7749 446.019 32.9094C445.651 32.044 445.461 31.1132 445.461 30.1726C445.461 29.2321 445.651 28.3012 446.019 27.4358C446.387 26.5704 446.927 25.7882 447.604 25.1361C448.282 24.484 449.085 23.9755 449.964 23.6409C450.843 23.3063 451.78 23.1525 452.72 23.1889V16.1477C448.436 16.1477 444.328 14.4468 441.298 11.4188C438.268 8.39079 436.565 4.2836 436.562 0H16.1686C16.1686 2.1223 15.7502 4.22379 14.9374 6.18428C14.1246 8.14477 12.9333 9.9258 11.4316 11.4255C9.92998 12.9252 8.1474 14.1143 6.18587 14.9245C4.22433 15.7348 2.1223 16.1504 0 16.1477V23.1889C1.80551 23.2586 3.51382 24.025 4.76655 25.3271C6.01927 26.6291 6.71904 28.3658 6.71904 30.1726C6.71904 31.9795 6.01927 33.7161 4.76655 35.0182C3.51382 36.3203 1.80551 37.0866 0 37.1564V51.124C1.85083 51.124 3.62586 51.8592 4.93459 53.1679C6.24332 54.4767 6.97856 56.2517 6.97856 58.1025C6.97856 59.9534 6.24332 61.7284 4.93459 63.0371C3.62586 64.3459 1.85083 65.0811 0 65.0811V79.0487C1.80551 79.1184 3.51382 79.8848 4.76655 81.1868C6.01927 82.4889 6.71904 84.2256 6.71904 86.0324C6.71904 87.8393 6.01927 89.5759 4.76655 90.878C3.51382 92.1801 1.80551 92.9464 0 93.0162V106.984C1.85083 106.984 3.62586 107.719 4.93459 109.028C6.24332 110.336 6.97856 112.112 6.97856 113.962C6.97856 115.813 6.24332 117.588 4.93459 118.897C3.62586 120.206 1.85083 120.941 0 120.941V134.919C1.80551 134.989 3.51382 135.755 4.76655 137.057C6.01927 138.359 6.71904 140.096 6.71904 141.903C6.71904 143.71 6.01927 145.446 4.76655 146.748C3.51382 148.05 1.80551 148.817 0 148.886V162.854C0.916438 162.854 1.8239 163.035 2.67058 163.385C3.51726 163.736 4.28657 164.25 4.93459 164.898C5.58261 165.546 6.09665 166.315 6.44735 167.162C6.79806 168.009 6.97857 168.916 6.97857 169.833C6.97857 170.749 6.79806 171.656 6.44735 172.503C6.09665 173.35 5.58261 174.119 4.93459 174.767C4.28657 175.415 3.51726 175.929 2.67058 176.28C1.8239 176.631 0.916438 176.811 0 176.811V183.852C2.12192 183.851 4.22333 184.267 6.18425 185.078C8.14517 185.889 9.92719 187.078 11.4286 188.578C12.93 190.077 14.1213 191.857 14.9346 193.817C15.7479 195.777 16.1672 197.878 16.1686 200H436.551C436.554 195.714 438.259 191.604 441.291 188.574C444.323 185.544 448.434 183.842 452.72 183.842V176.801C451.801 176.805 450.89 176.627 450.04 176.278C449.189 175.93 448.416 175.416 447.765 174.768C447.114 174.119 446.597 173.349 446.244 172.5C445.892 171.651 445.71 170.741 445.71 169.822Z" fill="url(#paint1_linear)"/>
</mask>
<g mask="url(#mask0)">
<path d="M65.7994 40.826C65.7994 54.6328 62.891 64.94 57.0742 71.7475C51.2575 78.555 42.4524 81.9588 30.6591 81.9588C26.5043 81.9588 23.3562 81.7351 21.2148 81.2876V69.3984C23.8995 70.0696 26.712 70.4052 29.6523 70.4052C34.6062 70.4052 38.6811 69.6861 41.8771 68.2479C45.0732 66.7777 47.5181 64.4925 49.212 61.3924C50.9059 58.2603 51.8807 53.9616 52.1364 48.4964H51.5611C49.7074 51.5007 47.5661 53.6101 45.1371 54.8246C42.7081 56.0391 39.6719 56.6463 36.0284 56.6463C29.924 56.6463 25.114 54.6967 21.5984 50.7976C18.0827 46.8665 16.3249 41.4173 16.3249 34.4499C16.3249 26.9393 18.4503 21.0107 22.701 16.6641C26.9837 12.2855 32.8004 10.0962 40.1513 10.0962C45.3288 10.0962 49.8512 11.3107 53.7184 13.7397C57.6175 16.1687 60.6058 19.7003 62.6832 24.3345C64.7607 28.9368 65.7994 34.4339 65.7994 40.826ZM40.4389 21.9854C37.3707 21.9854 34.9737 23.0401 33.2479 25.1495C31.522 27.2589 30.6591 30.2951 30.6591 34.2582C30.6591 37.646 31.4421 40.3306 33.0082 42.3121C34.5742 44.2937 36.9553 45.2844 40.1513 45.2844C43.1555 45.2844 45.7283 44.3097 47.8697 42.3601C50.011 40.3786 51.0817 38.1094 51.0817 35.5526C51.0817 31.7493 50.0749 28.5373 48.0614 25.9166C46.0799 23.2958 43.5391 21.9854 40.4389 21.9854ZM121.794 45.9556C121.794 58.1964 119.78 67.2571 115.753 73.1378C111.758 79.0185 105.59 81.9588 97.2482 81.9588C89.1623 81.9588 83.0579 78.9226 78.935 72.8501C74.8441 66.7777 72.7986 57.8129 72.7986 45.9556C72.7986 33.587 74.7962 24.4783 78.7912 18.6296C82.7862 12.7489 88.9386 9.8086 97.2482 9.8086C105.334 9.8086 111.439 12.8768 115.561 19.0131C119.716 25.1495 121.794 34.1303 121.794 45.9556ZM87.5163 45.9556C87.5163 54.5529 88.2514 60.7212 89.7216 64.4606C91.2237 68.168 93.7326 70.0217 97.2482 70.0217C100.7 70.0217 103.193 68.136 104.727 64.3647C106.261 60.5934 107.028 54.457 107.028 45.9556C107.028 37.3583 106.245 31.19 104.679 27.4506C103.145 23.6793 100.668 21.7937 97.2482 21.7937C93.7646 21.7937 91.2717 23.6793 89.7695 27.4506C88.2674 31.19 87.5163 37.3583 87.5163 45.9556ZM140.442 31.9091C140.442 35.968 140.794 39.0043 141.497 41.0178C142.232 42.9993 143.399 43.9901 144.997 43.9901C148.065 43.9901 149.599 39.9631 149.599 31.9091C149.599 23.919 148.065 19.924 144.997 19.924C143.399 19.924 142.232 20.9148 141.497 22.8963C140.794 24.8459 140.442 27.8501 140.442 31.9091ZM161.68 31.8132C161.68 39.1641 160.258 44.6932 157.413 48.4006C154.569 52.076 150.398 53.9137 144.901 53.9137C139.627 53.9137 135.553 52.0281 132.676 48.2567C129.8 44.4535 128.361 38.9723 128.361 31.8132C128.361 17.2074 133.875 9.90448 144.901 9.90448C150.302 9.90448 154.441 11.8061 157.317 15.6094C160.226 19.3807 161.68 24.782 161.68 31.8132ZM194.663 10.9112L155.783 81H144.278L183.157 10.9112H194.663ZM189.533 59.9062C189.533 63.9652 189.885 67.0014 190.588 69.0149C191.323 70.9964 192.49 71.9872 194.088 71.9872C197.156 71.9872 198.69 67.9602 198.69 59.9062C198.69 51.9162 197.156 47.9212 194.088 47.9212C192.49 47.9212 191.323 48.9119 190.588 50.8935C189.885 52.843 189.533 55.8473 189.533 59.9062ZM210.771 59.8104C210.771 67.1293 209.349 72.6424 206.504 76.3498C203.66 80.0252 199.489 81.8629 193.992 81.8629C188.718 81.8629 184.643 79.9773 181.767 76.206C178.891 72.4027 177.452 66.9375 177.452 59.8104C177.452 45.2045 182.966 37.9016 193.992 37.9016C199.393 37.9016 203.532 39.8033 206.408 43.6065C209.317 47.3778 210.771 52.7791 210.771 59.8104Z" fill="white" fill-opacity="0.05"/>
<path d="M276.799 9.82599C276.799 23.6328 273.891 33.94 268.074 40.7475C262.257 47.555 253.452 50.9588 241.659 50.9588C237.504 50.9588 234.356 50.7351 232.215 50.2876V38.3984C234.9 39.0696 237.712 39.4052 240.652 39.4052C245.606 39.4052 249.681 38.6861 252.877 37.2479C256.073 35.7777 258.518 33.4925 260.212 30.3924C261.906 27.2603 262.881 22.9616 263.136 17.4964H262.561C260.707 20.5007 258.566 22.6101 256.137 23.8246C253.708 25.0391 250.672 25.6463 247.028 25.6463C240.924 25.6463 236.114 23.6967 232.598 19.7976C229.083 15.8665 227.325 10.4173 227.325 3.44993C227.325 -4.06072 229.45 -9.98934 233.701 -14.3359C237.984 -18.7145 243.8 -20.9038 251.151 -20.9038C256.329 -20.9038 260.851 -19.6893 264.718 -17.2603C268.618 -14.8313 271.606 -11.2997 273.683 -6.66548C275.761 -2.06321 276.799 3.43395 276.799 9.82599ZM251.439 -9.01456C248.371 -9.01456 245.974 -7.95987 244.248 -5.85049C242.522 -3.74112 241.659 -0.704899 241.659 3.25817C241.659 6.64595 242.442 9.33061 244.008 11.3121C245.574 13.2937 247.955 14.2844 251.151 14.2844C254.156 14.2844 256.728 13.3097 258.87 11.3601C261.011 9.37855 262.082 7.10938 262.082 4.55256C262.082 0.749291 261.075 -2.46271 259.061 -5.08345C257.08 -7.70419 254.539 -9.01456 251.439 -9.01456ZM332.794 14.9556C332.794 27.1964 330.78 36.2571 326.753 42.1378C322.758 48.0185 316.59 50.9588 308.248 50.9588C300.162 50.9588 294.058 47.9226 289.935 41.8501C285.844 35.7777 283.799 26.8129 283.799 14.9556C283.799 2.587 285.796 -6.52166 289.791 -12.3704C293.786 -18.2511 299.939 -21.1914 308.248 -21.1914C316.334 -21.1914 322.439 -18.1232 326.561 -11.9869C330.716 -5.85049 332.794 3.13033 332.794 14.9556ZM298.516 14.9556C298.516 23.5529 299.251 29.7212 300.722 33.4606C302.224 37.168 304.733 39.0217 308.248 39.0217C311.7 39.0217 314.193 37.136 315.727 33.3647C317.261 29.5934 318.028 23.457 318.028 14.9556C318.028 6.35831 317.245 0.189987 315.679 -3.54936C314.145 -7.32066 311.668 -9.20632 308.248 -9.20632C304.765 -9.20632 302.272 -7.32066 300.77 -3.54936C299.267 0.189987 298.516 6.35831 298.516 14.9556ZM351.442 0.909092C351.442 4.96804 351.794 8.00426 352.497 10.0178C353.232 11.9993 354.399 12.9901 355.997 12.9901C359.065 12.9901 360.599 8.96307 360.599 0.909092C360.599 -7.08096 359.065 -11.076 355.997 -11.076C354.399 -11.076 353.232 -10.0852 352.497 -8.10369C351.794 -6.15412 351.442 -3.14986 351.442 0.909092ZM372.68 0.813212C372.68 8.16406 371.258 13.6932 368.413 17.4006C365.569 21.076 361.398 22.9137 355.901 22.9137C350.627 22.9137 346.553 21.0281 343.676 17.2567C340.8 13.4535 339.361 7.9723 339.361 0.813212C339.361 -13.7926 344.875 -21.0955 355.901 -21.0955C361.302 -21.0955 365.441 -19.1939 368.317 -15.3906C371.226 -11.6193 372.68 -6.21804 372.68 0.813212ZM405.663 -20.0888L366.783 50H355.278L394.157 -20.0888H405.663ZM400.533 28.9062C400.533 32.9652 400.885 36.0014 401.588 38.0149C402.323 39.9964 403.49 40.9872 405.088 40.9872C408.156 40.9872 409.69 36.9602 409.69 28.9062C409.69 20.9162 408.156 16.9212 405.088 16.9212C403.49 16.9212 402.323 17.9119 401.588 19.8935C400.885 21.843 400.533 24.8473 400.533 28.9062ZM421.771 28.8104C421.771 36.1293 420.349 41.6424 417.504 45.3498C414.66 49.0252 410.489 50.8629 404.992 50.8629C399.718 50.8629 395.643 48.9773 392.767 45.206C389.891 41.4027 388.452 35.9375 388.452 28.8104C388.452 14.2045 393.966 6.90163 404.992 6.90163C410.393 6.90163 414.532 8.80327 417.408 12.6065C420.317 16.3778 421.771 21.7791 421.771 28.8104Z" fill="white" fill-opacity="0.05"/>
<path d="M487.799 -21.174C487.799 -7.36719 484.891 2.93998 479.074 9.74751C473.257 16.555 464.452 19.9588 452.659 19.9588C448.504 19.9588 445.356 19.7351 443.215 19.2876V7.39843C445.9 8.0696 448.712 8.40518 451.652 8.40518C456.606 8.40518 460.681 7.68608 463.877 6.24787C467.073 4.77769 469.518 2.49254 471.212 -0.607603C472.906 -3.7397 473.881 -8.03835 474.136 -13.5036H473.561C471.707 -10.4993 469.566 -8.38992 467.137 -7.17543C464.708 -5.96094 461.672 -5.3537 458.028 -5.3537C451.924 -5.3537 447.114 -7.30327 443.598 -11.2024C440.083 -15.1335 438.325 -20.5827 438.325 -27.5501C438.325 -35.0607 440.45 -40.9893 444.701 -45.3359C448.984 -49.7145 454.8 -51.9038 462.151 -51.9038C467.329 -51.9038 471.851 -50.6893 475.718 -48.2603C479.618 -45.8313 482.606 -42.2997 484.683 -37.6655C486.761 -33.0632 487.799 -27.5661 487.799 -21.174ZM462.439 -40.0146C459.371 -40.0146 456.974 -38.9599 455.248 -36.8505C453.522 -34.7411 452.659 -31.7049 452.659 -27.7418C452.659 -24.354 453.442 -21.6694 455.008 -19.6879C456.574 -17.7063 458.955 -16.7156 462.151 -16.7156C465.156 -16.7156 467.728 -17.6903 469.87 -19.6399C472.011 -21.6214 473.082 -23.8906 473.082 -26.4474C473.082 -30.2507 472.075 -33.4627 470.061 -36.0834C468.08 -38.7042 465.539 -40.0146 462.439 -40.0146ZM543.794 -16.0444C543.794 -3.80362 541.78 5.2571 537.753 11.1378C533.758 17.0185 527.59 19.9588 519.248 19.9588C511.162 19.9588 505.058 16.9226 500.935 10.8501C496.844 4.77769 494.799 -4.18715 494.799 -16.0444C494.799 -28.413 496.796 -37.5217 500.791 -43.3704C504.786 -49.2511 510.939 -52.1914 519.248 -52.1914C527.334 -52.1914 533.439 -49.1232 537.561 -42.9869C541.716 -36.8505 543.794 -27.8697 543.794 -16.0444ZM509.516 -16.0444C509.516 -7.44709 510.251 -1.27877 511.722 2.46058C513.224 6.16796 515.733 8.02166 519.248 8.02166C522.7 8.02166 525.193 6.136 526.727 2.3647C528.261 -1.40661 529.028 -7.54297 529.028 -16.0444C529.028 -24.6417 528.245 -30.81 526.679 -34.5494C525.145 -38.3207 522.668 -40.2063 519.248 -40.2063C515.765 -40.2063 513.272 -38.3207 511.77 -34.5494C510.267 -30.81 509.516 -24.6417 509.516 -16.0444ZM562.442 -30.0909C562.442 -26.032 562.794 -22.9957 563.497 -20.9822C564.232 -19.0007 565.399 -18.0099 566.997 -18.0099C570.065 -18.0099 571.599 -22.0369 571.599 -30.0909C571.599 -38.081 570.065 -42.076 566.997 -42.076C565.399 -42.076 564.232 -41.0852 563.497 -39.1037C562.794 -37.1541 562.442 -34.1499 562.442 -30.0909ZM583.68 -30.1868C583.68 -22.8359 582.258 -17.3068 579.413 -13.5994C576.569 -9.92401 572.398 -8.08629 566.901 -8.08629C561.627 -8.08629 557.553 -9.97195 554.676 -13.7433C551.8 -17.5465 550.361 -23.0277 550.361 -30.1868C550.361 -44.7926 555.875 -52.0955 566.901 -52.0955C572.302 -52.0955 576.441 -50.1939 579.317 -46.3906C582.226 -42.6193 583.68 -37.218 583.68 -30.1868ZM616.663 -51.0888L577.783 19H566.278L605.157 -51.0888H616.663ZM611.533 -2.09375C611.533 1.9652 611.885 5.00142 612.588 7.01491C613.323 8.99644 614.49 9.98721 616.088 9.98721C619.156 9.98721 620.69 5.96022 620.69 -2.09375C620.69 -10.0838 619.156 -14.0788 616.088 -14.0788C614.49 -14.0788 613.323 -13.0881 612.588 -11.1065C611.885 -9.15696 611.533 -6.1527 611.533 -2.09375ZM632.771 -2.18963C632.771 5.12926 631.349 10.6424 628.504 14.3498C625.66 18.0252 621.489 19.8629 615.992 19.8629C610.718 19.8629 606.643 17.9773 603.767 14.206C600.891 10.4027 599.452 4.9375 599.452 -2.18963C599.452 -16.7955 604.966 -24.0984 615.992 -24.0984C621.393 -24.0984 625.532 -22.1967 628.408 -18.3935C631.317 -14.6222 632.771 -9.22088 632.771 -2.18963Z" fill="white" fill-opacity="0.05"/>
<path d="M30.7994 138.826C30.7994 152.633 27.891 162.94 22.0742 169.748C16.2575 176.555 7.45242 179.959 -4.34091 179.959C-8.49573 179.959 -11.6438 179.735 -13.7852 179.288V167.398C-11.1005 168.07 -8.28799 168.405 -5.34765 168.405C-0.393818 168.405 3.68111 167.686 6.87713 166.248C10.0732 164.778 12.5181 162.493 14.212 159.392C15.9059 156.26 16.8807 151.962 17.1364 146.496H16.5611C14.7074 149.501 12.5661 151.61 10.1371 152.825C7.7081 154.039 4.67188 154.646 1.02841 154.646C-5.07599 154.646 -9.886 152.697 -13.4016 148.798C-16.9173 144.866 -18.6751 139.417 -18.6751 132.45C-18.6751 124.939 -16.5497 119.011 -12.299 114.664C-8.01633 110.286 -2.19957 108.096 5.15128 108.096C10.3288 108.096 14.8512 109.311 18.7184 111.74C22.6175 114.169 25.6058 117.7 27.6832 122.335C29.7607 126.937 30.7994 132.434 30.7994 138.826ZM5.43892 119.985C2.37074 119.985 -0.0262752 121.04 -1.75213 123.15C-3.47798 125.259 -4.34091 128.295 -4.34091 132.258C-4.34091 135.646 -3.55788 138.331 -1.99183 140.312C-0.425778 142.294 1.95526 143.284 5.15128 143.284C8.15554 143.284 10.7283 142.31 12.8697 140.36C15.011 138.379 16.0817 136.109 16.0817 133.553C16.0817 129.749 15.0749 126.537 13.0614 123.917C11.0799 121.296 8.53906 119.985 5.43892 119.985ZM86.7937 143.956C86.7937 156.196 84.7802 165.257 80.7532 171.138C76.7582 177.018 70.5898 179.959 62.2482 179.959C54.1623 179.959 48.0579 176.923 43.935 170.85C39.8441 164.778 37.7986 155.813 37.7986 143.956C37.7986 131.587 39.7962 122.478 43.7912 116.63C47.7862 110.749 53.9386 107.809 62.2482 107.809C70.3342 107.809 76.4386 110.877 80.5614 117.013C84.7163 123.15 86.7937 132.13 86.7937 143.956ZM52.5163 143.956C52.5163 152.553 53.2514 158.721 54.7216 162.461C56.2237 166.168 58.7326 168.022 62.2482 168.022C65.6999 168.022 68.1928 166.136 69.7269 162.365C71.261 158.593 72.028 152.457 72.028 143.956C72.028 135.358 71.245 129.19 69.679 125.451C68.1449 121.679 65.668 119.794 62.2482 119.794C58.7646 119.794 56.2717 121.679 54.7695 125.451C53.2674 129.19 52.5163 135.358 52.5163 143.956ZM105.442 129.909C105.442 133.968 105.794 137.004 106.497 139.018C107.232 140.999 108.399 141.99 109.997 141.99C113.065 141.99 114.599 137.963 114.599 129.909C114.599 121.919 113.065 117.924 109.997 117.924C108.399 117.924 107.232 118.915 106.497 120.896C105.794 122.846 105.442 125.85 105.442 129.909ZM126.68 129.813C126.68 137.164 125.258 142.693 122.413 146.401C119.569 150.076 115.398 151.914 109.901 151.914C104.627 151.914 100.553 150.028 97.6761 146.257C94.7997 142.453 93.3615 136.972 93.3615 129.813C93.3615 115.207 98.8746 107.904 109.901 107.904C115.302 107.904 119.441 109.806 122.317 113.609C125.226 117.381 126.68 122.782 126.68 129.813ZM159.663 108.911L120.783 179H109.278L148.157 108.911H159.663ZM154.533 157.906C154.533 161.965 154.885 165.001 155.588 167.015C156.323 168.996 157.49 169.987 159.088 169.987C162.156 169.987 163.69 165.96 163.69 157.906C163.69 149.916 162.156 145.921 159.088 145.921C157.49 145.921 156.323 146.912 155.588 148.893C154.885 150.843 154.533 153.847 154.533 157.906ZM175.771 157.81C175.771 165.129 174.349 170.642 171.504 174.35C168.66 178.025 164.489 179.863 158.992 179.863C153.718 179.863 149.643 177.977 146.767 174.206C143.891 170.403 142.452 164.937 142.452 157.81C142.452 143.205 147.966 135.902 158.992 135.902C164.393 135.902 168.532 137.803 171.408 141.607C174.317 145.378 175.771 150.779 175.771 157.81Z" fill="white" fill-opacity="0.05"/>
<path d="M241.799 107.826C241.799 121.633 238.891 131.94 233.074 138.748C227.257 145.555 218.452 148.959 206.659 148.959C202.504 148.959 199.356 148.735 197.215 148.288V136.398C199.9 137.07 202.712 137.405 205.652 137.405C210.606 137.405 214.681 136.686 217.877 135.248C221.073 133.778 223.518 131.493 225.212 128.392C226.906 125.26 227.881 120.962 228.136 115.496H227.561C225.707 118.501 223.566 120.61 221.137 121.825C218.708 123.039 215.672 123.646 212.028 123.646C205.924 123.646 201.114 121.697 197.598 117.798C194.083 113.866 192.325 108.417 192.325 101.45C192.325 93.9393 194.45 88.0107 198.701 83.6641C202.984 79.2855 208.8 77.0962 216.151 77.0962C221.329 77.0962 225.851 78.3107 229.718 80.7397C233.618 83.1687 236.606 86.7003 238.683 91.3345C240.761 95.9368 241.799 101.434 241.799 107.826ZM216.439 88.9854C213.371 88.9854 210.974 90.0401 209.248 92.1495C207.522 94.2589 206.659 97.2951 206.659 101.258C206.659 104.646 207.442 107.331 209.008 109.312C210.574 111.294 212.955 112.284 216.151 112.284C219.156 112.284 221.728 111.31 223.87 109.36C226.011 107.379 227.082 105.109 227.082 102.553C227.082 98.7493 226.075 95.5373 224.061 92.9166C222.08 90.2958 219.539 88.9854 216.439 88.9854ZM297.794 112.956C297.794 125.196 295.78 134.257 291.753 140.138C287.758 146.018 281.59 148.959 273.248 148.959C265.162 148.959 259.058 145.923 254.935 139.85C250.844 133.778 248.799 124.813 248.799 112.956C248.799 100.587 250.796 91.4783 254.791 85.6296C258.786 79.7489 264.939 76.8086 273.248 76.8086C281.334 76.8086 287.439 79.8768 291.561 86.0131C295.716 92.1495 297.794 101.13 297.794 112.956ZM263.516 112.956C263.516 121.553 264.251 127.721 265.722 131.461C267.224 135.168 269.733 137.022 273.248 137.022C276.7 137.022 279.193 135.136 280.727 131.365C282.261 127.593 283.028 121.457 283.028 112.956C283.028 104.358 282.245 98.19 280.679 94.4506C279.145 90.6793 276.668 88.7937 273.248 88.7937C269.765 88.7937 267.272 90.6793 265.77 94.4506C264.267 98.19 263.516 104.358 263.516 112.956ZM316.442 98.9091C316.442 102.968 316.794 106.004 317.497 108.018C318.232 109.999 319.399 110.99 320.997 110.99C324.065 110.99 325.599 106.963 325.599 98.9091C325.599 90.919 324.065 86.924 320.997 86.924C319.399 86.924 318.232 87.9148 317.497 89.8963C316.794 91.8459 316.442 94.8501 316.442 98.9091ZM337.68 98.8132C337.68 106.164 336.258 111.693 333.413 115.401C330.569 119.076 326.398 120.914 320.901 120.914C315.627 120.914 311.553 119.028 308.676 115.257C305.8 111.453 304.361 105.972 304.361 98.8132C304.361 84.2074 309.875 76.9045 320.901 76.9045C326.302 76.9045 330.441 78.8061 333.317 82.6094C336.226 86.3807 337.68 91.782 337.68 98.8132ZM370.663 77.9112L331.783 148H320.278L359.157 77.9112H370.663ZM365.533 126.906C365.533 130.965 365.885 134.001 366.588 136.015C367.323 137.996 368.49 138.987 370.088 138.987C373.156 138.987 374.69 134.96 374.69 126.906C374.69 118.916 373.156 114.921 370.088 114.921C368.49 114.921 367.323 115.912 366.588 117.893C365.885 119.843 365.533 122.847 365.533 126.906ZM386.771 126.81C386.771 134.129 385.349 139.642 382.504 143.35C379.66 147.025 375.489 148.863 369.992 148.863C364.718 148.863 360.643 146.977 357.767 143.206C354.891 139.403 353.452 133.937 353.452 126.81C353.452 112.205 358.966 104.902 369.992 104.902C375.393 104.902 379.532 106.803 382.408 110.607C385.317 114.378 386.771 119.779 386.771 126.81Z" fill="white" fill-opacity="0.05"/>
<path d="M452.799 76.826C452.799 90.6328 449.891 100.94 444.074 107.748C438.257 114.555 429.452 117.959 417.659 117.959C413.504 117.959 410.356 117.735 408.215 117.288V105.398C410.9 106.07 413.712 106.405 416.652 106.405C421.606 106.405 425.681 105.686 428.877 104.248C432.073 102.778 434.518 100.493 436.212 97.3924C437.906 94.2603 438.881 89.9616 439.136 84.4964H438.561C436.707 87.5007 434.566 89.6101 432.137 90.8246C429.708 92.0391 426.672 92.6463 423.028 92.6463C416.924 92.6463 412.114 90.6967 408.598 86.7976C405.083 82.8665 403.325 77.4173 403.325 70.4499C403.325 62.9393 405.45 57.0107 409.701 52.6641C413.984 48.2855 419.8 46.0962 427.151 46.0962C432.329 46.0962 436.851 47.3107 440.718 49.7397C444.618 52.1687 447.606 55.7003 449.683 60.3345C451.761 64.9368 452.799 70.4339 452.799 76.826ZM427.439 57.9854C424.371 57.9854 421.974 59.0401 420.248 61.1495C418.522 63.2589 417.659 66.2951 417.659 70.2582C417.659 73.646 418.442 76.3306 420.008 78.3121C421.574 80.2937 423.955 81.2844 427.151 81.2844C430.156 81.2844 432.728 80.3097 434.87 78.3601C437.011 76.3786 438.082 74.1094 438.082 71.5526C438.082 67.7493 437.075 64.5373 435.061 61.9166C433.08 59.2958 430.539 57.9854 427.439 57.9854ZM508.794 81.9556C508.794 94.1964 506.78 103.257 502.753 109.138C498.758 115.018 492.59 117.959 484.248 117.959C476.162 117.959 470.058 114.923 465.935 108.85C461.844 102.778 459.799 93.8129 459.799 81.9556C459.799 69.587 461.796 60.4783 465.791 54.6296C469.786 48.7489 475.939 45.8086 484.248 45.8086C492.334 45.8086 498.439 48.8768 502.561 55.0131C506.716 61.1495 508.794 70.1303 508.794 81.9556ZM474.516 81.9556C474.516 90.5529 475.251 96.7212 476.722 100.461C478.224 104.168 480.733 106.022 484.248 106.022C487.7 106.022 490.193 104.136 491.727 100.365C493.261 96.5934 494.028 90.457 494.028 81.9556C494.028 73.3583 493.245 67.19 491.679 63.4506C490.145 59.6793 487.668 57.7937 484.248 57.7937C480.765 57.7937 478.272 59.6793 476.77 63.4506C475.267 67.19 474.516 73.3583 474.516 81.9556ZM527.442 67.9091C527.442 71.968 527.794 75.0043 528.497 77.0178C529.232 78.9993 530.399 79.9901 531.997 79.9901C535.065 79.9901 536.599 75.9631 536.599 67.9091C536.599 59.919 535.065 55.924 531.997 55.924C530.399 55.924 529.232 56.9148 528.497 58.8963C527.794 60.8459 527.442 63.8501 527.442 67.9091ZM548.68 67.8132C548.68 75.1641 547.258 80.6932 544.413 84.4006C541.569 88.076 537.398 89.9137 531.901 89.9137C526.627 89.9137 522.553 88.0281 519.676 84.2567C516.8 80.4535 515.361 74.9723 515.361 67.8132C515.361 53.2074 520.875 45.9045 531.901 45.9045C537.302 45.9045 541.441 47.8061 544.317 51.6094C547.226 55.3807 548.68 60.782 548.68 67.8132ZM581.663 46.9112L542.783 117H531.278L570.157 46.9112H581.663ZM576.533 95.9062C576.533 99.9652 576.885 103.001 577.588 105.015C578.323 106.996 579.49 107.987 581.088 107.987C584.156 107.987 585.69 103.96 585.69 95.9062C585.69 87.9162 584.156 83.9212 581.088 83.9212C579.49 83.9212 578.323 84.9119 577.588 86.8935C576.885 88.843 576.533 91.8473 576.533 95.9062ZM597.771 95.8104C597.771 103.129 596.349 108.642 593.504 112.35C590.66 116.025 586.489 117.863 580.992 117.863C575.718 117.863 571.643 115.977 568.767 112.206C565.891 108.403 564.452 102.937 564.452 95.8104C564.452 81.2045 569.966 73.9016 580.992 73.9016C586.393 73.9016 590.532 75.8033 593.408 79.6065C596.317 83.3778 597.771 88.7791 597.771 95.8104Z" fill="white" fill-opacity="0.05"/>
<path d="M206.799 205.826C206.799 219.633 203.891 229.94 198.074 236.748C192.257 243.555 183.452 246.959 171.659 246.959C167.504 246.959 164.356 246.735 162.215 246.288V234.398C164.9 235.07 167.712 235.405 170.652 235.405C175.606 235.405 179.681 234.686 182.877 233.248C186.073 231.778 188.518 229.493 190.212 226.392C191.906 223.26 192.881 218.962 193.136 213.496H192.561C190.707 216.501 188.566 218.61 186.137 219.825C183.708 221.039 180.672 221.646 177.028 221.646C170.924 221.646 166.114 219.697 162.598 215.798C159.083 211.866 157.325 206.417 157.325 199.45C157.325 191.939 159.45 186.011 163.701 181.664C167.984 177.286 173.8 175.096 181.151 175.096C186.329 175.096 190.851 176.311 194.718 178.74C198.618 181.169 201.606 184.7 203.683 189.335C205.761 193.937 206.799 199.434 206.799 205.826ZM181.439 186.985C178.371 186.985 175.974 188.04 174.248 190.15C172.522 192.259 171.659 195.295 171.659 199.258C171.659 202.646 172.442 205.331 174.008 207.312C175.574 209.294 177.955 210.284 181.151 210.284C184.156 210.284 186.728 209.31 188.87 207.36C191.011 205.379 192.082 203.109 192.082 200.553C192.082 196.749 191.075 193.537 189.061 190.917C187.08 188.296 184.539 186.985 181.439 186.985ZM262.794 210.956C262.794 223.196 260.78 232.257 256.753 238.138C252.758 244.018 246.59 246.959 238.248 246.959C230.162 246.959 224.058 243.923 219.935 237.85C215.844 231.778 213.799 222.813 213.799 210.956C213.799 198.587 215.796 189.478 219.791 183.63C223.786 177.749 229.939 174.809 238.248 174.809C246.334 174.809 252.439 177.877 256.561 184.013C260.716 190.15 262.794 199.13 262.794 210.956ZM228.516 210.956C228.516 219.553 229.251 225.721 230.722 229.461C232.224 233.168 234.733 235.022 238.248 235.022C241.7 235.022 244.193 233.136 245.727 229.365C247.261 225.593 248.028 219.457 248.028 210.956C248.028 202.358 247.245 196.19 245.679 192.451C244.145 188.679 241.668 186.794 238.248 186.794C234.765 186.794 232.272 188.679 230.77 192.451C229.267 196.19 228.516 202.358 228.516 210.956ZM281.442 196.909C281.442 200.968 281.794 204.004 282.497 206.018C283.232 207.999 284.399 208.99 285.997 208.99C289.065 208.99 290.599 204.963 290.599 196.909C290.599 188.919 289.065 184.924 285.997 184.924C284.399 184.924 283.232 185.915 282.497 187.896C281.794 189.846 281.442 192.85 281.442 196.909ZM302.68 196.813C302.68 204.164 301.258 209.693 298.413 213.401C295.569 217.076 291.398 218.914 285.901 218.914C280.627 218.914 276.553 217.028 273.676 213.257C270.8 209.453 269.361 203.972 269.361 196.813C269.361 182.207 274.875 174.904 285.901 174.904C291.302 174.904 295.441 176.806 298.317 180.609C301.226 184.381 302.68 189.782 302.68 196.813ZM335.663 175.911L296.783 246H285.278L324.157 175.911H335.663ZM330.533 224.906C330.533 228.965 330.885 232.001 331.588 234.015C332.323 235.996 333.49 236.987 335.088 236.987C338.156 236.987 339.69 232.96 339.69 224.906C339.69 216.916 338.156 212.921 335.088 212.921C333.49 212.921 332.323 213.912 331.588 215.893C330.885 217.843 330.533 220.847 330.533 224.906ZM351.771 224.81C351.771 232.129 350.349 237.642 347.504 241.35C344.66 245.025 340.489 246.863 334.992 246.863C329.718 246.863 325.643 244.977 322.767 241.206C319.891 237.403 318.452 231.937 318.452 224.81C318.452 210.205 323.966 202.902 334.992 202.902C340.393 202.902 344.532 204.803 347.408 208.607C350.317 212.378 351.771 217.779 351.771 224.81Z" fill="white" fill-opacity="0.05"/>
<path d="M417.799 174.826C417.799 188.633 414.891 198.94 409.074 205.748C403.257 212.555 394.452 215.959 382.659 215.959C378.504 215.959 375.356 215.735 373.215 215.288V203.398C375.9 204.07 378.712 204.405 381.652 204.405C386.606 204.405 390.681 203.686 393.877 202.248C397.073 200.778 399.518 198.493 401.212 195.392C402.906 192.26 403.881 187.962 404.136 182.496H403.561C401.707 185.501 399.566 187.61 397.137 188.825C394.708 190.039 391.672 190.646 388.028 190.646C381.924 190.646 377.114 188.697 373.598 184.798C370.083 180.866 368.325 175.417 368.325 168.45C368.325 160.939 370.45 155.011 374.701 150.664C378.984 146.286 384.8 144.096 392.151 144.096C397.329 144.096 401.851 145.311 405.718 147.74C409.618 150.169 412.606 153.7 414.683 158.335C416.761 162.937 417.799 168.434 417.799 174.826ZM392.439 155.985C389.371 155.985 386.974 157.04 385.248 159.15C383.522 161.259 382.659 164.295 382.659 168.258C382.659 171.646 383.442 174.331 385.008 176.312C386.574 178.294 388.955 179.284 392.151 179.284C395.156 179.284 397.728 178.31 399.87 176.36C402.011 174.379 403.082 172.109 403.082 169.553C403.082 165.749 402.075 162.537 400.061 159.917C398.08 157.296 395.539 155.985 392.439 155.985ZM473.794 179.956C473.794 192.196 471.78 201.257 467.753 207.138C463.758 213.018 457.59 215.959 449.248 215.959C441.162 215.959 435.058 212.923 430.935 206.85C426.844 200.778 424.799 191.813 424.799 179.956C424.799 167.587 426.796 158.478 430.791 152.63C434.786 146.749 440.939 143.809 449.248 143.809C457.334 143.809 463.439 146.877 467.561 153.013C471.716 159.15 473.794 168.13 473.794 179.956ZM439.516 179.956C439.516 188.553 440.251 194.721 441.722 198.461C443.224 202.168 445.733 204.022 449.248 204.022C452.7 204.022 455.193 202.136 456.727 198.365C458.261 194.593 459.028 188.457 459.028 179.956C459.028 171.358 458.245 165.19 456.679 161.451C455.145 157.679 452.668 155.794 449.248 155.794C445.765 155.794 443.272 157.679 441.77 161.451C440.267 165.19 439.516 171.358 439.516 179.956ZM492.442 165.909C492.442 169.968 492.794 173.004 493.497 175.018C494.232 176.999 495.399 177.99 496.997 177.99C500.065 177.99 501.599 173.963 501.599 165.909C501.599 157.919 500.065 153.924 496.997 153.924C495.399 153.924 494.232 154.915 493.497 156.896C492.794 158.846 492.442 161.85 492.442 165.909ZM513.68 165.813C513.68 173.164 512.258 178.693 509.413 182.401C506.569 186.076 502.398 187.914 496.901 187.914C491.627 187.914 487.553 186.028 484.676 182.257C481.8 178.453 480.361 172.972 480.361 165.813C480.361 151.207 485.875 143.904 496.901 143.904C502.302 143.904 506.441 145.806 509.317 149.609C512.226 153.381 513.68 158.782 513.68 165.813ZM546.663 144.911L507.783 215H496.278L535.157 144.911H546.663ZM541.533 193.906C541.533 197.965 541.885 201.001 542.588 203.015C543.323 204.996 544.49 205.987 546.088 205.987C549.156 205.987 550.69 201.96 550.69 193.906C550.69 185.916 549.156 181.921 546.088 181.921C544.49 181.921 543.323 182.912 542.588 184.893C541.885 186.843 541.533 189.847 541.533 193.906ZM562.771 193.81C562.771 201.129 561.349 206.642 558.504 210.35C555.66 214.025 551.489 215.863 545.992 215.863C540.718 215.863 536.643 213.977 533.767 210.206C530.891 206.403 529.452 200.937 529.452 193.81C529.452 179.205 534.966 171.902 545.992 171.902C551.393 171.902 555.532 173.803 558.408 177.607C561.317 181.378 562.771 186.779 562.771 193.81Z" fill="white" fill-opacity="0.05"/>
</g>
<path d="M26.4956 182.893V17.1074" stroke="#FFA1A1" stroke-width="2" stroke-miterlimit="10" stroke-linecap="round" stroke-dasharray="6 6"/>
<path d="M428.019 17.1074V182.893" stroke="#FFA1A1" stroke-width="2" stroke-miterlimit="10" stroke-linecap="round" stroke-dasharray="6 6"/>
<path d="M288.77 92C288.77 96.6302 289.171 100.094 289.973 102.391C290.812 104.651 292.142 105.781 293.965 105.781C297.465 105.781 299.215 101.188 299.215 92C299.215 82.8854 297.465 78.3281 293.965 78.3281C292.142 78.3281 290.812 79.4583 289.973 81.7188C289.171 83.9427 288.77 87.3698 288.77 92ZM312.997 91.8906C312.997 100.276 311.374 106.583 308.129 110.812C304.885 115.005 300.127 117.102 293.856 117.102C287.84 117.102 283.192 114.951 279.911 110.648C276.629 106.31 274.989 100.057 274.989 91.8906C274.989 75.2292 281.278 66.8984 293.856 66.8984C300.017 66.8984 304.739 69.0677 308.02 73.4062C311.338 77.7083 312.997 83.8698 312.997 91.8906ZM350.622 68.0469L306.27 148H293.145L337.497 68.0469H350.622ZM344.77 123.938C344.77 128.568 345.171 132.031 345.973 134.328C346.812 136.589 348.142 137.719 349.965 137.719C353.465 137.719 355.215 133.125 355.215 123.938C355.215 114.823 353.465 110.266 349.965 110.266C348.142 110.266 346.812 111.396 345.973 113.656C345.171 115.88 344.77 119.307 344.77 123.938ZM368.997 123.828C368.997 132.177 367.374 138.466 364.129 142.695C360.885 146.888 356.127 148.984 349.856 148.984C343.84 148.984 339.192 146.833 335.911 142.531C332.629 138.193 330.989 131.958 330.989 123.828C330.989 107.167 337.278 98.8359 349.856 98.8359C356.017 98.8359 360.739 101.005 364.02 105.344C367.338 109.646 368.997 115.807 368.997 123.828Z" fill="#FF5C00"/>
<path d="M169.245 99.0204C169.245 122.04 164.396 139.224 154.698 150.574C145 161.924 130.32 167.599 110.658 167.599C103.731 167.599 98.4824 167.226 94.9123 166.48V146.657C99.3882 147.776 104.077 148.336 108.98 148.336C117.239 148.336 124.033 147.137 129.361 144.739C134.69 142.288 138.766 138.478 141.59 133.309C144.414 128.088 146.039 120.921 146.466 111.809H145.507C142.416 116.818 138.846 120.335 134.796 122.359C130.747 124.384 125.684 125.397 119.61 125.397C109.432 125.397 101.413 122.146 95.5517 115.645C89.6903 109.091 86.7596 100.006 86.7596 88.39C86.7596 75.868 90.3031 65.9836 97.39 58.7368C104.53 51.4367 114.228 47.7867 126.484 47.7867C135.116 47.7867 142.656 49.8115 149.103 53.8612C155.604 57.9109 160.586 63.7989 164.05 71.5252C167.513 79.1983 169.245 88.3634 169.245 99.0204ZM126.963 67.6088C121.848 67.6088 117.852 69.3672 114.974 72.884C112.097 76.4008 110.658 81.4629 110.658 88.0703C110.658 93.7186 111.964 98.1945 114.575 101.498C117.185 104.802 121.155 106.454 126.484 106.454C131.493 106.454 135.782 104.829 139.352 101.578C142.922 98.2744 144.707 94.4912 144.707 90.2284C144.707 83.8874 143.029 78.5323 139.672 74.1629C136.368 69.7935 132.132 67.6088 126.963 67.6088ZM262.601 107.573C262.601 127.981 259.244 143.087 252.53 152.892C245.869 162.696 235.585 167.599 221.678 167.599C208.197 167.599 198.019 162.536 191.145 152.412C184.325 142.288 180.915 127.342 180.915 107.573C180.915 86.9513 184.245 71.765 190.906 62.0138C197.566 52.2093 207.824 47.3071 221.678 47.3071C235.159 47.3071 245.337 52.4225 252.21 62.6532C259.137 72.884 262.601 87.8572 262.601 107.573ZM205.453 107.573C205.453 121.906 206.678 132.191 209.129 138.425C211.634 144.606 215.817 147.697 221.678 147.697C227.433 147.697 231.589 144.553 234.147 138.265C236.704 131.977 237.983 121.747 237.983 107.573C237.983 93.239 236.678 82.9549 234.067 76.7206C231.509 70.4329 227.379 67.2891 221.678 67.2891C215.87 67.2891 211.714 70.4329 209.209 76.7206C206.705 82.9549 205.453 93.239 205.453 107.573Z" fill="#FF5C00"/>
<path d="M283.77 86C283.77 90.6302 284.171 94.0938 284.973 96.3906C285.812 98.651 287.142 99.7812 288.965 99.7812C292.465 99.7812 294.215 95.1875 294.215 86C294.215 76.8854 292.465 72.3281 288.965 72.3281C287.142 72.3281 285.812 73.4583 284.973 75.7188C284.171 77.9427 283.77 81.3698 283.77 86ZM307.997 85.8906C307.997 94.276 306.374 100.583 303.129 104.812C299.885 109.005 295.127 111.102 288.856 111.102C282.84 111.102 278.192 108.951 274.911 104.648C271.629 100.31 269.989 94.0573 269.989 85.8906C269.989 69.2292 276.278 60.8984 288.856 60.8984C295.017 60.8984 299.739 63.0677 303.02 67.4062C306.338 71.7083 307.997 77.8698 307.997 85.8906ZM345.622 62.0469L301.27 142H288.145L332.497 62.0469H345.622ZM339.77 117.938C339.77 122.568 340.171 126.031 340.973 128.328C341.812 130.589 343.142 131.719 344.965 131.719C348.465 131.719 350.215 127.125 350.215 117.938C350.215 108.823 348.465 104.266 344.965 104.266C343.142 104.266 341.812 105.396 340.973 107.656C340.171 109.88 339.77 113.307 339.77 117.938ZM363.997 117.828C363.997 126.177 362.374 132.466 359.129 136.695C355.885 140.888 351.127 142.984 344.856 142.984C338.84 142.984 334.192 140.833 330.911 136.531C327.629 132.193 325.989 125.958 325.989 117.828C325.989 101.167 332.278 92.8359 344.856 92.8359C351.017 92.8359 355.739 95.0052 359.02 99.3438C362.338 103.646 363.997 109.807 363.997 117.828Z" fill="#FFD701"/>
<path d="M164.245 93.0204C164.245 116.04 159.396 133.224 149.698 144.574C140 155.924 125.32 161.599 105.658 161.599C98.731 161.599 93.4824 161.226 89.9123 160.48V140.657C94.3882 141.776 99.0773 142.336 103.98 142.336C112.239 142.336 119.033 141.137 124.361 138.739C129.69 136.288 133.766 132.478 136.59 127.309C139.414 122.088 141.039 114.921 141.466 105.809H140.507C137.416 110.818 133.846 114.335 129.796 116.359C125.747 118.384 120.684 119.397 114.61 119.397C104.432 119.397 96.4131 116.146 90.5517 109.645C84.6903 103.091 81.7596 94.0062 81.7596 82.39C81.7596 69.868 85.3031 59.9836 92.39 52.7368C99.5302 45.4367 109.228 41.7867 121.484 41.7867C130.116 41.7867 137.656 43.8115 144.103 47.8612C150.604 51.9109 155.586 57.7989 159.05 65.5252C162.513 73.1983 164.245 82.3634 164.245 93.0204ZM121.963 61.6088C116.848 61.6088 112.852 63.3672 109.974 66.884C107.097 70.4008 105.658 75.4629 105.658 82.0703C105.658 87.7186 106.964 92.1945 109.575 95.4982C112.185 98.8019 116.155 100.454 121.484 100.454C126.493 100.454 130.782 98.8285 134.352 95.5781C137.922 92.2744 139.707 88.4912 139.707 84.2284C139.707 77.8874 138.029 72.5323 134.672 68.1629C131.368 63.7935 127.132 61.6088 121.963 61.6088ZM257.601 101.573C257.601 121.981 254.244 137.087 247.53 146.892C240.869 156.696 230.585 161.599 216.678 161.599C203.197 161.599 193.019 156.536 186.145 146.412C179.325 136.288 175.915 121.342 175.915 101.573C175.915 80.9513 179.245 65.765 185.906 56.0138C192.566 46.2093 202.824 41.3071 216.678 41.3071C230.159 41.3071 240.337 46.4225 247.21 56.6532C254.137 66.884 257.601 81.8572 257.601 101.573ZM200.453 101.573C200.453 115.906 201.678 126.191 204.129 132.425C206.634 138.606 210.817 141.697 216.678 141.697C222.433 141.697 226.589 138.553 229.147 132.265C231.704 125.977 232.983 115.747 232.983 101.573C232.983 87.239 231.678 76.9549 229.067 70.7206C226.509 64.4329 222.379 61.2891 216.678 61.2891C210.87 61.2891 206.714 64.4329 204.209 70.7206C201.705 76.9549 200.453 87.239 200.453 101.573Z" fill="#FFD701"/>
<defs>
<linearGradient id="paint0_linear" x1="0.0208787" y1="2.02563e-05" x2="452.741" y2="200.282" gradientUnits="userSpaceOnUse">
<stop stop-color="#FF1C29"/>
<stop offset="1" stop-color="#B6000B"/>
</linearGradient>
<linearGradient id="paint1_linear" x1="0.0208787" y1="2.02563e-05" x2="452.741" y2="200.282" gradientUnits="userSpaceOnUse">
<stop stop-color="#FF1C29"/>
<stop offset="1" stop-color="#B6000B"/>
</linearGradient>
</defs>
</svg>
