<svg width="37" height="37" viewBox="0 0 37 37" fill="none" xmlns="http://www.w3.org/2000/svg">
<path d="M18.7539 12.5743C18.7251 12.5344 18.6873 12.5019 18.6435 12.4794C18.5997 12.457 18.5512 12.4453 18.502 12.4453C18.4527 12.4453 18.4042 12.457 18.3604 12.4794C18.3166 12.5019 18.2788 12.5344 18.25 12.5743L11.2969 22.1837C11.1484 22.3907 11.2969 22.6798 11.5508 22.6798H13.3828C13.7813 22.6798 14.1602 22.4884 14.3945 22.1642L18.5 16.4845L22.6094 22.1642C22.8438 22.4884 23.2188 22.6798 23.6211 22.6798H25.4531C25.707 22.6798 25.8555 22.3907 25.707 22.1837L18.7539 12.5743Z" fill="url(#paint0_linear)"/>
<path d="M27.6437 3.57872C19.4038 -1.47074 8.62827 1.11623 3.57881 9.3562C-1.47065 17.5962 1.11632 28.3717 9.35629 33.4211C17.5963 38.4706 28.3718 35.8836 33.4212 27.6436C38.4707 19.4037 35.8837 8.62818 27.6437 3.57872ZM10.9075 30.8899C4.06635 26.6976 1.91785 17.7485 6.11009 10.9074C10.3023 4.06626 19.2515 1.91776 26.0926 6.11C32.9337 10.3022 35.0822 19.2514 30.8899 26.0925C26.6977 32.9336 17.7486 35.0821 10.9075 30.8899Z" fill="url(#paint1_linear)"/>
<defs>
<linearGradient id="paint0_linear" x1="18.5" y1="12" x2="22.4751" y2="21.3012" gradientUnits="userSpaceOnUse">
<stop stop-color="#333333"/>
<stop offset="0.614583" stop-color="#333333"/>
<stop offset="1"/>
</linearGradient>
<linearGradient id="paint1_linear" x1="27.2174" y1="3.31747" x2="29.6549" y2="31.3583" gradientUnits="userSpaceOnUse">
<stop stop-color="#333333"/>
<stop offset="0.4375" stop-color="#333333"/>
<stop offset="1"/>
</linearGradient>
</defs>
</svg>
