<svg width="334" height="81" viewBox="0 0 334 81" fill="none" xmlns="http://www.w3.org/2000/svg">
<rect x="85.0181" width="248.982" height="80.9697" fill="url(#paint0_linear)"/>
<rect width="87.2955" height="80.9697" fill="#FF1C29"/>
<path d="M38.0262 46.2204L42.1343 40.9695L51.802 30.4678H62.4273L48.7133 45.4482L63.2613 65H52.3889L42.4431 51.008L38.3969 54.2512V65H28.9762V16.9391H38.3969V38.375L37.9027 46.2204H38.0262Z" fill="white"/>
<path d="M116.791 40.7186H118.304C119.717 40.7186 120.775 40.4419 121.476 39.8884C122.178 39.325 122.529 38.5096 122.529 37.4421C122.529 36.3647 122.232 35.5691 121.639 35.0551C121.056 34.5411 120.137 34.2842 118.882 34.2842H116.791V40.7186ZM127.169 37.279C127.169 39.6116 126.438 41.3957 124.975 42.6312C123.522 43.8667 121.452 44.4845 118.763 44.4845H116.791V52.194H112.195V30.5184H119.119C121.748 30.5184 123.745 31.0867 125.109 32.2234C126.483 33.3501 127.169 35.0353 127.169 37.279ZM143.745 52.194H131.261V30.5184H143.745V34.2842H135.858V39.0433H143.196V42.8091H135.858V48.3985H143.745V52.194ZM157.489 34.0321C155.759 34.0321 154.42 34.6845 153.471 35.9892C152.522 37.284 152.048 39.0927 152.048 41.4155C152.048 46.2487 153.861 48.6654 157.489 48.6654C159.011 48.6654 160.854 48.2848 163.019 47.5238V51.3785C161.24 52.1198 159.253 52.4905 157.059 52.4905C153.906 52.4905 151.494 51.5367 149.824 49.6291C148.153 47.7116 147.318 44.9638 147.318 41.3858C147.318 39.1323 147.728 37.1604 148.549 35.4702C149.369 33.7702 150.545 32.4705 152.077 31.571C153.619 30.6617 155.423 30.207 157.489 30.207C159.594 30.207 161.709 30.716 163.834 31.7341L162.352 35.4702C161.541 35.0848 160.726 34.7487 159.905 34.4621C159.085 34.1754 158.279 34.0321 157.489 34.0321ZM159.772 55.9005C159.772 57.1656 159.396 58.0799 158.645 58.6433C157.904 59.2067 156.752 59.4884 155.191 59.4884C154.42 59.4884 153.698 59.3846 153.026 59.177V56.6862C153.293 56.7554 153.649 56.8246 154.093 56.8938C154.548 56.963 154.899 56.9976 155.146 56.9976C155.858 56.9976 156.214 56.6912 156.214 56.0784C156.214 55.258 155.393 54.7243 153.752 54.4772L154.909 52.194H157.77L157.37 53.0984C158.101 53.3356 158.685 53.7013 159.12 54.1955C159.554 54.6996 159.772 55.2679 159.772 55.9005ZM180.914 52.194L179.342 47.0345H171.44L169.868 52.194H164.916L172.567 30.4294H178.186L185.866 52.194H180.914ZM178.245 43.1798C176.792 38.5046 175.972 35.8607 175.784 35.2479C175.606 34.635 175.478 34.1507 175.398 33.7949C175.072 35.0601 174.138 38.1883 172.596 43.1798H178.245ZM216.17 41.3265C216.17 44.9144 215.28 47.672 213.501 49.5994C211.722 51.5268 209.172 52.4905 205.851 52.4905C202.53 52.4905 199.98 51.5268 198.201 49.5994C196.422 47.672 195.532 44.9045 195.532 41.2969C195.532 37.6892 196.422 34.9365 198.201 33.0388C199.99 31.1312 202.55 30.1774 205.881 30.1774C209.212 30.1774 211.757 31.1361 213.516 33.0536C215.285 34.9711 216.17 37.7287 216.17 41.3265ZM200.351 41.3265C200.351 43.7481 200.81 45.5717 201.729 46.7973C202.649 48.0229 204.023 48.6357 205.851 48.6357C209.518 48.6357 211.351 46.1993 211.351 41.3265C211.351 36.4438 209.528 34.0025 205.881 34.0025C204.052 34.0025 202.673 34.6202 201.744 35.8557C200.815 37.0813 200.351 38.9049 200.351 41.3265ZM239.892 52.194H234.05L224.621 35.7964H224.487C224.675 38.6924 224.769 40.7582 224.769 41.9937V52.194H220.662V30.5184H226.459L235.874 46.7528H235.977C235.829 43.9359 235.755 41.9443 235.755 40.778V30.5184H239.892V52.194ZM245.362 52.194V30.5184H249.958V48.3985H258.75V52.194H245.362ZM262.531 52.194V30.5184H267.127V52.194H262.531ZM291.812 52.194H285.971L276.541 35.7964H276.408C276.596 38.6924 276.69 40.7582 276.69 41.9937V52.194H272.583V30.5184H278.38L287.794 46.7528H287.898C287.75 43.9359 287.676 41.9443 287.676 40.778V30.5184H291.812V52.194ZM309.766 52.194H297.283V30.5184H309.766V34.2842H301.879V39.0433H309.218V42.8091H301.879V48.3985H309.766V52.194Z" fill="white"/>
<defs>
<linearGradient id="paint0_linear" x1="85.0181" y1="0" x2="321.11" y2="108.912" gradientUnits="userSpaceOnUse">
<stop stop-color="#333333"/>
<stop offset="1"/>
</linearGradient>
</defs>
</svg>
