<svg width="127" height="114" viewBox="0 0 127 114" fill="none" xmlns="http://www.w3.org/2000/svg">
<path opacity="0.75" d="M25.4099 101.541C43.2715 112.95 63.5297 114.666 79.264 112.042C100.504 108.503 107.497 98.9833 110.58 93.8714C112.112 91.3381 120.95 76.7309 118.883 63.2609C117.892 56.7982 115.164 55.6423 114.768 48.8699C114.181 38.8382 119.798 34.9408 119.788 26.5694C119.788 16.4256 111.662 6.79956 105.732 3.52415C90.6417 -4.80183 74.3492 3.24118 65.7526 10.9719C57.1561 18.7026 46.5865 24.9624 33.5245 18.812C20.4626 12.6616 5.69853 21.2306 2.00874 35.779C-1.97961 51.5127 -2.62379 83.6207 25.4099 101.541Z" fill="url(#paint0_linear)"/>
<path opacity="0.75" d="M18.8127 109.277C37.8447 121.74 77.0801 103.18 93.6436 102.798C138.335 101.765 134.754 42.7357 96.6065 21.5857C55.5742 -1.16327 15.2703 -1.83864 8.61606 48.5978C8.65501 48.6111 -3.18361 94.8736 18.8127 109.277Z" fill="url(#paint1_linear)"/>
<path d="M86.2472 44.3654C84.8639 42.9814 83.2215 41.8836 81.4138 41.1345C79.6061 40.3855 77.6686 40 75.7118 40C73.7551 40 71.8175 40.3855 70.0098 41.1345C68.2021 41.8836 66.5597 42.9814 65.1764 44.3654L62.3056 47.2362L59.4347 44.3654C56.6406 41.5712 52.8509 40.0014 48.8993 40.0014C44.9478 40.0014 41.1581 41.5712 38.3639 44.3654C35.5697 47.1595 34 50.9492 34 54.9008C34 58.8523 35.5697 62.642 38.3639 65.4362L41.2347 68.307L62.3056 89.3779L83.3764 68.307L86.2472 65.4362C87.6312 64.0529 88.729 62.4105 89.4781 60.6028C90.2271 58.7951 90.6126 56.8575 90.6126 54.9008C90.6126 52.944 90.2271 51.0065 89.4781 49.1988C88.729 47.3911 87.6312 45.7487 86.2472 44.3654V44.3654Z" stroke="white" stroke-width="2" stroke-linecap="round" stroke-linejoin="round"/>
<defs>
<linearGradient id="paint0_linear" x1="-3.98826e-10" y1="56.6622" x2="119.822" y2="56.6408" gradientUnits="userSpaceOnUse">
<stop stop-color="#B6000B"/>
<stop offset="1" stop-color="#FF1C29"/>
</linearGradient>
<linearGradient id="paint1_linear" x1="126.19" y1="56.1862" x2="6.5121" y2="56.1862" gradientUnits="userSpaceOnUse">
<stop stop-color="#FF1C29"/>
<stop offset="1" stop-color="#B6000B"/>
</linearGradient>
</defs>
</svg>
