<svg width="127" height="114" viewBox="0 0 127 114" fill="none" xmlns="http://www.w3.org/2000/svg">
<path opacity="0.75" d="M25.4099 101.541C43.2715 112.95 63.5297 114.666 79.264 112.042C100.504 108.503 107.497 98.9833 110.58 93.8714C112.112 91.3381 120.95 76.7309 118.883 63.2609C117.892 56.7982 115.164 55.6423 114.768 48.8699C114.181 38.8382 119.798 34.9408 119.788 26.5694C119.788 16.4256 111.662 6.79956 105.732 3.52415C90.6417 -4.80183 74.3492 3.24118 65.7526 10.9719C57.1561 18.7026 46.5865 24.9624 33.5245 18.812C20.4626 12.6616 5.69853 21.2306 2.00874 35.779C-1.97961 51.5127 -2.62379 83.6207 25.4099 101.541Z" fill="url(#paint0_linear)"/>
<path opacity="0.75" d="M18.8127 109.277C37.8447 121.74 77.0801 103.18 93.6436 102.798C138.335 101.765 134.754 42.7357 96.6065 21.5857C55.5742 -1.16327 15.2703 -1.83864 8.61606 48.5978C8.65501 48.6111 -3.18361 94.8736 18.8127 109.277Z" fill="url(#paint1_linear)"/>
<path d="M90.5505 48.278H79.5278C77.6257 48.278 76.0781 49.8263 76.0781 51.7296V64.4166H71.9551C72.1843 63.5837 72.2692 62.6012 72.2135 61.4578V61.4577C72.124 56.626 71.2472 52.5538 69.6074 49.3543C68.334 46.8702 66.8481 45.3809 65.5729 44.4906C67.0696 42.9518 67.9349 40.7627 67.9349 38.238C67.9349 33.6955 64.3113 30 59.8574 30C55.4034 30 51.7798 33.6955 51.7798 38.238C51.7798 38.764 52.2061 39.1902 52.732 39.1902H53.3789C53.3194 39.5495 53.2876 39.9156 53.2876 40.2874C53.2876 43.4887 55.5751 46.1642 58.5994 46.7638C58.2824 47.941 58.1248 49.3289 58.1255 50.9057L55.7507 52.9483L49.9724 53.4156L43.3069 51.2122C42.696 51.009 42.0036 50.7795 41.4029 51.2127C40.8109 51.6399 40.8109 52.3878 40.8109 52.6334V57.5891C40.8109 58.115 41.2372 58.5412 41.763 58.5412H42.8966L41.158 64.5492C41.0118 65.0542 41.3028 65.5823 41.808 65.7284C42.3134 65.8753 42.8411 65.5836 42.9874 65.0786L44.8792 58.5412H47.5861C44.2193 68.8082 46.1404 75.6614 49.0932 82.597H47.3816L40.2528 74.6261L41.7602 69.4185C41.9065 68.9133 41.6155 68.3853 41.1104 68.2392C40.6052 68.0931 40.0772 68.3841 39.931 68.8891L38.4892 73.8704C34.0298 73.796 30.0409 76.8705 29.0244 81.294C28.9067 81.8063 29.2265 82.3172 29.7387 82.435L31.0904 82.7461C30.7451 86.3328 33.1071 89.7167 36.7093 90.5458C37.2563 90.6719 37.808 90.7341 38.356 90.7341C39.7073 90.7341 41.0348 90.3553 42.209 89.6193C43.5871 88.7558 44.6139 87.4863 45.1696 85.9859L46.2361 86.2313C46.5539 86.3048 46.8553 86.342 47.1564 86.1799C47.4366 86.0291 47.6228 85.7568 47.6927 85.4494C47.7597 85.1377 47.8107 84.821 47.8461 84.5013H67.7598C68.3966 88.4606 71.7653 91.4452 75.7886 91.4452C79.8119 91.4452 83.1808 88.4606 83.8176 84.5013H84.5442C84.5442 84.5013 84.6885 84.503 84.7213 84.503C84.9937 84.503 85.387 84.4728 85.7099 84.1442C85.8715 83.9798 86.0612 83.6856 86.0466 83.2183C86.0198 82.3242 85.8856 81.4603 85.6566 80.6391C86.415 76.0348 85.6853 73.2305 84.6035 71.0359C85.2874 70.5876 85.7409 69.8152 85.7409 68.9377V66.3208H90.5503C92.4524 66.3208 94 64.7725 94 62.8692V51.7295C94.0003 49.8263 92.4528 48.278 90.5505 48.278V48.278ZM41.1978 88.006C39.979 88.7699 38.5368 89.0127 37.1367 88.6904H37.1366C34.5597 88.0973 32.8405 85.7343 32.9658 83.1792L43.2938 85.5563C42.8665 86.5624 42.1435 87.4134 41.1978 88.006V88.006ZM45.9621 84.2144L31.1511 80.8062C32.2941 77.6763 35.3699 75.6044 38.732 75.7827L45.9875 83.8951C45.9812 84.0021 45.9728 84.1085 45.9621 84.2144ZM60.3441 67.6222C60.0677 68.3512 60.0677 69.2499 60.0677 70.4939V74.0869H56.5812V69.1576C56.5812 63.5846 59.6227 62.5914 60.9877 62.4275H70.3225C70.2849 63.6924 69.9995 64.5914 69.4577 65.1621C68.8262 65.8271 67.7457 66.1511 66.1543 66.1526L62.7365 66.1561C61.5178 66.1563 60.7129 66.6494 60.3441 67.6222V67.6222ZM60.0677 75.9911V78.2646C60.0591 78.2646 60.0502 78.2646 60.0411 78.2646H53.2779C53.3539 77.5595 53.5735 77.0138 53.9342 76.6363C54.4707 76.0749 55.2263 75.9911 55.629 75.9911H60.0677ZM70.2805 60.5233H61.6214C61.2736 59.4291 60.9636 58.2309 60.7087 56.9995L63.3413 55.2907C64.7785 54.3575 65.5261 53.0388 65.3925 51.6726C65.2742 50.4616 64.4509 49.3799 63.2951 48.9169C62.2396 48.4941 61.1035 48.6269 60.0995 49.2689C60.1822 48.3581 60.3363 47.5451 60.5593 46.855C60.9651 46.8131 61.3682 46.7338 61.7641 46.6173C62.5698 46.4302 63.3144 46.132 63.9866 45.7365C65.8205 46.8321 69.8538 50.3858 70.2805 60.5233V60.5233ZM53.7538 37.286C54.2028 34.2437 56.7688 31.9044 59.8574 31.9044C63.2612 31.9044 66.0306 34.7458 66.0306 38.2381C66.0306 41.0786 64.6685 43.368 62.4722 44.3755V39.3655C62.4722 38.498 62.1402 37.4339 60.5592 37.2899C60.5305 37.2873 60.5016 37.286 60.4728 37.286H53.7538ZM55.1921 40.2876C55.1921 39.9118 55.2348 39.5448 55.319 39.1903H60.4261C60.4849 39.1966 60.5278 39.2035 60.5585 39.2097C60.5635 39.245 60.5678 39.2958 60.5678 39.3655V44.9357C60.3409 44.9691 60.1127 44.986 59.8845 44.9861C59.8824 44.9861 59.8802 44.9861 59.8782 44.9861C57.2939 44.9837 55.1921 42.8769 55.1921 40.2876ZM53.9577 55.004L56.2129 54.8216C56.4139 54.8055 56.6044 54.7259 56.7574 54.5945L60.8275 51.0937L60.8282 51.0931C61.2217 50.754 61.6418 50.5801 62.0509 50.5801C62.2329 50.5801 62.4128 50.6146 62.5871 50.6844C63.0902 50.8859 63.4475 51.3465 63.4975 51.8576C63.5603 52.5009 63.1366 53.1529 62.3046 53.6932L57.7692 56.637H53.9579V55.004H53.9577ZM49.9338 55.3295L52.0534 55.1581V56.6373H49.5904C49.2711 56.6373 49.1932 56.372 49.1841 56.1494C49.1789 56.0232 49.1908 55.3905 49.9338 55.3295V55.3295ZM47.6802 54.6722C47.3934 55.1424 47.2595 55.6925 47.2815 56.2274C47.2872 56.3659 47.3048 56.4993 47.3294 56.6293C47.3294 56.632 47.3279 56.6346 47.3284 56.6372H42.7154V53.0224L47.6839 54.6648C47.6824 54.6673 47.6816 54.6698 47.6802 54.6722V54.6722ZM49.5957 58.5415H58.0509C58.2349 58.5415 58.415 58.4881 58.5693 58.388L59.0003 58.1082C59.2076 59.0245 59.4437 59.9162 59.7009 60.7585C57.7591 61.3316 54.6768 63.184 54.6768 69.1575V74.1824C54.0087 74.3172 53.2184 74.6288 52.5574 75.3205C51.8605 76.0498 51.4625 77.0378 51.3671 78.2645H49.4463C47.5107 72.6864 46.7747 66.7505 49.5957 58.5415V58.5415ZM51.1651 82.5938C50.8132 81.7845 50.474 80.9782 50.1545 80.1689H60.0409C61.3223 80.1689 61.9719 79.5856 61.9719 78.4352V75.039V71.4459H69.4874C70.0134 71.4459 70.4396 71.0197 70.4396 70.4938C70.4396 69.9678 70.0134 69.5416 69.4874 69.5416H61.9787C61.9909 69.0008 62.0256 68.5585 62.1247 68.2972C62.1729 68.1701 62.2145 68.0604 62.7374 68.0604L66.156 68.0569C68.2971 68.0549 69.8288 67.5369 70.8387 66.4733C70.8854 66.424 70.9296 66.3723 70.9739 66.3209H77.0304H83.837V68.9378C83.837 69.2651 83.5611 69.5416 83.2346 69.5416H73.7556C73.2296 69.5416 72.8034 69.9678 72.8034 70.4938C72.8034 71.0197 73.2296 71.4459 73.7556 71.4459H82.6751C83.4277 72.8428 84.1046 74.5809 84.0644 77.327C82.1806 74.7104 79.1311 73.0279 75.6701 73.0279C72.8905 73.0279 70.2824 74.1182 68.3259 76.098C66.5898 77.8547 65.5472 80.1346 65.3326 82.597L51.1651 82.5938ZM75.7888 89.5411C72.8122 89.5411 70.3018 87.3965 69.6945 84.5016H81.883C81.2756 87.3962 78.7652 89.5411 75.7888 89.5411V89.5411ZM82.9647 82.5973H68.6131H67.2452C67.7126 78.2919 71.3125 74.9322 75.6701 74.9322C79.4958 74.9322 82.7086 77.4549 83.7726 80.9864C83.776 80.9975 83.7795 81.0087 83.7833 81.0197C83.9337 81.5264 84.04 82.0538 84.0975 82.5973H82.9647ZM92.096 62.8693C92.096 63.7226 91.4027 64.4166 90.5505 64.4166H77.9824V59.4996H92.096V62.8693ZM92.096 57.5953H77.9824V55.5702H92.096V57.5953ZM92.096 53.6659H77.9824V51.7296C77.9824 50.8764 78.6757 50.1823 79.5278 50.1823H90.5505C91.4027 50.1823 92.096 50.8765 92.096 51.7296V53.6659Z" fill="white"/>
<defs>
<linearGradient id="paint0_linear" x1="-3.98826e-10" y1="56.6622" x2="119.822" y2="56.6408" gradientUnits="userSpaceOnUse">
<stop stop-color="#B6000B"/>
<stop offset="1" stop-color="#FF1C29"/>
</linearGradient>
<linearGradient id="paint1_linear" x1="126.19" y1="56.1862" x2="6.5121" y2="56.1862" gradientUnits="userSpaceOnUse">
<stop stop-color="#FF1C29"/>
<stop offset="1" stop-color="#B6000B"/>
</linearGradient>
</defs>
</svg>
