<svg width="197" height="34" viewBox="0 0 197 34" fill="none" xmlns="http://www.w3.org/2000/svg">
<path d="M12.4838 2.985C7.44383 2.985 3.79883 5.865 3.48383 11.67H0.648828C0.468828 12.525 0.378828 13.47 0.378828 14.46C0.378828 15.45 0.468828 16.305 0.648828 17.115H3.43883V33C4.60883 33.18 5.73383 33.27 6.85883 33.27C7.98383 33.27 9.06383 33.18 10.1438 33V17.115H14.8238C15.0038 16.305 15.1388 15.405 15.1388 14.415C15.1388 13.47 15.0038 12.525 14.8238 11.67H10.1438V11.4C10.1438 9.24 11.1788 8.43 12.9338 8.43C14.1038 8.43 14.9588 8.745 15.6788 9.24C16.9388 8.34 18.1538 6.315 18.2888 4.515C17.1638 3.795 15.1838 2.985 12.4838 2.985ZM26.4099 11.04C21.7299 11.04 18.3549 13.065 17.1399 14.145C17.4549 16.125 18.5799 17.61 20.0199 18.42C21.1449 17.565 23.3049 16.575 25.8249 16.575C28.9749 16.575 30.2349 17.88 30.2349 19.725V20.58C28.9299 20.175 27.4449 19.995 25.7349 19.95C20.2899 19.905 16.4199 22.2 16.4199 26.7C16.4199 31.38 19.9749 33.72 26.0949 33.72C30.0099 33.72 33.6999 32.91 36.8949 31.605V20.4C36.8949 13.74 32.6199 11.04 26.4099 11.04ZM23.1249 26.43C23.1249 24.855 24.4299 24.135 26.5449 24.135C27.9399 24.135 29.1549 24.315 30.2349 24.63V28.545C29.1549 28.86 28.0749 29.04 26.9949 29.04C24.4299 29.04 23.1249 28.005 23.1249 26.43ZM50.5517 10.95C45.8717 10.95 42.5417 12.885 41.0567 14.235V33C42.1817 33.18 43.2617 33.27 44.3867 33.27C45.5117 33.27 46.6817 33.18 47.7617 33V17.7C48.4817 17.34 49.6517 17.07 51.0467 17.07C51.9917 17.07 52.8017 17.16 53.6117 17.385C54.8267 15.855 55.4567 13.785 55.5017 11.58C54.2417 11.175 52.5767 10.95 50.5517 10.95ZM61.4857 8.88C63.6907 8.88 65.5357 7.035 65.5357 4.83C65.5357 2.625 63.6907 0.824998 61.4857 0.824998C59.2357 0.824998 57.4357 2.625 57.4357 4.83C57.4357 7.035 59.2807 8.88 61.4857 8.88ZM61.4407 33.27C62.6107 33.27 63.7357 33.18 64.8157 33V11.67C63.6457 11.445 62.5207 11.4 61.4407 11.4C60.3157 11.4 59.1907 11.445 58.1107 11.67V33C59.2357 33.18 60.3607 33.27 61.4407 33.27ZM78.3093 11.04C73.6293 11.04 70.2543 13.065 69.0393 14.145C69.3543 16.125 70.4793 17.61 71.9193 18.42C73.0443 17.565 75.2043 16.575 77.7243 16.575C80.8743 16.575 82.1343 17.88 82.1343 19.725V20.58C80.8293 20.175 79.3443 19.995 77.6343 19.95C72.1893 19.905 68.3193 22.2 68.3193 26.7C68.3193 31.38 71.8743 33.72 77.9943 33.72C81.9093 33.72 85.5993 32.91 88.7943 31.605V20.4C88.7943 13.74 84.5193 11.04 78.3093 11.04ZM75.0243 26.43C75.0243 24.855 76.3293 24.135 78.4443 24.135C79.8393 24.135 81.0543 24.315 82.1343 24.63V28.545C81.0543 28.86 79.9743 29.04 78.8943 29.04C76.3293 29.04 75.0243 28.005 75.0243 26.43ZM101.236 33.765C107.491 33.765 110.911 30.975 110.911 26.52C110.911 21.885 107.356 20.49 103.126 19.77C99.7511 19.14 98.8061 18.735 98.8061 17.655C98.8061 16.575 99.7961 16.125 101.911 16.125C104.341 16.125 106.726 16.89 108.166 17.7C109.381 16.755 110.236 15.18 110.506 13.02C109.021 12.075 106.276 11.04 101.821 11.04C96.4661 11.04 92.4161 13.56 92.4161 17.97C92.4161 22.695 96.1061 23.955 99.6161 24.675C103.126 25.305 104.251 25.89 104.251 27.015C104.251 27.96 103.531 28.725 101.461 28.725C98.2211 28.725 96.0161 27.555 94.4411 26.565C93.1361 27.375 92.1461 28.95 91.7861 31.065C93.1811 32.235 96.4211 33.765 101.236 33.765ZM118.042 33.855C120.382 33.855 122.317 31.875 122.317 29.58C122.317 27.24 120.382 25.305 118.042 25.305C115.747 25.305 113.812 27.24 113.812 29.58C113.812 31.875 115.747 33.855 118.042 33.855ZM143.733 3.165C142.653 3.165 141.528 3.21 140.403 3.435V11.445C139.413 11.175 138.333 11.04 136.938 11.04C130.323 11.04 125.013 15.45 125.013 22.47C125.013 29.715 129.693 33.765 137.478 33.765C141.168 33.765 144.858 32.775 147.108 31.65V3.435C145.983 3.21 144.858 3.165 143.733 3.165ZM137.253 28.05C134.013 28.05 131.763 25.8 131.763 22.38C131.763 18.915 134.193 16.755 137.343 16.755C138.378 16.755 139.413 16.89 140.403 17.385V27.645C139.368 27.915 138.333 28.05 137.253 28.05ZM172.05 20.85C172.05 14.865 167.955 11.04 161.925 11.04C155.535 11.04 150.765 15.765 150.765 22.515C150.765 29.67 155.535 33.765 162.15 33.765C166.785 33.765 169.71 32.19 171.6 30.75C171.42 29.085 170.565 27.285 169.17 26.205C167.505 27.285 165.57 28.365 162.87 28.365C159.675 28.365 158.01 27.015 157.605 24H171.825C172.005 22.92 172.05 21.93 172.05 20.85ZM157.605 20.22C157.92 17.79 159.405 16.125 161.97 16.125C164.715 16.26 165.705 18.15 165.705 20.22H157.605ZM184.981 33.315C186.061 33.315 187.186 33.225 188.266 33C192.136 26.655 194.386 20.31 196.321 11.94C195.196 11.625 193.531 11.4 191.911 11.4C191.011 11.4 190.066 11.445 189.301 11.535C187.996 18.24 186.511 23.595 185.341 26.655C185.206 27.06 185.116 27.375 185.116 27.69H185.071C185.071 27.375 184.981 27.105 184.801 26.655C183.721 23.865 182.011 18.195 180.796 11.535C180.076 11.445 179.131 11.4 178.321 11.4C176.476 11.4 174.406 11.67 173.506 11.94C175.306 20.13 177.376 26.385 181.651 33C182.776 33.225 183.856 33.315 184.981 33.315Z" fill="white"/>
</svg>
